<svg xmlns="http://www.w3.org/2000/svg" id="add-user" width="21.397" height="21.075" viewBox="0 0 21.397 21.075">
    <defs>
        <style>
            .cls-1{fill:#fff}
        </style>
    </defs>
    <path id="Path_4" d="M68.473 9.9A4.871 4.871 0 1 0 63.6 5.024 4.871 4.871 0 0 0 68.473 9.9zm0-8.821a3.949 3.949 0 1 1-3.949 3.949 3.949 3.949 0 0 1 3.949-3.953zm0 0" class="cls-1" transform="translate(-60.671 -.153)"/>
    <path id="Path_5" d="M7.8 236.272h.01a6.763 6.763 0 0 1 4.719 1.885l.641-.664a7.688 7.688 0 0 0-5.36-2.143H7.8a7.647 7.647 0 0 0-5.521 2.318A8.187 8.187 0 0 0 0 243.47a.476.476 0 0 0 .134.327.456.456 0 0 0 .327.134l12.259-.023v-.922l-11.786.024a7.207 7.207 0 0 1 2-4.7 6.743 6.743 0 0 1 4.866-2.038zm0 0" class="cls-1" transform="translate(.001 -224.511)"/>
    <path id="Path_6" d="M307.995 298.815h-1.406v-1.405a.461.461 0 1 0-.922 0v1.406h-1.406a.461.461 0 1 0 0 .922h1.406v1.406a.461.461 0 1 0 .922 0v-1.406h1.406a.461.461 0 1 0 0-.922zm0 0" class="cls-1" transform="translate(-289.8 -283.271)"/>
    <path id="Path_7" fill="#00d97e" d="M249.37 237.448a5.044 5.044 0 1 0 3.592 1.477 5.069 5.069 0 0 0-3.592-1.477zm0 9.217a4.148 4.148 0 1 1 4.148-4.148 4.148 4.148 0 0 1-4.148 4.148zm0 0" transform="translate(-233.042 -226.512)"/>
</svg>
