<svg xmlns="http://www.w3.org/2000/svg" width="156.371" height="160.08" viewBox="0 0 156.371 160.08">
    <defs>
        <style>
            .cls-2{fill:#fff}.cls-3{fill:#00d97e}
        </style>
    </defs>
    <g id="discount" transform="translate(-.067 .999)">
        <path id="Path_44" fill="#d4e1f4" d="M82.5 125.609zm-38.43 0" transform="translate(-24.564 -70.124)"/>
        <path id="Path_45" d="M173.394 37.211a3.093 3.093 0 0 1-2.186-5.278l27.214-27.215A16.1 16.1 0 0 1 221.2 27.493l-8.5 8.731a3.092 3.092 0 0 1-4.429-4.315l8.529-8.759a9.921 9.921 0 1 0-14-14.059l-27.218 27.214a3.094 3.094 0 0 1-2.188.906zm0 0" class="cls-2" transform="translate(-95.038 -1)"/>
        <path id="Path_46" d="M83.256 45.1a3.084 3.084 0 0 1-2.186-.9l-2.252-2.26a16.1 16.1 0 0 1 22.775-22.775l20.6 20.6a3.092 3.092 0 0 1-4.372 4.374l-20.6-20.6a9.921 9.921 0 0 0-14.03 14.03l2.254 2.254a3.093 3.093 0 0 1-2.189 5.277zm0 0" class="cls-2" transform="translate(-41.353 -9.087)"/>
        <path id="Path_47" d="M139.418 240.384a3.073 3.073 0 0 1-1.1-.2l-9.82-3.741-9.818 3.741a3.093 3.093 0 0 1-3.691-1.2l-5.746-8.795-10.143-2.748a3.091 3.091 0 0 1-2.28-3.141l.523-10.494-6.591-8.182a3.092 3.092 0 0 1 0-3.881l6.591-8.182-.523-10.494a3.093 3.093 0 0 1 2.279-3.139l10.142-2.745 5.746-8.8a3.092 3.092 0 0 1 3.691-1.2l9.818 3.737 9.82-3.741a3.09 3.09 0 0 1 3.689 1.2l5.746 8.8 10.142 2.745a3.091 3.091 0 0 1 2.281 3.139l-.525 10.494 6.593 8.182a3.1 3.1 0 0 1 0 3.881l-6.593 8.182.525 10.494a3.091 3.091 0 0 1-2.281 3.139l-10.142 2.749-5.746 8.8a3.084 3.084 0 0 1-2.587 1.4zM128.5 230.039a3.081 3.081 0 0 1 1.1.2l8.593 3.273 5.026-7.7a3.1 3.1 0 0 1 1.781-1.289l8.876-2.4-.457-9.183a3.091 3.091 0 0 1 .68-2.095l5.768-7.159-5.768-7.161a3.088 3.088 0 0 1-.68-2.095l.457-9.183-8.876-2.4a3.1 3.1 0 0 1-1.781-1.294l-5.026-7.7-8.593 3.275a3.1 3.1 0 0 1-2.2 0l-8.591-3.275-5.028 7.7a3.094 3.094 0 0 1-1.781 1.29l-8.876 2.4.459 9.183a3.09 3.09 0 0 1-.682 2.095l-5.768 7.161 5.768 7.159a3.093 3.093 0 0 1 .682 2.095l-.459 9.183 8.876 2.4a3.094 3.094 0 0 1 1.781 1.294l5.028 7.7 8.591-3.273a3.081 3.081 0 0 1 1.1-.201zm0 0" class="cls-2" transform="translate(-50.245 -93.221)"/>
        <g id="Group_6" transform="translate(.067 31.021)">
            <path id="Path_48" d="M141.3 220.713a9.163 9.163 0 1 0-9.164-9.164 9.163 9.163 0 0 0 9.164 9.164zm0-12.142a2.979 2.979 0 1 1-2.98 2.978 2.978 2.978 0 0 1 2.98-2.978zm0 0" class="cls-3" transform="translate(-73.796 -144.008)"/>
            <path id="Path_49" d="M179.414 266.525a9.163 9.163 0 1 0 9.162-9.162 9.16 9.16 0 0 0-9.162 9.162zm12.141 0a2.978 2.978 0 1 1-2.978-2.978 2.979 2.979 0 0 1 2.978 2.978zm0 0" class="cls-3" transform="translate(-100.191 -174.699)"/>
            <path id="Path_50" d="M150.541 243.125a3.1 3.1 0 0 0 4.281-.9l19.443-29.815a3.092 3.092 0 1 0-5.18-3.379l-19.445 29.815a3.1 3.1 0 0 0 .901 4.279zm0 0" class="cls-3" transform="translate(-83.289 -146.918)"/>
            <path id="Path_51" d="M3.159 109.709h6.724v71.586a17.011 17.011 0 0 0 16.993 16.991h102.755a17.009 17.009 0 0 0 16.991-16.991v-71.586h6.724a3.091 3.091 0 0 0 3.092-3.092v-19.4a17.011 17.011 0 0 0-16.991-16.993H17.06A17.012 17.012 0 0 0 .067 87.219v19.4a3.093 3.093 0 0 0 3.092 3.092zm137.279 71.586a10.818 10.818 0 0 1-10.807 10.805H26.876a10.818 10.818 0 0 1-10.809-10.807v-71.584h124.371zM99.455 76.411h39.992a10.821 10.821 0 0 1 10.807 10.809v16.306h-50.8zm-35.338 0h29.154v27.114H64.117zM6.251 87.219a10.823 10.823 0 0 1 10.808-10.808h40.874v27.114H6.251zm0 0" class="cls-3" transform="translate(-.067 -70.226)"/>
        </g>
    </g>
</svg>
