<svg xmlns="http://www.w3.org/2000/svg" width="389.24" height="391.101" viewBox="0 0 389.24 391.101">
    <defs>
        <style>
            .cls-1{fill:#00d97e}
        </style>
    </defs>
    <g id="gift-box" transform="translate(-19.63 -18.5)">
        <g id="Group_121" transform="translate(19.63 18.5)">
            <path id="Path_314" d="M370.995 91.87h-147.5l64.937-64.937a4.94 4.94 0 1 0-6.986-6.987L214.25 87.14l-67.193-67.193a4.94 4.94 0 0 0-6.986 6.987l64.937 64.936H57.505a37.919 37.919 0 0 0-37.875 37.876V175.8a4.94 4.94 0 0 0 4.94 4.94h19.852v190.986A37.918 37.918 0 0 0 82.3 409.6h263.9a37.918 37.918 0 0 0 37.875-37.875v-190.98h19.855a4.94 4.94 0 0 0 4.94-4.94v-46.059a37.919 37.919 0 0 0-37.875-37.876zm27.995 78.994h-76.261v9.88H374.2v190.982a28.026 28.026 0 0 1-28 27.994h-90.584v-59.447a4.94 4.94 0 0 0-9.88 0v59.447h-62.972V266.376h-9.88V399.72H82.3a28.026 28.026 0 0 1-28-27.994V180.745h52.086v-9.88H29.51v-41.119a28.026 28.026 0 0 1 27.995-27.995h313.49a28.026 28.026 0 0 1 27.995 27.995z" class="cls-1" transform="translate(-19.63 -18.5)"/>
            <path id="Path_315" d="M294.24 319.55v49.17a4.94 4.94 0 1 0 9.88 0v-49.17z" class="cls-1" transform="translate(-68.134 -71.674)"/>
            <path id="Path_316" d="M94.94 309.01a4.94 4.94 0 0 0-4.94 4.94v5.657a4.94 4.94 0 0 0 9.88 0v-5.657a4.94 4.94 0 0 0-4.94-4.94z" class="cls-1" transform="translate(-32.059 -69.813)"/>
            <path id="Path_317" d="M94.94 334.3a4.94 4.94 0 0 0-4.94 4.94v82.905a4.94 4.94 0 1 0 9.88 0V339.24a4.94 4.94 0 0 0-4.94-4.94z" class="cls-1" transform="translate(-32.059 -74.28)"/>
        </g>
        <path id="Path_318" fill="#fff" d="M231.732 229.116a12.28 12.28 0 0 0 3.256 1.737l36.366 75.065a4.94 4.94 0 0 0 4.4 2.787h.044a4.94 4.94 0 0 0 4.41-2.705l10.157-20.074 22.048 4.473a4.94 4.94 0 0 0 5.428-7L301.278 249.2a141.791 141.791 0 0 0 32.745 8.385 4.932 4.932 0 0 0 5.467-3.93 276.134 276.134 0 0 0 5.364-54.125c0-.695 0-1.381-.008-2.053a275.84 275.84 0 0 0-5.358-52.083 4.933 4.933 0 0 0-5.469-3.929c-29.32 3.736-54.355 17.162-77.415 31.5a11.339 11.339 0 0 0-10.786-7.887h-6.645a12.3 12.3 0 0 0-7.443 2.51 12.3 12.3 0 0 0-7.443-2.51h-6.645a11.339 11.339 0 0 0-10.786 7.891 320.094 320.094 0 0 0-30.815-17.169 4.94 4.94 0 0 0-4.244 8.923 336.191 336.191 0 0 1 34.526 19.577v2.327l-12.01-3.532a4.94 4.94 0 1 0-2.789 9.479l14.8 4.353v4.978l-19.819 4.5a4.94 4.94 0 1 0 2.19 9.634l17.628-4.008v2.717c-11.233 7.1-23.314 14.374-36.093 20.326l-.238.11c-.134.061-.269.123-.4.185a144.486 144.486 0 0 1-36.8 11.741 266.361 266.361 0 0 1-4.3-47.58c0-.659 0-1.3.008-1.982a265.964 265.964 0 0 1 4.282-45.609 129.593 129.593 0 0 1 19.82 4.976 4.94 4.94 0 1 0 3.123-9.374 137.069 137.069 0 0 0-26.283-6.076 4.949 4.949 0 0 0-5.468 3.929 275.8 275.8 0 0 0-5.358 52.06c-.008.695-.008 1.381-.008 2.076a276.022 276.022 0 0 0 5.357 54.083 4.932 4.932 0 0 0 5.476 3.974 141.779 141.779 0 0 0 32.75-8.387l-16.569 34.2a4.94 4.94 0 0 0 5.428 7l22.048-4.473L183.255 306a4.94 4.94 0 0 0 4.408 2.71h.044a4.94 4.94 0 0 0 4.4-2.787l36.367-75.067a12.273 12.273 0 0 0 3.258-1.74zm56.906 46.375a4.934 4.934 0 0 0-5.39 2.611l-7.348 14.529-29.592-61.067a11.324 11.324 0 0 0 9.5-5.979 318.887 318.887 0 0 0 31.6 17.652l17.2 35.491zm46.329-77.915c.008.659.008 1.3.008 1.959a266.221 266.221 0 0 1-4.284 47.534 142.392 142.392 0 0 1-36.845-11.706l-.185-.082c-.108-.049-.217-.1-.323-.151-.044-.023-.089-.044-.134-.066-12.724-5.913-24.814-13.194-36.064-20.306v-2.717l17.628 4.007a4.94 4.94 0 1 0 2.19-9.634l-19.819-4.5v-4.978l14.8-4.353a4.94 4.94 0 1 0-2.789-9.479l-12.01 3.532V184.3c22.2-14.046 46.12-27.769 73.541-32.354a266.081 266.081 0 0 1 4.284 45.627zm-95.793-22.611h6.645a1.442 1.442 0 0 1 1.441 1.441v43.861a1.443 1.443 0 0 1-1.441 1.441h-6.645c-.093 0-.184-.009-.273-.017a2.509 2.509 0 0 1-2.23-2.486v-41.736a2.505 2.505 0 0 1 2.504-2.503zm-22.974 1.442a1.443 1.443 0 0 1 1.441-1.441h6.645a2.505 2.505 0 0 1 2.5 2.5v41.737a2.541 2.541 0 0 1-2.5 2.5h-6.645a1.442 1.442 0 0 1-1.441-1.441zm-28.632 116.224l-7.351-14.531a4.94 4.94 0 0 0-5.39-2.611l-15.964 3.237 17.2-35.487a320.686 320.686 0 0 0 31.591-17.652 11.325 11.325 0 0 0 9.507 5.976z" transform="translate(-17.482 -21.713)"/>
    </g>
</svg>
