<svg xmlns="http://www.w3.org/2000/svg" width="293" height="277.533" viewBox="0 0 293 277.533">
    <defs>
        <style>
            .cls-11,.cls-2{fill:#00d97e}.cls-13,.cls-4,.cls-6,.cls-8{fill:none}.cls-4,.cls-6{stroke:#000}.cls-11,.cls-13,.cls-4,.cls-7,.cls-8,.cls-9{stroke-linecap:round;stroke-linejoin:round}.cls-5{opacity:.2}.cls-6{stroke-miterlimit:10}.cls-7{fill:#fff}.cls-11,.cls-7,.cls-8,.cls-9{stroke:#08082c}.cls-10,.cls-9{fill:#08082c}.cls-13{stroke:#fff}
        </style>
    </defs>
    <g id="Group_350" transform="translate(-15.086 -32.632)">
        <g id="Background_Simple" opacity="0.33" transform="translate(15.086 32.632)">
            <path id="Path_540" d="M292.493 234.043C313.839 183.5 316.539 112.069 279.747 67.7c-20.291-24.471-52.22-32.607-82.7-34.427-27.315-1.63-56.555-.979-81.373 11.948-42.066 21.911-43.1 74.01-74.614 104.751-25.408 24.786-35.942 60.106-14.254 106.579s61.964 57.007 101.621 42.136 57.627-17.97 105.34-10.534c21.929 3.417 37.841-13.039 47.462-30.768 4.125-7.602 7.907-15.395 11.264-23.342z" class="cls-2" transform="translate(-15.086 -32.632)"/>
            <path id="Path_541" fill="#00d97e" d="M292.493 234.043C313.839 183.5 316.539 112.069 279.747 67.7c-20.291-24.471-52.22-32.607-82.7-34.427-27.315-1.63-56.555-.979-81.373 11.948-42.066 21.911-43.1 74.01-74.614 104.751-25.408 24.786-35.942 60.106-14.254 106.579s61.964 57.007 101.621 42.136 57.627-17.97 105.34-10.534c21.929 3.417 37.841-13.039 47.462-30.768 4.125-7.602 7.907-15.395 11.264-23.342z" opacity="0.11" transform="translate(-15.086 -32.632)"/>
        </g>
        <g id="Graphics" transform="translate(26.861 35.777)">
            <path id="Line_166" d="M0 0L33.601 0" class="cls-4" transform="translate(148.717 243.366)"/>
            <g id="Group_324" class="cls-5" transform="translate(125.165)">
                <path id="Path_542" d="M268.228 42.668a19.247 19.247 0 0 0-26.546 27.858" class="cls-4" transform="translate(-236.084 -37.708)"/>
                <path id="Path_543" d="M248.659 76.429a19.248 19.248 0 0 0 25.9-28.191" class="cls-4" transform="translate(-240.867 -41.713)"/>
                <path id="Path_544" d="M275.953 68.77h-8.807v14.953" class="cls-4" transform="translate(-247.899 -49.523)"/>
            </g>
            <g id="Group_327" class="cls-5" transform="translate(0 32.522)">
                <g id="Group_325">
                    <path id="Path_545" d="M42.283 90.26a9.68 9.68 0 1 0 4.882 18.632" class="cls-4" transform="translate(-34.089 -90.218)"/>
                    <path id="Path_546" d="M56.977 106.933a9.68 9.68 0 0 0-5.36-16.74" class="cls-4" transform="translate(-40.756 -90.193)"/>
                </g>
                <g id="Group_326" transform="translate(4.748 4.677)">
                    <path id="Line_167" d="M0 0L0 9.861" class="cls-6" transform="translate(4.931)"/>
                    <path id="Line_168" d="M9.861 0L0 0" class="cls-6" transform="translate(0 4.931)"/>
                </g>
            </g>
            <g id="Group_330" class="cls-5" transform="translate(260.447 107.869)">
                <g id="Group_328">
                    <circle id="Ellipse_34" cx="9.679" cy="9.679" r="9.679" class="cls-4"/>
                </g>
                <g id="Group_329" transform="translate(4.748 4.748)">
                    <path id="Line_169" d="M0 0L0 9.861" class="cls-6" transform="translate(4.931)"/>
                    <path id="Line_170" d="M9.861 0L0 0" class="cls-6" transform="translate(0 4.931)"/>
                </g>
            </g>
        </g>
        <g id="Task_Panel" transform="translate(56.549 92.804)">
            <g id="Group_334">
                <path id="Path_547" d="M304.451 319.512H82l.261-183.123a6.648 6.648 0 0 1 6.648-6.648h209.155a6.648 6.648 0 0 1 6.648 6.648z" class="cls-7" transform="translate(-82 -129.74)"/>
                <path id="Rectangle_146" d="M0 0H31.581V6.502H0z" class="cls-8" transform="translate(29.586 16.271)"/>
                <path id="Line_171" d="M0 0L57.6 0" class="cls-8" transform="translate(156.915 25.126)"/>
                <path id="Line_172" d="M0 0L140.95 0" class="cls-8" transform="translate(12.609 25.126)"/>
                <g id="Group_332" transform="translate(.261)">
                    <path id="Path_548" d="M298.225 129.74H89.07a6.648 6.648 0 0 0-6.648 6.648v5.061h222.451v-5.061a6.648 6.648 0 0 0-6.648-6.648z" class="cls-9" transform="translate(-82.422 -129.74)"/>
                    <g id="Group_331" transform="translate(8.106 4.493)">
                        <path id="Path_549" d="M99.516 139a2.006 2.006 0 1 0-2.006 2 2.005 2.005 0 0 0 2.006-2z" class="cls-7" transform="translate(-95.504 -136.992)"/>
                        <path id="Path_550" d="M112.464 139a2.006 2.006 0 1 0-2.006 2 2.006 2.006 0 0 0 2.006-2z" class="cls-7" transform="translate(-100.429 -136.992)"/>
                        <circle id="Ellipse_35" cx="2.006" cy="2.006" r="2.006" class="cls-7" transform="translate(16.046)"/>
                    </g>
                </g>
                <g id="Group_333" transform="translate(13.098 16.658)">
                    <path id="Line_173" d="M0 0L9.521 0" class="cls-8"/>
                    <path id="Line_174" d="M0 0L9.521 0" class="cls-8" transform="translate(0 2.554)"/>
                    <path id="Line_175" d="M0 0L9.521 0" class="cls-8" transform="translate(0 5.109)"/>
                </g>
            </g>
            <g id="Group_339" transform="translate(12.764 90.476)">
                <path id="Rectangle_147" d="M0 0H139.981V37.399H0z" class="cls-7"/>
                <g id="Group_338" transform="translate(6.936 9.716)">
                    <g id="Group_335" transform="translate(100.078)">
                        <path id="Path_551" d="M276.155 291.5c.613 0 .876.362.876.954v.468c0 .619-.291.942-.91.942h-.385v1.54h-.436v-3.9zm-.033 1.975c.323 0 .48-.151.48-.525v-.519c0-.357-.128-.535-.446-.535h-.418v1.579z" class="cls-10" transform="translate(-275.302 -291.457)"/>
                        <path id="Path_552" d="M279.511 291.5c.613 0 .87.312.87.892v.318c0 .429-.151.7-.485.8.357.105.491.4.491.814v.608a.978.978 0 0 0 .078.468h-.441a1.023 1.023 0 0 1-.072-.474v-.613c0-.441-.206-.581-.569-.581h-.307v1.668h-.435v-3.9zm-.112 1.84c.346 0 .552-.112.552-.535v-.374c0-.351-.128-.535-.452-.535h-.423v1.444z" class="cls-10" transform="translate(-276.572 -291.457)"/>
                        <path id="Path_553" d="M282.132 292.415c0-.6.3-.982.892-.982s.9.385.9.982v2.019c0 .591-.3.982-.9.982s-.892-.39-.892-.982zm.429 2.042c0 .357.151.563.463.563s.464-.206.464-.563v-2.064c0-.352-.145-.563-.464-.563s-.463.211-.463.563z" class="cls-10" transform="translate(-277.9 -291.433)"/>
                        <path id="Path_554" d="M287.39 292.415v.335h-.413v-.357c0-.352-.139-.563-.458-.563s-.457.211-.457.563v2.064c0 .351.145.563.457.563s.458-.212.458-.563v-.781h-.4v-.391h.815v1.149c0 .591-.279.982-.881.982s-.876-.39-.876-.982v-2.019c0-.592.279-.982.876-.982s.879.39.879.982z" class="cls-10" transform="translate(-279.231 -291.433)"/>
                        <path id="Path_555" d="M290 291.5c.613 0 .87.312.87.892v.318c0 .429-.151.7-.485.8.357.105.491.4.491.814v.608a.978.978 0 0 0 .078.468h-.441a1.023 1.023 0 0 1-.072-.474v-.613c0-.441-.206-.581-.569-.581h-.307v1.668h-.435v-3.9zm-.112 1.84c.346 0 .552-.112.552-.535v-.374c0-.351-.128-.535-.452-.535h-.423v1.444z" class="cls-10" transform="translate(-280.564 -291.457)"/>
                        <path id="Path_556" d="M294.07 293.225v.39h-.954V295h1.171v.4h-1.606v-3.9h1.606v.4h-1.171v1.333z" class="cls-10" transform="translate(-281.912 -291.457)"/>
                        <path id="Path_557" d="M297.572 292.409v.106h-.413v-.128c0-.351-.133-.558-.446-.558s-.446.206-.446.552c0 .876 1.311.959 1.311 2.058 0 .592-.284.977-.881.977s-.876-.385-.876-.977v-.222h.407v.245c0 .351.146.558.458.558s.457-.206.457-.558c0-.871-1.3-.954-1.3-2.053 0-.6.279-.976.864-.976s.865.385.865.976z" class="cls-10" transform="translate(-283.106 -291.433)"/>
                        <path id="Path_558" d="M300.921 292.409v.106h-.413v-.128c0-.351-.134-.558-.447-.558s-.445.206-.445.552c0 .876 1.311.959 1.311 2.058 0 .592-.284.977-.881.977s-.876-.385-.876-.977v-.222h.407v.245c0 .351.145.558.457.558s.458-.206.458-.558c0-.871-1.306-.954-1.306-2.053 0-.6.279-.976.865-.976s.87.385.87.976z" class="cls-10" transform="translate(-284.38 -291.433)"/>
                    </g>
                    <g id="Group_337" transform="translate(0 4.5)">
                        <g id="Group_336">
                            <path id="Line_176" d="M0 0L8.151 0" class="cls-8" transform="translate(47.292)"/>
                            <path id="Line_177" d="M0 0L21.518 0" class="cls-8" transform="translate(22.84)"/>
                            <path id="Line_178" d="M0 0L19.58 0" class="cls-8"/>
                            <path id="Line_179" d="M0 0L6.232 0" class="cls-8" transform="translate(35.229 9.275)"/>
                            <path id="Line_180" d="M0 0L10.759 0" class="cls-8" transform="translate(19.254 9.275)"/>
                            <path id="Line_181" d="M0 0L4.564 0" class="cls-8" transform="translate(11.429 9.275)"/>
                            <path id="Line_182" d="M0 0L8.821 0" class="cls-8" transform="translate(0 9.275)"/>
                        </g>
                        <path id="Path_559" d="M297.7 309.071a2.93 2.93 0 0 1-2.926 2.929h-30.7a2.931 2.931 0 0 1-2.931-2.925 2.941 2.941 0 0 1 2.931-2.931h30.7a2.927 2.927 0 0 1 2.926 2.927z" class="cls-7" transform="translate(-169.837 -301.527)"/>
                        <path id="Path_560" d="M288.547 306.14V312h-24.476a2.931 2.931 0 0 1-2.931-2.925 2.941 2.941 0 0 1 2.931-2.931z" class="cls-11" transform="translate(-169.837 -301.527)"/>
                    </g>
                </g>
            </g>
            <g id="Group_344" transform="translate(12.764 138.195)">
                <path id="Rectangle_148" d="M0 0H139.981V37.399H0z" class="cls-7"/>
                <g id="Group_343" transform="translate(6.936 10.504)">
                    <g id="Group_340" transform="translate(100.078)">
                        <path id="Path_561" d="M276.155 369.779c.613 0 .876.362.876.954v.468c0 .619-.291.942-.91.942h-.385v1.54h-.436v-3.9zm-.033 1.975c.323 0 .48-.151.48-.524v-.519c0-.357-.128-.536-.446-.536h-.418v1.579z" class="cls-10" transform="translate(-275.302 -369.74)"/>
                        <path id="Path_562" d="M279.511 369.779c.613 0 .87.312.87.893v.318c0 .429-.151.7-.485.8.357.106.491.4.491.815v.608a.978.978 0 0 0 .078.468h-.441a1.023 1.023 0 0 1-.072-.474v-.607c0-.441-.206-.581-.569-.581h-.307v1.668h-.435v-3.9zm-.112 1.841c.346 0 .552-.112.552-.535v-.374c0-.352-.128-.536-.452-.536h-.423v1.445z" class="cls-10" transform="translate(-276.572 -369.74)"/>
                        <path id="Path_563" d="M282.132 370.7c0-.6.3-.982.892-.982s.9.385.9.982v2.019c0 .591-.3.982-.9.982s-.892-.39-.892-.982zm.429 2.042c0 .357.151.563.463.563s.464-.206.464-.563v-2.064c0-.352-.145-.564-.464-.564s-.463.212-.463.564z" class="cls-10" transform="translate(-277.9 -369.716)"/>
                        <path id="Path_564" d="M287.39 370.7v.335h-.413v-.357c0-.352-.139-.564-.458-.564s-.457.212-.457.564v2.064c0 .351.145.563.457.563s.458-.212.458-.563v-.781h-.4v-.39h.815v1.149c0 .591-.279.982-.881.982s-.876-.39-.876-.982v-2.02c0-.592.279-.982.876-.982s.879.388.879.982z" class="cls-10" transform="translate(-279.231 -369.716)"/>
                        <path id="Path_565" d="M290 369.779c.613 0 .87.312.87.893v.318c0 .429-.151.7-.485.8.357.106.491.4.491.815v.608a.977.977 0 0 0 .078.468h-.441a1.023 1.023 0 0 1-.072-.474v-.607c0-.441-.206-.581-.569-.581h-.307v1.668h-.435v-3.9zm-.112 1.841c.346 0 .552-.112.552-.535v-.374c0-.352-.128-.536-.452-.536h-.423v1.445z" class="cls-10" transform="translate(-280.564 -369.74)"/>
                        <path id="Path_566" d="M294.07 371.508v.39h-.954v1.389h1.171v.4h-1.606v-3.9h1.606v.4h-1.171v1.333z" class="cls-10" transform="translate(-281.912 -369.74)"/>
                        <path id="Path_567" d="M297.572 370.692v.107h-.413v-.128c0-.351-.133-.558-.446-.558s-.446.207-.446.553c0 .876 1.311.959 1.311 2.058 0 .592-.284.977-.881.977s-.876-.385-.876-.977v-.224h.407v.245c0 .352.146.558.458.558s.457-.206.457-.558c0-.87-1.3-.954-1.3-2.053 0-.6.279-.976.864-.976s.865.384.865.976z" class="cls-10" transform="translate(-283.106 -369.716)"/>
                        <path id="Path_568" d="M300.921 370.692v.107h-.413v-.128c0-.351-.134-.558-.447-.558s-.445.207-.445.553c0 .876 1.311.959 1.311 2.058 0 .592-.284.977-.881.977s-.876-.385-.876-.977v-.224h.407v.245c0 .352.145.558.457.558s.458-.206.458-.558c0-.87-1.306-.954-1.306-2.053 0-.6.279-.976.865-.976s.87.384.87.976z" class="cls-10" transform="translate(-284.38 -369.716)"/>
                    </g>
                    <g id="Group_342" transform="translate(0 4.501)">
                        <g id="Group_341">
                            <path id="Line_183" d="M0 0L8.151 0" class="cls-8" transform="translate(47.292)"/>
                            <path id="Line_184" d="M0 0L21.518 0" class="cls-8" transform="translate(22.84)"/>
                            <path id="Line_185" d="M0 0L19.58 0" class="cls-8"/>
                            <path id="Line_186" d="M0 0L6.232 0" class="cls-8" transform="translate(35.229 9.275)"/>
                            <path id="Line_187" d="M0 0L10.759 0" class="cls-8" transform="translate(19.254 9.275)"/>
                            <path id="Line_188" d="M0 0L4.564 0" class="cls-8" transform="translate(11.429 9.275)"/>
                            <path id="Line_189" d="M0 0L8.821 0" class="cls-8" transform="translate(0 9.275)"/>
                        </g>
                        <path id="Path_569" d="M297.7 387.355a2.92 2.92 0 0 1-2.925 2.925h-30.7a2.927 2.927 0 0 1-2.931-2.925 2.93 2.93 0 0 1 2.931-2.925h30.7a2.922 2.922 0 0 1 2.925 2.925z" class="cls-7" transform="translate(-169.837 -379.814)"/>
                        <path id="Path_570" d="M266.989 384.43v5.849h-2.918a2.927 2.927 0 0 1-2.931-2.925 2.93 2.93 0 0 1 2.931-2.925z" class="cls-11" transform="translate(-169.837 -379.814)"/>
                    </g>
                </g>
            </g>
            <g id="Group_345" transform="translate(161.522 42.77)">
                <rect id="Rectangle_149" width="54.821" height="19.693" class="cls-11" rx="4.724"/>
                <text id="Details" fill="#030321" font-family="Gotham-Medium, Gotham" font-size="9px" font-weight="500" transform="translate(10.218 11.891)">
                    <tspan x="0" y="0">Details</tspan>
                </text>
            </g>
        </g>
        <g id="Character" transform="translate(69.313 135.574)">
            <path id="Path_571" d="M108.09 255.482v6.027s61.7-2.524 136.578-3.773z" class="cls-9" transform="translate(-104.688 -220.337)"/>
            <path id="Rectangle_150" d="M0 0H139.981V37.399H0z" class="cls-7"/>
            <g id="Group_349" transform="translate(6.936 9.599)">
                <g id="Group_346" transform="translate(100.078)">
                    <path id="Path_572" d="M276.155 214.318c.613 0 .876.362.876.954v.468c0 .62-.291.943-.91.943h-.385v1.54h-.436v-3.9zm-.033 1.975c.323 0 .48-.151.48-.524v-.519c0-.357-.128-.535-.446-.535h-.418v1.579z" class="cls-10" transform="translate(-275.302 -214.279)"/>
                    <path id="Path_573" d="M279.511 214.318c.613 0 .87.312.87.892v.318c0 .429-.151.7-.485.8.357.106.491.4.491.814v.608a.979.979 0 0 0 .078.469h-.441a1.024 1.024 0 0 1-.072-.474v-.614c0-.441-.206-.58-.569-.58h-.307v1.668h-.435v-3.9zm-.112 1.841c.346 0 .552-.112.552-.536v-.374c0-.351-.128-.535-.452-.535h-.423v1.445z" class="cls-10" transform="translate(-276.572 -214.279)"/>
                    <path id="Path_574" d="M282.132 215.237c0-.6.3-.982.892-.982s.9.385.9.982v2.019c0 .591-.3.982-.9.982s-.892-.391-.892-.982zm.429 2.042c0 .357.151.563.463.563s.464-.206.464-.563v-2.064c0-.351-.145-.563-.464-.563s-.463.212-.463.563z" class="cls-10" transform="translate(-277.9 -214.255)"/>
                    <path id="Path_575" d="M287.39 215.237v.335h-.413v-.357c0-.351-.139-.563-.458-.563s-.457.212-.457.563v2.064c0 .351.145.563.457.563s.458-.212.458-.563v-.779h-.4v-.39h.815v1.149c0 .591-.279.982-.881.982s-.876-.391-.876-.982v-2.019c0-.591.279-.982.876-.982s.879.387.879.979z" class="cls-10" transform="translate(-279.231 -214.255)"/>
                    <path id="Path_576" d="M290 214.318c.613 0 .87.312.87.892v.318c0 .429-.151.7-.485.8.357.106.491.4.491.814v.608a.979.979 0 0 0 .078.469h-.441a1.024 1.024 0 0 1-.072-.474v-.614c0-.441-.206-.58-.569-.58h-.307v1.668h-.435v-3.9zm-.112 1.841c.346 0 .552-.112.552-.536v-.374c0-.351-.128-.535-.452-.535h-.423v1.445z" class="cls-10" transform="translate(-280.564 -214.279)"/>
                    <path id="Path_577" d="M294.07 216.047v.391h-.954v1.389h1.171v.4h-1.606v-3.9h1.606v.4h-1.171v1.333z" class="cls-10" transform="translate(-281.912 -214.279)"/>
                    <path id="Path_578" d="M297.572 215.231v.107h-.413v-.129c0-.351-.133-.558-.446-.558s-.446.206-.446.552c0 .876 1.311.959 1.311 2.058 0 .591-.284.977-.881.977s-.876-.385-.876-.977v-.223h.407v.245c0 .351.146.558.458.558s.457-.206.457-.558c0-.87-1.3-.954-1.3-2.053 0-.6.279-.976.864-.976s.865.386.865.977z" class="cls-10" transform="translate(-283.106 -214.255)"/>
                    <path id="Path_579" d="M300.921 215.231v.107h-.413v-.129c0-.351-.134-.558-.447-.558s-.445.206-.445.552c0 .876 1.311.959 1.311 2.058 0 .591-.284.977-.881.977s-.876-.385-.876-.977v-.223h.407v.245c0 .351.145.558.457.558s.458-.206.458-.558c0-.87-1.306-.954-1.306-2.053 0-.6.279-.976.865-.976s.87.386.87.977z" class="cls-10" transform="translate(-284.38 -214.255)"/>
                </g>
                <g id="Group_348" transform="translate(0 4.501)">
                    <g id="Group_347">
                        <path id="Line_190" d="M0 0L8.151 0" class="cls-8" transform="translate(47.292)"/>
                        <path id="Line_191" d="M0 0L21.518 0" class="cls-8" transform="translate(22.84)"/>
                        <path id="Line_192" d="M0 0L19.58 0" class="cls-8"/>
                        <path id="Line_193" d="M0 0L6.232 0" class="cls-8" transform="translate(35.229 9.275)"/>
                        <path id="Line_194" d="M0 0L10.759 0" class="cls-8" transform="translate(19.254 9.275)"/>
                        <path id="Line_195" d="M0 0L4.564 0" class="cls-8" transform="translate(11.429 9.275)"/>
                        <path id="Line_196" d="M0 0L8.821 0" class="cls-8" transform="translate(0 9.275)"/>
                    </g>
                    <path id="Path_580" d="M297.7 231.891a2.92 2.92 0 0 1-2.925 2.925h-30.7a2.927 2.927 0 0 1-2.931-2.925 2.941 2.941 0 0 1 2.931-2.931h30.7a2.927 2.927 0 0 1 2.925 2.931z" class="cls-7" transform="translate(-169.837 -224.349)"/>
                </g>
            </g>
        </g>
        <g id="Plant" transform="translate(242.441 216.954)">
            <path id="Path_581" d="M385.427 355.354c1.622.708 5.59.619 5.594.619.041 0-.853-2.6-.928-2.755-.87-1.822-3.624-4.829-5.864-4.526a2.676 2.676 0 0 0-2.147 3.353c.371 1.555 1.963 2.705 3.345 3.309z" class="cls-2" transform="translate(-382 -337.162)"/>
            <path id="Path_582" d="M437.613 334.782c-2.247-.242-4.919 2.839-5.74 4.683-.071.16-.894 2.78-.853 2.779h.048c-.426.483-.876 1.006-1.356 1.588-.88 1.08-1.863 2.308-2.843 3.717a47.5 47.5 0 0 0-2.948 4.7 34.918 34.918 0 0 0-2.518 5.669c-.008.023-.012.048-.02.072.012-.662-.017-2.515-.036-2.657-.26-2-1.938-5.718-4.161-6.129a2.676 2.676 0 0 0-3.086 2.517c-.13 1.591 1.023 3.182 2.148 4.187 1.268 1.133 4.789 2.229 5.069 2.316a47.358 47.358 0 0 0-1.487 6.141c-.216 1.21-.4 2.435-.561 3.665-.008-.573-.02-1.086-.029-1.157-.26-2-1.938-5.717-4.161-6.129a2.675 2.675 0 0 0-3.085 2.516c-.131 1.591 1.022 3.182 2.147 4.187 1.141 1.019 4.124 2.015 4.916 2.268-.058.473-.121.944-.178 1.417-.271 2.269-.532 4.534-.856 6.748-.113.781-.255 1.545-.392 2.309-.008-.509-.019-.937-.028-1-.26-2-1.937-5.718-4.16-6.129a2.676 2.676 0 0 0-3.086 2.516c-.131 1.59 1.023 3.182 2.148 4.187a17.06 17.06 0 0 0 4.774 2.221c-.165.78-.329 1.56-.524 2.308-.144.508-.248 1.006-.422 1.508s-.322 1-.48 1.486c-.34.933-.684 1.9-1.039 2.8-.242.63-.484 1.225-.725 1.825.122-.775.33-2.3.332-2.427a10.387 10.387 0 0 0-1.393-5.054 3.149 3.149 0 0 0-.037-.591 2.675 2.675 0 0 0-3.271-2.27c-2.185.581-3.57 4.416-3.674 6.432-.006.119.072 1.417.134 2.235-.11-.475-.211-.938-.33-1.426-.229-.966-.486-1.923-.759-2.955l-.452-1.495c-.14-.5-.353-1.015-.528-1.528-.432-1.181-.928-2.358-1.452-3.531.846-.2 3.838-.965 5.04-1.888s2.465-2.42 2.454-4.015a2.675 2.675 0 0 0-2.889-2.739c-2.247.244-4.2 3.824-4.606 5.8-.025.123-.158 1.574-.216 2.373-.321-.7-.638-1.407-.986-2.107-1-2.024-2.084-4.04-3.152-6.056-.328-.618-.647-1.237-.969-1.855.3-.069 3.878-.9 5.224-1.931 1.2-.918 2.465-2.42 2.454-4.016a2.675 2.675 0 0 0-2.889-2.739c-2.247.244-4.2 3.824-4.606 5.8-.03.149-.219 2.238-.241 2.771-.708-1.362-1.4-2.727-2.029-4.1a47.053 47.053 0 0 1-2.207-5.7c.141-.032 3.878-.881 5.256-1.939 1.2-.918 2.465-2.419 2.453-4.015a2.675 2.675 0 0 0-2.889-2.739c-2.247.244-4.2 3.824-4.606 5.8-.032.155-.234 2.4-.241 2.812-.035-.113-.084-.226-.117-.339a34.5 34.5 0 0 1-1.144-6.017c-.126-1.122-.183-2.2-.216-3.254.713-.087 3.963-.52 5.308-1.335 1.29-.781 2.716-2.134 2.88-3.722a2.676 2.676 0 0 0-2.571-3.04c-2.261 0-4.593 3.34-5.216 5.261-.034.1-.261 1.2-.415 2.008-.007-.475-.024-.965-.022-1.421 0-1.71.111-3.275.218-4.66.067-.788.144-1.5.222-2.162.654-.45 3.269-2.3 4.073-3.615.784-1.288 1.426-3.145.841-4.63a2.676 2.676 0 0 0-3.682-1.513c-2.009 1.038-2.537 5.081-2.205 7.073.029.172.788 2.811.822 2.788l.039-.027c-.088.638-.175 1.322-.255 2.072-.138 1.386-.281 2.953-.32 4.67a47.473 47.473 0 0 0 .132 5.543 34.9 34.9 0 0 0 1.027 6.117l.023.071c-.356-.559-1.4-2.088-1.5-2.2-1.32-1.527-4.77-3.7-6.851-2.816a2.676 2.676 0 0 0-1.185 3.8c.769 1.4 2.609 2.09 4.1 2.308 1.683.245 5.224-.781 5.506-.864a47.322 47.322 0 0 0 2.148 5.943c.487 1.128 1.013 2.249 1.554 3.366-.323-.473-.615-.894-.662-.949-1.321-1.527-4.771-3.7-6.851-2.816a2.675 2.675 0 0 0-1.185 3.8c.768 1.4 2.609 2.09 4.1 2.308 1.514.221 4.551-.594 5.352-.82.212.426.419.854.633 1.28 1.025 2.042 2.057 4.075 3.008 6.1.336.714.64 1.429.947 2.143-.287-.42-.533-.771-.576-.822-1.32-1.526-4.77-3.7-6.851-2.816a2.676 2.676 0 0 0-1.185 3.8c.769 1.4 2.609 2.09 4.1 2.308a17.057 17.057 0 0 0 5.207-.781c.292.741.587 1.483.837 2.214.16.5.348.977.48 1.491s.281 1.008.42 1.5c.232.965.477 1.961.679 2.909.146.658.272 1.288.4 1.923-.325-.714-.993-2.1-1.061-2.208-1.074-1.71-4.155-4.38-6.346-3.822a2.675 2.675 0 0 0-1.747 3.577c.548 1.5 2.262 2.462 3.7 2.9 1.588.485 5.1.042 5.541-.016.211 1.05.406 2.073.574 3.042.257 1.459.468 2.8.647 4.033h-2.05v24.476h9.728v-24.463h-1.286c.383-.881.781-1.816 1.192-2.819s.837-2.089 1.26-3.205c.425.089 3.9.8 5.526.429 1.47-.332 3.252-1.164 3.911-2.619a2.675 2.675 0 0 0-1.477-3.7c-2.143-.719-5.414 1.714-6.613 3.339-.071.1-.722 1.221-1.12 1.938.17-.457.341-.9.511-1.371.342-.932.656-1.873 1-2.883l.448-1.5c.16-.5.266-1.041.4-1.566.291-1.224.527-2.478.736-3.747.817.3 3.734 1.312 5.245 1.206s3.39-.658 4.261-2a2.675 2.675 0 0 0-.9-3.878c-2.01-1.036-5.611.874-7.042 2.3-.089.089-1 1.226-1.49 1.86.12-.764.244-1.525.34-2.3.278-2.241.49-4.519.711-6.79.068-.7.143-1.388.216-2.081.29.109 3.73 1.39 5.422 1.271 1.5-.105 3.391-.658 4.262-2a2.675 2.675 0 0 0-.9-3.878c-2.009-1.036-5.611.874-7.042 2.3-.107.107-1.417 1.746-1.73 2.179.161-1.527.336-3.048.57-4.539a47.129 47.129 0 0 1 1.3-5.97c.135.051 3.72 1.4 5.453 1.282 1.5-.105 3.391-.658 4.262-2a2.676 2.676 0 0 0-.9-3.879c-2.009-1.036-5.611.874-7.042 2.3-.112.112-1.521 1.875-1.753 2.213.033-.114.056-.235.09-.348a34.429 34.429 0 0 1 2.365-5.65c.514-1.006 1.062-1.939 1.615-2.834.642.32 3.591 1.752 5.163 1.816 1.507.06 3.443-.282 4.455-1.516a2.676 2.676 0 0 0-.467-3.954c-1.884-1.25-5.673.253-7.252 1.511-.086.069-.881.861-1.452 1.446.256-.4.512-.819.765-1.2.946-1.424 1.9-2.67 2.753-3.767.49-.62.946-1.17 1.378-1.681.793-.014 3.992-.111 5.391-.767 1.364-.641 2.925-1.837 3.256-3.4a2.676 2.676 0 0 0-2.225-3.28zm-24.888 60.39c-.525 1.208-1.029 2.317-1.508 3.341h-3.394c-.214-1.3-.469-2.723-.779-4.28-.209-1.067-.455-2.2-.718-3.368a28.983 28.983 0 0 0 3.091-1.454 19.6 19.6 0 0 0 4.506 2.906c-.402.993-.804 1.955-1.198 2.855z" class="cls-2" transform="translate(-382.205 -330.097)"/>
            <path id="Path_583" d="M448.939 354.681c.035.022.721-2.637.745-2.81.278-2-.359-6.027-2.395-7.01a2.675 2.675 0 0 0-3.64 1.613c-.546 1.5.146 3.339.965 4.605.963 1.486 4.322 3.601 4.325 3.602z" class="cls-2" transform="translate(-405.375 -335.616)"/>
        </g>
        <g id="Floor" transform="translate(18.973 309.665)">
            <path id="Line_197" d="M0 0L3.097 0" class="cls-13" transform="translate(273.568)"/>
            <path id="Line_198" d="M0 0L271.332 0" class="cls-13"/>
        </g>
    </g>
</svg>
