<svg xmlns="http://www.w3.org/2000/svg" width="393.693" height="249.685" viewBox="0 0 393.693 249.685">
    <defs>
        <style>
            .cls-1{fill:#f5f5f5}.cls-2{fill:#e0e0e0}.cls-3{fill:none;stroke:#fff;stroke-miterlimit:10}.cls-11{fill:#fff}.cls-5{fill:#00d97e}.cls-6{fill:#263238}
        </style>
    </defs>
    <g id="Group_190" transform="translate(1.5)">
        <g id="Background_Complete" transform="translate(14.441)">
            <g id="Group_139" transform="translate(0 33.114)">
                <g id="Group_123">
                    <path id="Rectangle_82" d="M0 0H91.351V134.511H0z" class="cls-1" transform="rotate(-33.8 83.62 25.417)"/>
                </g>
                <g id="Group_126" transform="translate(72.879 87.48)">
                    <g id="Group_124" transform="translate(0 13.587)">
                        <path id="Path_319" d="M253.976 277.062l-.862 5.333-37.746-5.438.862-5.333z" class="cls-2" transform="translate(-215.368 -271.624)"/>
                    </g>
                    <g id="Group_125" transform="translate(13.593)">
                        <path id="Path_320" d="M241.46 251.546l5.416.78-6.005 37.164-5.417-.78z" class="cls-2" transform="translate(-235.454 -251.546)"/>
                    </g>
                </g>
                <g id="Group_128" transform="translate(81.742 42.444)">
                    <g id="Group_127"/>
                </g>
                <g id="Group_130" transform="translate(23.524 40.243)">
                    <g id="Group_129">
                        <path id="Path_322" d="M176.621 181.745c.054.081-7.556 5.266-16.994 11.579s-17.137 11.368-17.191 11.286 7.554-5.264 17-11.579 17.131-11.367 17.185-11.286z" class="cls-2" transform="translate(-142.436 -181.744)"/>
                    </g>
                </g>
                <g id="Group_132" transform="translate(28.915 33.234)">
                    <g id="Group_131">
                        <path id="Path_323" d="M207.121 171.387c.054.081-12.6 8.64-28.26 19.113s-28.4 18.9-28.458 18.822 12.6-8.637 28.263-19.115 28.401-18.901 28.455-18.82z" class="cls-2" transform="translate(-150.403 -171.386)"/>
                    </g>
                </g>
                <g id="Group_134" transform="translate(34.513 41.602)">
                    <g id="Group_133">
                        <path id="Path_324" d="M215.392 183.753c.054.081-12.6 8.64-28.259 19.114s-28.4 18.9-28.458 18.822 12.6-8.638 28.262-19.115 28.401-18.902 28.455-18.821z" class="cls-2" transform="translate(-158.675 -183.752)"/>
                    </g>
                </g>
                <g id="Group_136" transform="translate(40.11 49.971)">
                    <g id="Group_135">
                        <path id="Path_325" d="M223.663 196.12c.054.081-12.6 8.639-28.259 19.113s-28.4 18.9-28.458 18.822 12.6-8.638 28.262-19.115 28.401-18.902 28.455-18.82z" class="cls-2" transform="translate(-166.946 -196.119)"/>
                    </g>
                </g>
                <g id="Group_138" transform="translate(45.708 58.34)">
                    <g id="Group_137">
                        <path id="Path_326" d="M231.935 208.486c.054.081-12.6 8.64-28.26 19.113s-28.4 18.9-28.458 18.822 12.6-8.637 28.263-19.115 28.401-18.901 28.455-18.82z" class="cls-2" transform="translate(-175.217 -208.485)"/>
                    </g>
                </g>
            </g>
            <g id="Group_156" transform="translate(104.574)">
                <g id="Group_140">
                    <path id="Rectangle_83" d="M0 0H78.906V116.185H0z" class="cls-1" transform="matrix(.882 .472 -.472 .882 54.794 0)"/>
                </g>
                <g id="Group_143" transform="translate(33.673 76.64)">
                    <g id="Group_141" transform="translate(8.376)">
                        <path id="Path_327" d="M339.961 217.57l-4.414 1.512-11.205-30.976 4.414-1.512z" class="cls-2" transform="translate(-324.341 -186.594)"/>
                    </g>
                    <g id="Group_142" transform="translate(0 8.754)">
                        <path id="Path_328" d="M342.728 199.529l1.608 4.445-30.764 10.536-1.608-4.445z" class="cls-2" transform="translate(-311.964 -199.529)"/>
                    </g>
                </g>
                <g id="Group_145" transform="translate(94.392 58.9)">
                    <g id="Group_144"/>
                </g>
                <g id="Group_147" transform="translate(54.969 22.935)">
                    <g id="Group_146">
                        <path id="Path_330" d="M374.759 123.989c-.054.1-7.112-3.566-15.76-8.192s-15.619-8.46-15.565-8.561 7.11 3.566 15.762 8.192 15.618 8.459 15.563 8.561z" class="cls-2" transform="translate(-343.433 -107.234)"/>
                    </g>
                </g>
                <g id="Group_149" transform="translate(51.019 30.323)">
                    <g id="Group_148">
                        <path id="Path_331" d="M389.569 145.948c-.054.1-11.734-6.038-26.084-13.713s-25.943-13.981-25.889-14.083 11.731 6.037 26.086 13.714 25.942 13.98 25.887 14.082z" class="cls-2" transform="translate(-337.597 -118.151)"/>
                    </g>
                </g>
                <g id="Group_151" transform="translate(46.917 37.991)">
                    <g id="Group_150">
                        <path id="Path_332" d="M383.509 157.28c-.055.1-11.734-6.038-26.084-13.713s-25.943-13.981-25.889-14.083 11.732 6.037 26.086 13.714 25.941 13.98 25.887 14.082z" class="cls-2" transform="translate(-331.536 -129.482)"/>
                    </g>
                </g>
                <g id="Group_153" transform="translate(42.817 45.66)">
                    <g id="Group_152">
                        <path id="Path_333" d="M377.448 168.611c-.054.1-11.734-6.038-26.084-13.712s-25.943-13.981-25.889-14.083 11.731 6.037 26.086 13.714 25.939 13.98 25.887 14.081z" class="cls-2" transform="translate(-325.476 -140.814)"/>
                    </g>
                </g>
                <g id="Group_155" transform="translate(38.715 53.328)">
                    <g id="Group_154">
                        <path id="Path_334" d="M371.388 179.943c-.055.1-11.734-6.038-26.084-13.712s-25.943-13.981-25.889-14.083 11.732 6.037 26.086 13.714 25.941 13.98 25.887 14.081z" class="cls-2" transform="translate(-319.415 -152.146)"/>
                    </g>
                </g>
            </g>
        </g>
        <g id="Floor" transform="translate(0 247.833)">
            <g id="Group_158">
                <g id="Group_157">
                    <path id="Path_335" fill="#fff" stroke="#707070" stroke-width="3px" d="M477.027 439.744c0 .1-87.466.177-195.337.177-107.908 0-195.356-.079-195.356-.177s87.448-.176 195.356-.176c107.871 0 195.337.079 195.337.176z" transform="translate(-86.334 -439.568)"/>
                </g>
            </g>
        </g>
        <g id="Plant" transform="translate(14.441 205.628)">
            <g id="Group_168">
                <g id="Group_159" transform="translate(4.679)">
                    <path id="Path_336" d="M117.091 377.2a8.53 8.53 0 0 1 5.945 3.045 15.06 15.06 0 0 1 3.026 6.1c1.145 4.28.441 9.329-.78 13.588-4.632-1.656-7.489-6.6-8.781-9.194-2.042-4.105-3.239-12.764.589-13.536" class="cls-5" transform="translate(-114.589 -377.201)"/>
                </g>
                <g id="Group_160" transform="translate(20.882 15.645)">
                    <path id="Path_337" d="M139.689 412.592a7.278 7.278 0 0 1-.341-7.3 9.667 9.667 0 0 1 5.82-4.678 4.071 4.071 0 0 1 3.426.164 3.114 3.114 0 0 1 1.2 2.918 6.306 6.306 0 0 1-1.332 2.995c-2.252 3.05-4.992 5.588-8.77 5.9" class="cls-5" transform="translate(-138.532 -400.32)"/>
                </g>
                <g id="Group_162" transform="translate(21.201 20.816)">
                    <g id="Group_161">
                        <path id="Path_338" d="M140.351 429.361a5.11 5.11 0 0 1-.207-.889l-.476-2.439a25.542 25.542 0 0 1-.507-8.191 15.635 15.635 0 0 1 3.038-7.591 10.647 10.647 0 0 1 1.757-1.776 6.525 6.525 0 0 1 .552-.4c.129-.085.2-.125.206-.116a16.7 16.7 0 0 0-2.335 2.427 16.144 16.144 0 0 0-2.9 7.5 27.5 27.5 0 0 0 .412 8.108c.166 1.035.3 1.875.376 2.457a4.819 4.819 0 0 1 .084.91z" class="cls-6" transform="translate(-139.003 -407.961)"/>
                    </g>
                </g>
                <g id="Group_164" transform="translate(8.674 6.513)">
                    <g id="Group_163">
                        <path id="Path_339" d="M120.493 386.826a1.864 1.864 0 0 1 .186.351l.478 1.031c.409.9.985 2.2 1.682 3.825 1.4 3.241 3.261 7.745 5.209 12.765s3.606 9.607 4.761 12.942c.577 1.667 1.033 3.02 1.337 3.959.14.445.254.8.342 1.083a1.8 1.8 0 0 1 .1.385 1.894 1.894 0 0 1-.16-.364l-.4-1.063-1.432-3.924c-1.209-3.314-2.9-7.883-4.846-12.9s-3.777-9.532-5.119-12.793l-1.588-3.864-.422-1.055a1.839 1.839 0 0 1-.128-.378z" class="cls-6" transform="translate(-120.492 -386.826)"/>
                    </g>
                </g>
                <g id="Group_165" transform="translate(0 24.527)">
                    <path id="Path_340" d="M124.724 421.673a17.021 17.021 0 0 0-13.211-8.208c-1.369-.1-3.017.131-3.627 1.36s.206 2.69 1.139 3.7a14.545 14.545 0 0 0 15.75 3.516" class="cls-5" transform="translate(-107.674 -413.445)"/>
                </g>
                <g id="Group_167" transform="translate(5.924 28.203)">
                    <g id="Group_166">
                        <path id="Path_341" d="M116.429 418.887a4.432 4.432 0 0 1 .857.032 8.3 8.3 0 0 1 1 .116c.386.072.835.114 1.313.247a15.072 15.072 0 0 1 1.561.434 16.936 16.936 0 0 1 1.741.661 18.957 18.957 0 0 1 3.666 2.174 18.551 18.551 0 0 1 3.03 3 16.189 16.189 0 0 1 1.067 1.526 13.627 13.627 0 0 1 .794 1.413 12.606 12.606 0 0 1 .545 1.219 7.679 7.679 0 0 1 .34.948 4.453 4.453 0 0 1 .223.828c-.068.024-.4-1.159-1.31-2.892a14.882 14.882 0 0 0-.817-1.374 17.132 17.132 0 0 0-1.074-1.485 19.245 19.245 0 0 0-3-2.929 19.674 19.674 0 0 0-3.591-2.158 17.65 17.65 0 0 0-1.7-.679 15.929 15.929 0 0 0-1.53-.466c-1.898-.48-3.122-.545-3.115-.615z" class="cls-6" transform="translate(-116.429 -418.876)"/>
                    </g>
                </g>
            </g>
        </g>
        <g id="Folder" transform="translate(58.361 77.75)">
            <g id="Group_169" transform="translate(58.464 23.032)">
                <path id="Path_342" fill="#e8505b" d="M286.03 230.576L262.1 353.6l-3.133 16.105 159.749-.788c7.169-.035 13.523-6.4 15.83-15.859l28.327-116.15c1.751-7.179-2.091-14.647-7.533-14.642l-161.684.17c-3.57.008-6.691 3.339-7.626 8.14z" transform="translate(-258.968 -222.27)"/>
            </g>
            <g id="Group_170" opacity="0.83" transform="translate(58.464 23.032)">
                <path id="Path_343" fill="#06b264" stroke="#fff" stroke-miterlimit="10" d="M286.03 230.576L262.1 353.6l-3.133 16.105 159.749-.788c7.169-.035 13.523-6.4 15.83-15.859l28.327-116.15c1.751-7.179-2.091-14.647-7.533-14.642l-161.684.17c-3.57.008-6.691 3.339-7.626 8.14z" transform="translate(-258.968 -222.27)"/>
            </g>
            <g id="Group_187" transform="translate(150.145 8.469)">
                <g id="Group_171">
                    <path id="Rectangle_84" d="M0 0H76.719V112.966H0z" class="cls-1" transform="rotate(-33.777 70.244 21.326)"/>
                </g>
                <g id="Group_174" transform="translate(61.206 73.469)">
                    <g id="Group_172" transform="translate(0 11.411)">
                        <path id="Path_344" d="M517.315 330.744l-.724 4.479-31.7-4.567.724-4.479z" class="cls-2" transform="translate(-484.891 -326.177)"/>
                    </g>
                    <g id="Group_173" transform="translate(11.416)">
                        <path id="Path_345" d="M506.8 309.316l4.549.655-5.044 31.212-4.549-.655z" class="cls-2" transform="translate(-501.76 -309.316)"/>
                    </g>
                </g>
                <g id="Group_176" transform="translate(68.65 35.646)">
                    <g id="Group_175"/>
                </g>
                <g id="Group_178" transform="translate(19.756 33.797)">
                    <g id="Group_177">
                        <path id="Path_347" d="M452.35 250.693c.054.081-6.329 4.446-14.256 9.747s-14.4 9.536-14.454 9.455 6.329-4.444 14.258-9.748 14.402-9.534 14.452-9.454z" class="cls-2" transform="translate(-423.64 -250.692)"/>
                    </g>
                </g>
                <g id="Group_180" transform="translate(24.284 27.911)">
                    <g id="Group_179">
                        <path id="Path_348" d="M477.965 241.995c.054.081-10.566 7.279-23.718 16.076s-23.861 15.865-23.915 15.785 10.564-7.277 23.72-16.078 23.859-15.864 23.913-15.783z" class="cls-2" transform="translate(-430.332 -241.994)"/>
                    </g>
                </g>
                <g id="Group_182" transform="translate(28.985 34.939)">
                    <g id="Group_181">
                        <path id="Path_349" d="M484.911 252.381c.054.081-10.566 7.279-23.717 16.076s-23.862 15.865-23.916 15.784 10.564-7.277 23.72-16.077 23.859-15.864 23.913-15.783z" class="cls-2" transform="translate(-437.278 -252.38)"/>
                    </g>
                </g>
                <g id="Group_184" transform="translate(33.686 41.967)">
                    <g id="Group_183">
                        <path id="Path_350" d="M491.858 262.767c.054.081-10.566 7.279-23.718 16.076s-23.861 15.865-23.915 15.784 10.564-7.277 23.72-16.077 23.855-15.865 23.913-15.783z" class="cls-2" transform="translate(-444.225 -262.766)"/>
                    </g>
                </g>
                <g id="Group_186" transform="translate(38.386 48.995)">
                    <g id="Group_185">
                        <path id="Path_351" d="M498.8 273.152c.054.081-10.566 7.279-23.717 16.076s-23.862 15.865-23.916 15.784 10.564-7.277 23.72-16.078 23.863-15.863 23.913-15.782z" class="cls-2" transform="translate(-451.171 -273.151)"/>
                    </g>
                </g>
            </g>
            <g id="Group_188">
                <path id="Path_352" fill="#00d97e" stroke="#fff" stroke-miterlimit="10" d="M375.464 334.265l-16.914-136.3c-.693-5.584-5.142-9.75-10.394-9.733l-37.089.121a10.107 10.107 0 0 0-7.326 3.249l-17.611 18.724-103.15.539c-6.3.032-11.146 6-10.311 12.7l15.7 125.974c.7 5.576 5.136 9.737 10.381 9.727l179.769-.355c20.022.415 21.933-5.5 21.933-5.5-22.942 5.089-24.986-19.13-24.988-19.146z" transform="translate(-172.575 -188.235)"/>
            </g>
            <g id="Group_189" transform="translate(72.616 75.301)">
                <path id="Path_353" d="M332.639 343.649l-6.063 6.512-46.7-42.007 6.063-6.512z" class="cls-11" transform="translate(-279.88 -300.198)"/>
                <path id="Path_354" d="M324.944 299.509l6.7 6.028-42.251 45.378-6.7-6.028z" class="cls-11" transform="translate(-280.79 -299.509)"/>
            </g>
        </g>
    </g>
</svg>
