<svg xmlns="http://www.w3.org/2000/svg" width="603.942" height="605.248" viewBox="0 0 603.942 605.248">
    <defs>
        <style>
            .cls-2{fill:#00d97e}.cls-15,.cls-16,.cls-3{fill:none}.cls-16,.cls-3{stroke:#fff}.cls-10,.cls-15,.cls-16,.cls-17,.cls-3{stroke-miterlimit:10}.cls-3{opacity:.3}.cls-10,.cls-5{fill:#fff}.cls-7{fill:#263238}.cls-10,.cls-15{stroke:#263238}.cls-11{fill:#b2b2b2}.cls-17{fill:#08082c;stroke:#08082c}
        </style>
    </defs>
    <g id="Group_564" transform="translate(-28.522 -28)">
        <g id="Background_Simple" transform="translate(28.875 28)">
            <g id="Group_412" opacity="0.5">
                <path id="Path_659" d="M616.327 339.657c-14.2 52.983-47.923 112.085-101.267 133.735-80.6 32.721-84.108 100.553-233.317 108.58a301.17 301.17 0 0 1-65.165-3.271 250.536 250.536 0 0 1-31.177-7.157C95.213 544.694 42.512 471.634 31 391.013 15.837 284.98 85.289 227.1 130.74 192.748S223.372 37.645 369.991 28.6a291.89 291.89 0 0 1 66.979 3.324c50.449 8.6 103.258 33.25 136.427 73.5q3.735 4.536 7.2 9.314c45.192 62.236 55.092 152.686 35.73 224.919z" class="cls-2" transform="translate(-28.875 -28)"/>
            </g>
        </g>
        <g id="Graphics" transform="translate(50.71 193.802)">
            <path id="Path_660" d="M452.107 271.887v-7.525c0-14.858-9.884-20.115-19.984-20.115-10.3 0-19.761 7.57-19.761 20.115v7.525h-2.813v41.677H454.7v-41.677zm-18.651 22.9v7.55h-4.276v-7.55a5.7 5.7 0 1 1 4.275 0zm12.394-22.9h-27.455v-7.525a13.744 13.744 0 0 1 13.728-13.728c7.569 0 13.728 5.178 13.728 13.728z" class="cls-3" transform="translate(74.201 -122.845)"/>
            <g id="Group_414" transform="translate(417.49)">
                <rect id="Rectangle_184" width="163.764" height="35.794" class="cls-3" rx="13.475"/>
                <g id="Group_413" opacity="0.3" transform="translate(26.905 9.648)">
                    <path id="Path_661" d="M387.065 166.687l3.731 4.119-1.8 1.339-2.781-4.894-2.747 4.894-1.794-1.339 3.7-4.119-5.457-1.126.668-2.149 5.141 2.254-.635-5.562h2.254l-.6 5.562 5.14-2.217.668 2.146z" class="cls-5" transform="translate(-379.917 -160.103)"/>
                    <path id="Path_662" d="M397.531 166.687l3.732 4.119-1.8 1.339-2.782-4.894-2.745 4.894-1.8-1.339 3.7-4.119-5.457-1.126.668-2.149 5.14 2.254-.634-5.562h2.254l-.6 5.562 5.14-2.217.668 2.146z" class="cls-5" transform="translate(-376.482 -160.103)"/>
                    <path id="Path_663" d="M408 166.687l3.731 4.119-1.794 1.339-2.782-4.894-2.747 4.894-1.794-1.339 3.7-4.119-5.457-1.126.668-2.149 5.141 2.254-.635-5.562h2.254l-.6 5.562 5.14-2.217.669 2.146z" class="cls-5" transform="translate(-373.048 -160.103)"/>
                    <path id="Path_664" d="M418.466 166.687l3.732 4.119-1.8 1.339-2.781-4.894-2.747 4.894-1.794-1.339 3.7-4.119-5.457-1.126.668-2.149 5.141 2.254-.635-5.562h2.254l-.6 5.562 5.14-2.217.668 2.146z" class="cls-5" transform="translate(-369.613 -160.103)"/>
                    <path id="Path_665" d="M428.935 166.687l3.731 4.119-1.794 1.339-2.782-4.894-2.747 4.894-1.794-1.339 3.7-4.119-5.457-1.126.668-2.149 5.141 2.254-.633-5.562h2.253l-.6 5.562 5.141-2.217.668 2.146z" class="cls-5" transform="translate(-366.178 -160.103)"/>
                    <path id="Path_666" d="M439.4 166.687l3.731 4.119-1.794 1.339-2.782-4.894-2.747 4.894-1.794-1.339 3.7-4.119-5.457-1.126.668-2.149 5.141 2.254-.635-5.562h2.254l-.6 5.562 5.14-2.217.669 2.146z" class="cls-5" transform="translate(-362.744 -160.103)"/>
                    <path id="Path_667" d="M449.87 166.687l3.731 4.119-1.794 1.339-2.782-4.894-2.747 4.894-1.794-1.339 3.7-4.119-5.459-1.126.669-2.149 5.14 2.254-.634-5.566h2.253l-.6 5.562 5.141-2.217.668 2.146z" class="cls-5" transform="translate(-359.309 -160.103)"/>
                    <path id="Path_668" d="M460.337 166.687l3.731 4.119-1.794 1.339-2.782-4.894-2.747 4.894-1.794-1.339 3.7-4.119-5.457-1.126.668-2.149 5.138 2.253-.633-5.562h2.253l-.6 5.562 5.141-2.217.668 2.146z" class="cls-5" transform="translate(-355.874 -160.103)"/>
                </g>
            </g>
            <g id="Group_415" transform="translate(0 65.377)">
                <path id="Path_669" d="M91.888 242.481c-1.181-2.04-2.833-3.2-4.565-3.2h-3.012v-2.7a16.36 16.36 0 0 0 3.541-10.324c0-6.775-4.076-12.267-9.1-12.267s-9.1 5.492-9.1 12.267a16.538 16.538 0 0 0 3.287 10.03v2.994H68.9c-1.774 0-3.469 1.159-4.68 3.2l-5.456 9.193H97.21z" class="cls-3" transform="translate(-40.902 -198.149)"/>
                <circle id="Ellipse_37" cx="28.578" cy="28.578" r="28.578" class="cls-3" transform="rotate(-67.5 39.515 26.403)"/>
            </g>
        </g>
        <g id="Arrows" transform="translate(199.802 90.092)">
            <g id="Group_416" opacity="0.2">
                <path id="Path_670" d="M259.513 405.452A161.623 161.623 0 0 1 176.5 264.346c0-89.057 72.452-161.509 161.509-161.509a161.385 161.385 0 0 1 32.468 3.306l-4.123 13.814 45.895-10.921-32.409-34.285-3.934 13.183a180.4 180.4 0 0 0-37.9-4.024c-99.492 0-180.435 80.943-180.435 180.436a180.616 180.616 0 0 0 97.717 160.324l-11.415-18.915z" class="cls-5" transform="translate(-157.572 -74.751)"/>
                <path id="Path_671" d="M381.831 91.236l14.176 15-17.41 4.142c57.658 24.681 98.16 81.976 98.16 148.56 0 89.055-72.452 161.509-161.509 161.509a160.871 160.871 0 0 1-46.758-6.917l5.607-10.163-47.167.915 24.375 40.391 7.856-14.238a179.69 179.69 0 0 0 56.087 8.937c99.493 0 180.436-80.943 180.436-180.435 0-75.989-47.219-141.152-113.853-167.701z" class="cls-5" transform="translate(-134.813 -69.342)"/>
            </g>
        </g>
        <g id="Device_1" transform="translate(138.445 164.006)">
            <path id="Path_672" d="M417.377 186.58a3.214 3.214 0 0 0 3.214-3.214v-26.551a3.214 3.214 0 0 0-3.214-3.214h-.145v-10.386a12.811 12.811 0 0 0-12.811-12.815H124.185a12.811 12.811 0 0 0-12.811 12.811v193.6a12.811 12.811 0 0 0 12.811 12.811h280.236a12.811 12.811 0 0 0 12.811-12.811v-69.458h.145a3.214 3.214 0 0 0 3.214-3.214v-26.552a3.215 3.215 0 0 0-3.214-3.214h-.145v-3.354h.145a3.214 3.214 0 0 0 3.214-3.214v-26.552a3.215 3.215 0 0 0-3.214-3.214h-.145V186.58z" class="cls-7" transform="translate(-111.374 -130.404)"/>
            <g id="Group_417" transform="translate(11.425 8.54)">
                <path id="Rectangle_185" fill="#00d97e" stroke="#263238" stroke-miterlimit="10" d="M0 0H283.009V202.137H0z"/>
            </g>
            <g id="Group_419" transform="translate(74.268 34.527)">
                <path id="Rectangle_186" fill="#e3e3e3" stroke="#263238" stroke-miterlimit="10" d="M0 0H158.271V127.122H0z"/>
                <path id="Rectangle_187" d="M0 0H133.558V15.071H0z" class="cls-10" transform="translate(12.219 41.987)"/>
                <path id="Rectangle_188" d="M0 0H133.558V15.071H0z" class="cls-10" transform="translate(12.219 65.893)"/>
                <path id="Path_673" d="M235.919 172.21v-2.894a8.519 8.519 0 0 0-17.037 0v2.894h-.159v16.021h17.356V172.21zm-8.006 8.8v2.9h-1.644v-2.9a2.193 2.193 0 1 1 1.644 0zm4.764-8.8h-10.554v-2.894a5.277 5.277 0 0 1 10.553 0z" class="cls-7" transform="translate(-150.418 -154.958)"/>
                <g id="Group_418" transform="translate(57.222 70.547)">
                    <path id="Path_674" d="M212.685 211.642l1.2 1.329-.579.432-.9-1.579-.886 1.579-.579-.432 1.193-1.329-1.761-.363.216-.693 1.658.727-.2-1.794h.728l-.194 1.794 1.659-.715.216.692z" class="cls-11" transform="translate(-210.378 -209.518)"/>
                    <path id="Path_675" d="M216.062 211.642l1.2 1.329-.579.432-.9-1.579-.883 1.576-.579-.432 1.193-1.329-1.761-.363.216-.693 1.658.727-.2-1.794h.728l-.193 1.794 1.658-.715.216.692z" class="cls-11" transform="translate(-209.27 -209.518)"/>
                    <path id="Path_676" d="M219.439 211.642l1.2 1.329-.579.432-.9-1.579-.886 1.579-.579-.432 1.193-1.329-1.761-.363.215-.693 1.659.727-.2-1.794h.726l-.193 1.794L221 210.6l.215.692z" class="cls-11" transform="translate(-208.161 -209.518)"/>
                    <path id="Path_677" d="M222.816 211.642l1.2 1.329-.579.432-.9-1.579-.886 1.579-.579-.432 1.193-1.329-1.761-.363.215-.693 1.659.727-.2-1.794h.728l-.194 1.794 1.659-.715.215.692z" class="cls-11" transform="translate(-207.053 -209.518)"/>
                    <path id="Path_678" d="M226.194 211.642l1.2 1.329-.579.432-.9-1.579-.886 1.579-.579-.432 1.193-1.329-1.76-.363.215-.693 1.659.727-.2-1.794h.726l-.193 1.794 1.659-.715.215.692z" class="cls-11" transform="translate(-205.945 -209.518)"/>
                    <path id="Path_679" d="M229.571 211.642l1.2 1.329-.579.432-.9-1.579-.887 1.579-.579-.432 1.193-1.329-1.76-.363.215-.693 1.659.727-.2-1.794h.726l-.193 1.794 1.659-.715.215.692z" class="cls-11" transform="translate(-204.837 -209.518)"/>
                    <path id="Path_680" d="M232.949 211.642l1.2 1.329-.579.432-.9-1.579-.886 1.579-.579-.432 1.193-1.329-1.761-.363.216-.693 1.657.727-.2-1.794h.728l-.193 1.794 1.658-.715.216.692z" class="cls-11" transform="translate(-203.729 -209.518)"/>
                    <path id="Path_681" d="M236.326 211.642l1.2 1.329-.579.432-.9-1.579-.886 1.579-.579-.432 1.193-1.329-1.761-.363.217-.693 1.659.727-.2-1.794h.727l-.193 1.794 1.659-.715.215.692z" class="cls-11" transform="translate(-202.621 -209.518)"/>
                </g>
                <text id="Old_Password" font-family="Roboto-Medium, Roboto" font-size="7px" font-weight="500" opacity="0.2" transform="translate(47.955 50.934)">
                    <tspan x="0" y="0">Old Password</tspan>
                </text>
            </g>
        </g>
        <g id="Layer_9" transform="translate(269.277 287.365)">
            <path id="Rectangle_189" d="M0 0H44.601V13.088H0z" class="cls-2" transform="translate(0 .036)"/>
            <text id="Change" fill="#fff" font-family="Roboto-Medium, Roboto" font-size="8px" font-weight="500" transform="translate(7.182 8)">
                <tspan x="0" y="0">Change</tspan>
            </text>
        </g>
        <g id="Mug" transform="translate(218.493 469.418)">
            <g id="Group_423">
                <g id="Group_420">
                    <ellipse id="Ellipse_38" cx="84.957" cy="79.835" class="cls-7" rx="84.957" ry="79.835" transform="translate(1.782 4.159)"/>
                    <ellipse id="Ellipse_39" cx="84.957" cy="79.835" class="cls-10" rx="84.957" ry="79.835"/>
                    <ellipse id="Ellipse_40" cx="73.332" cy="68.911" class="cls-10" rx="73.332" ry="68.911" transform="translate(11.625 10.924)"/>
                </g>
                <path id="Path_682" d="M264.075 385.535c-29.431 0-53.291 29.983-53.291 66.967 0 23.86 9.938 44.79 24.888 56.651 2.47.207 4.965.331 7.492.331 30.936 0 57.92-15.838 72.322-39.345a83.208 83.208 0 0 0 1.882-17.638c0-36.983-23.86-66.966-53.293-66.966z" class="cls-7" transform="translate(-158.803 -352.099)"/>
                <g id="Group_421" transform="translate(17.901 24.163)">
                    <path id="Rectangle_190" d="M0 0H34.711V8.303H0z" class="cls-10" transform="translate(0 46.043)"/>
                    <ellipse id="Ellipse_41" cx="52.933" cy="49.742" class="cls-10" rx="52.933" ry="49.742" transform="translate(26.362)"/>
                    <ellipse id="Ellipse_42" cx="44.191" cy="41.527" fill="#08082c" stroke="#263238" stroke-miterlimit="10" rx="44.191" ry="41.527" transform="translate(35.104 8.215)"/>
                </g>
                <g id="Group_422" transform="translate(74.456 6.706)">
                    <path id="Path_683" d="M231.932 394.526a16.79 16.79 0 0 0-.987-2.028c-4.506-7.841-3.942-17.821-.563-27.089" class="cls-15" transform="translate(-227.707 -365.409)"/>
                    <path id="Path_684" d="M231.591 403.838s2.364-8.972-.7-16.506" class="cls-16" transform="translate(-226.663 -358.215)"/>
                    <path id="Path_685" d="M244.092 392.5c-4.506-7.841-3.943-17.821-.563-27.089" class="cls-15" transform="translate(-223.393 -365.409)"/>
                    <path id="Path_686" d="M244.981 404.339s2.817-10.693-1.689-18.534" class="cls-16" transform="translate(-222.593 -358.716)"/>
                    <path id="Path_687" d="M257.794 393.553q-.257-.536-.555-1.056c-4.506-7.841-3.943-17.821-.563-27.089" class="cls-15" transform="translate(-219.079 -365.409)"/>
                    <path id="Path_688" d="M257.991 404.078s2.573-9.768-1.134-17.478" class="cls-16" transform="translate(-218.141 -358.455)"/>
                </g>
            </g>
        </g>
        <g id="Right_Hand" transform="translate(319.182 301.791)">
            <g id="Group_428">
                <path id="Path_689" d="M428.832 398.98s-1.381.076-3.857.344c-2.346-7.962-9.378-31.53-14-43.706-5.611-14.794-13.264-35.711-18.365-44.382s-4.591-13.774-14.284-21.937-18.365-4.591-18.365-4.591-1.53-6.121-11.223-9.183-22.957 3.061-22.957 3.061-2.04-3.571-11.733-2.551-13.264 9.693-13.264 9.693-19.9-39.791-27.548-42.852-15.3 4.591-12.243 11.734 26.017 46.934 29.078 56.115 9.693 24.488 9.693 24.488S277.83 319.4 271.2 317.867s-16.324-2.551-21.937 3.571 7.653 7.651 18.365 17.344 28.058 32.139 36.221 46.424 25.507 16.834 33.159 25c5.386 5.745 13.041 13.759 17.105 18.005a46.248 46.248 0 0 0-3.842 4.441l16.835 41.321s3.57-5.611 17.854-16.834 58.668-25 58.668-25z" class="cls-17" transform="translate(-247.303 -231.511)"/>
                <g id="Group_427">
                    <g id="Group_425">
                        <g id="Group_424">
                            <path id="Path_690" d="M356.43 423.083s-12.244-12.753-19.9-20.915-25-10.713-33.16-25-25.507-36.731-36.221-46.423-23.97-11.221-18.359-17.345 15.3-5.1 21.935-3.571 28.568 17.344 28.568 17.344-6.631-15.3-9.693-24.487-26.017-48.973-29.078-56.115 4.591-14.794 12.244-11.734 27.547 42.852 27.547 42.852 3.571-8.673 13.264-9.693 11.734 2.551 11.734 2.551 13.263-6.123 22.955-3.061 11.224 9.183 11.224 9.183 8.671-3.571 18.364 4.591 9.183 13.264 14.284 21.935 12.754 29.588 18.365 44.384S425.3 394 425.3 394l-65.808 35.711z" class="cls-10" transform="translate(-247.458 -234.147)"/>
                            <path id="Line_218" d="M0 0L17.855 26.527" class="cls-15" transform="translate(52.856 43.545)"/>
                            <path id="Line_219" d="M0 0L16.325 25.507" class="cls-15" transform="translate(77.854 36.403)"/>
                            <path id="Line_220" d="M0 0L11.223 19.896" class="cls-15" transform="translate(112.033 42.525)"/>
                            <path id="Line_221" d="M0 0L2.334 6.768" class="cls-15" transform="translate(59.705 115.85)"/>
                            <path id="Line_222" d="M0 0L6.247 18.117" class="cls-15" transform="translate(51.836 93.029)"/>
                        </g>
                        <path id="Line_223" d="M0 0L4.081 5.611" class="cls-15" transform="translate(80.404 76.194)"/>
                        <path id="Line_224" d="M0 0L4.591 6.122" class="cls-15" transform="translate(99.28 70.583)"/>
                        <path id="Line_225" d="M0 0L3.061 9.693" class="cls-15" transform="translate(124.277 67.522)"/>
                    </g>
                    <g id="Group_426" transform="translate(102.341 156.797)">
                        <path id="Path_691" d="M324.514 385.876s11.733-16.325 35.709-24.487 42.852-9.183 42.852-9.183l14.794 33.158s-44.382 13.774-58.666 25-17.855 16.836-17.855 16.836z" class="cls-10" transform="translate(-324.514 -352.206)"/>
                        <path id="Path_692" d="M361.322 488.2s-19.385-48.464-24.487-58.666 3.06-15.3 3.06-15.3 11.734-15.814 42.342-28.058 33.159-12.753 40.812-4.081 57.841 106.2 57.841 106.2" class="cls-10" transform="translate(-321.021 -344.336)"/>
                    </g>
                </g>
            </g>
        </g>
        <g id="Left_Hand" transform="translate(28.984 343.975)">
            <g id="Group_432">
                <path id="Path_693" d="M129.141 471.934a55.461 55.461 0 0 1 23.449-23.294c16.514-8.424 27.247-12.05 43.049-27.636s41.848-29.508 52.587-31.428 14.3-6.54 9.677-11.81-17.252-5.561-28.5-1.762-21.63 8.444-21.63 8.444c5.692-11.211 9.483-24.713 15.089-35.967 3.978-7.986 10.511-21.162 14.377-29.2 2.523-5.247 10.046-13.987 6.7-19.717-3.367-5.768-11.406-1.931-15.483 3.55-6.479 8.711-38.182 56.5-38.182 56.5l18.067-38.246 12.223-25.875c2.671-5.653 7.868-13.222 4.7-19.741-3.217-6.61-12.527-7.289-16.389-.995-4.407 7.183-38.1 70.948-38.1 70.948s21.089-54.731 23.786-61.021c3.292-7.682 1.348-14.377-3.51-14.339-7.058.054-10.394 7.869-13.16 13.186l1.542-2.242c-6.6 8.8-11.038 20.36-16.557 29.908q-9.678 16.741-20.031 33.079c1.357-11.279 5.882-21.845 11.491-31.627 3.383-5.9 17.47-20.392 15.065-27.516-2.072-6.132-17.522 5.392-26.508 17.972-4.9 6.857-17.733 25.552-21.263 38.7s-28.256 57.941-34.859 70.422-14.534 34.517-14.534 34.517z" class="cls-17" transform="translate(-14.756 -264.454)"/>
                <path id="Path_694" d="M152.295 420.18s-12.717-15.57-37.152-22.238-43.337-6.522-43.337-6.522l-12.721 34.007s45.147 11.012 60.1 21.333 18.859 15.7 18.859 15.7z" class="cls-17" transform="translate(-19.071 -224.725)"/>
                <g id="Group_431">
                    <g id="Group_429" transform="translate(55.798)">
                        <path id="Path_695" d="M127.876 467.5a55.452 55.452 0 0 1 23.448-23.293c16.513-8.426 27.245-12.05 43.049-27.637s41.847-29.508 52.586-31.428 14.3-6.54 9.677-11.81-17.252-5.56-28.5-1.762-21.631 8.446-21.631 8.446c5.695-11.216 9.487-24.716 15.095-35.969 3.979-7.986 10.511-21.162 14.377-29.2 2.523-5.249 10.046-13.988 6.7-19.719-3.365-5.767-11.4-1.931-15.482 3.551-6.48 8.71-38.184 56.5-38.184 56.5l18.068-38.248c9.152-19.376 13.516-28.615 12.223-25.875 2.67-5.653 7.867-13.222 4.695-19.741-3.217-6.61-12.526-7.289-16.389-.993-4.407 7.183-38.1 70.946-38.1 70.946s21.089-54.73 23.786-61.02c3.292-7.682 1.348-14.377-3.509-14.34-7.059.056-10.4 7.871-13.162 13.186l1.542-2.242c-6.6 8.8-11.038 20.362-16.556 29.91q-9.676 16.74-20.03 33.077c1.356-11.279 5.881-21.844 11.49-31.627 3.383-5.9 17.472-20.392 15.065-27.515-2.072-6.133-17.522 5.391-26.508 17.971-4.9 6.857-17.733 25.552-21.262 38.7S92.1 395.313 85.5 407.792s-14.532 34.517-14.532 34.517z" class="cls-10" transform="translate(-70.969 -265.909)"/>
                        <path id="Line_226" d="M6.092 0L0 12.307" class="cls-15" transform="translate(92.446 75.36)"/>
                        <path id="Line_227" d="M4.752 0L0 6.16" class="cls-15" transform="translate(113.289 89.27)"/>
                        <path id="Line_228" d="M6.106 0L0 8.895" class="cls-15" transform="translate(129.434 114.106)"/>
                        <path id="Line_229" d="M0.491 0L0 5.29" class="cls-15" transform="translate(103.467 108.262)"/>
                        <path id="Line_230" d="M0 0L0.02 5.118" class="cls-15" transform="translate(88.737 98.599)"/>
                        <path id="Line_231" d="M0 0L1.229 8.695" class="cls-15" transform="translate(66.347 87.941)"/>
                    </g>
                    <g id="Group_430" transform="translate(0 160.805)">
                        <path id="Path_696" d="M151.028 415.747s-12.717-15.571-37.152-22.238-43.336-6.524-43.336-6.524l-12.722 34.008s45.147 11.012 60.1 21.332 18.858 15.7 18.858 15.7z" class="cls-10" transform="translate(-19.487 -386.985)"/>
                        <path id="Path_697" d="M140.265 481.23s3.164-10.636 7.626-21.133-4-15.086-4-15.086-12.685-15.061-43.991-25.394-33.882-10.685-40.985-1.558-29.959 63.984-29.959 63.984" class="cls-10" transform="translate(-28.957 -378.933)"/>
                    </g>
                </g>
            </g>
        </g>
    </g>
</svg>
