<svg xmlns="http://www.w3.org/2000/svg" width="460.126" height="419.474" viewBox="0 0 460.126 419.474">
    <defs>
        <clipPath id="clip-path">
            <path id="Path_742" d="M436.906 333.406s9.663 19.951 18.154 9.829-5.856-13.928-5.856-13.928 17.276 2.049 17.276-7.32-12.3-3.514-12.3-3.514 15.983-12.463 8.2-17.72c-5.417-3.658-18.446 9.562-18.446 9.562s4.977-12.924-.879-13.216-9.662 18.446-9.662 18.446-3.221-13.811-9.077-9.833 4.6 19.315 4.6 19.315-7.53-7.432-9.58-2.162 9.58 8.784 9.58 8.784.083 19.325 6.524 16.983 1.466-15.226 1.466-15.226z" class="cls-1"/>
        </clipPath>
        <clipPath id="clip-path-2">
            <path id="Path_749" d="M407.548 281.963s-23.105.943-21.66-11.378c1.213-10.348 17.575-3.432 17.575-3.432s-13.424-15.65-4.2-21.836 14.7 11.866 14.7 11.866 5.878-26.042 16.191-21.851c7.177 2.916-4.518 24.468-4.518 24.468s13.6-9.267 17.752-3.7-15.94 17.525-15.94 17.525 15.719-5.949 15.671 2.441-22.049 8.223-22.049 8.223 12.287 2.505 8.453 8-14.971-3.629-14.971-3.629-15.048 10.886-17 3 9.996-9.697 9.996-9.697z" class="cls-1"/>
        </clipPath>
        <clipPath id="clip-path-3">
            <path id="Path_760" d="M260.41 50.2a6.583 6.583 0 0 1-6.532 5.754H219.54a6.583 6.583 0 0 1-6.531-5.754 6.585 6.585 0 0 0-6.532-5.755h-24.153a6.585 6.585 0 0 0-6.585 6.584v236.079a6.585 6.585 0 0 0 6.585 6.584h109.9a6.585 6.585 0 0 0 6.585-6.584V51.03a6.585 6.585 0 0 0-6.585-6.584h-25.282a6.584 6.584 0 0 0-6.532 5.754z" class="cls-2"/>
        </clipPath>
        <clipPath id="clip-path-4">
            <path id="Path_771" d="M228.284 109.287l2.525-10.327 7.033 2.121 2.109 8.378a5.642 5.642 0 0 0 3.025 3.725 17.7 17.7 0 0 1 3.006 1.764s-8.342 10.693-24.357 0a16.758 16.758 0 0 1 3.429-1.91 5.543 5.543 0 0 0 3.23-3.751z" class="cls-3"/>
        </clipPath>
        <clipPath id="clip-path-5">
            <path id="Path_786" d="M94.092 211.422c2.039-4.863-2.89-19.56-5.077-25.588a2.274 2.274 0 0 0-3.659-.918c-1.976 1.771-4.387 5.212-4.786 11.6 0 0-15.255 26.87-15.255 39.128 0 11.492 22.718 35.415 22.718 35.415a10.611 10.611 0 0 0 6.059-4.854s-8.5-20.976-15.082-29.99c0-.003 12.828-19.415 15.082-24.793z" class="cls-4"/>
        </clipPath>
        <clipPath id="clip-path-6">
            <path id="Path_794" d="M94.092 266.2s-3.52 14.562-2.133 46l.9 35.6s-5.065 24.963 4.643 70.267c0 0 2.963 6.7 15.088-1.679l1.387-69.05 12.649-76.278z" class="cls-5"/>
        </clipPath>
        <clipPath id="clip-path-7">
            <path id="Path_800" d="M116.807 303.326c9.015 14.537 21.672 43.122 21.672 43.122s-1.9 3.313 0 8.86c0 0-5.03 19.314 2.251 65.478 0 0 6.241 3.978 15.256-3.015 0 0 4.507-69.4 2.773-78.759s-18.029-71.185-18.029-71.185h-35.747" class="cls-5"/>
        </clipPath>
        <clipPath id="clip-path-8">
            <path id="Path_814" d="M121.545 177.827c8.939.974 24.5 3.156 23.577 27.159s-4.392 62.841-4.392 62.841-44.663 19.088-49.695 1.38c0 0 2.311-19.963-5.086-51.125s-4.083-44.582 35.596-40.255z" class="cls-4"/>
        </clipPath>
        <clipPath id="clip-path-9">
            <path id="Path_820" d="M125.027 178.269s15.472.1 22.406 4.26c0 0 12.251-2.08 17.1 0l4.392-16.411s5.778-2.774 8.552 1.387c0 0 2.08 24.963-1.387 27.043s-30.934 8.317-30.934 8.317-17.572-5.279-20.129-24.596z" class="cls-4"/>
        </clipPath>
        <style>
            .cls-1,.cls-2{fill:#00d97e}.cls-19,.cls-2,.cls-3,.cls-4,.cls-5,.cls-6{stroke:#263238}.cls-19,.cls-2,.cls-20,.cls-3,.cls-4,.cls-5,.cls-6,.cls-9{stroke-linecap:round;stroke-linejoin:round}.cls-16,.cls-3{fill:#fff}.cls-10,.cls-4{fill:#263238}.cls-24,.cls-5{fill:#999}.cls-19,.cls-20,.cls-6,.cls-9{fill:none}.cls-9{stroke:#fff}.cls-23{opacity:.2}.cls-16{opacity:.4}.cls-19,.cls-20{stroke-width:.75px}.cls-20{stroke:#7f7f7f}
        </style>
    </defs>
    <g id="Group_498" transform="translate(-20.43 -38.231)">
        <g id="Background_Simple">
            <path id="Line_232" d="M19.065 0L0 0" class="cls-6" transform="translate(47.248 393.034)"/>
            <g id="Group_434" opacity="0.5">
                <path id="Path_698" d="M479.557 318.463c-2.716 34.39-10.907 62.344-27.988 83.733l-9.238-9.162H66.313c-37.193-39.014-26.58-153.843 91.6-168C282.3 210.135 253.88 45.254 351.76 47.25c45.569.938 70.557 19.545 84.256 39.167a.11.11 0 0 1 .044.055c.011.011.011.021.021.032a92.122 92.122 0 0 1 6.25 11.627c18.662 40.432 43.53 140.504 37.226 220.332z" class="cls-1"/>
            </g>
        </g>
        <g id="Shadow">
            <path id="Path_699" fill="#08082c" d="M451.569 402.2c-27.234 34.106-83.24 51.3-169.353 54.873-112.415 4.666-163.866-16.328-215.9-64.035h376.015z"/>
        </g>
        <g id="Room">
            <g id="Group_437">
                <g id="Group_435">
                    <path id="Line_233" d="M0 0L417.04 0" class="cls-9" transform="translate(20.93 393.032)"/>
                    <path id="Path_700" d="M442.332 82.8v310.232L469.9 420.6" class="cls-9"/>
                </g>
                <g id="Lamp">
                    <path id="Line_234" d="M0 53.938L0 0" class="cls-9" transform="translate(359.978 47.232)"/>
                    <g id="Group_436">
                        <path id="Path_701" d="M336.7 124.446a23.276 23.276 0 0 1 46.552 0z" class="cls-9"/>
                    </g>
                </g>
            </g>
        </g>
        <g id="Shelf">
            <g id="Group_438">
                <path id="Rectangle_191" d="M0 0H19.993V124.24H0z" class="cls-6" transform="translate(123.585 268.797)"/>
                <path id="Rectangle_192" d="M0 0H80.77V30.171H0z" class="cls-6" transform="translate(35.664 278.016)"/>
                <path id="Rectangle_193" d="M0 0H80.77V30.171H0z" class="cls-6" transform="translate(35.664 311.482)"/>
                <path id="Rectangle_194" d="M0 0H80.77V30.171H0z" class="cls-6" transform="translate(35.664 344.949)"/>
                <path id="Path_702" d="M67.55 280.2a3.364 3.364 0 0 0 3.365 3.365h10.269a3.364 3.364 0 0 0 3.364-3.365" class="cls-6"/>
                <path id="Path_703" d="M67.55 313.664a3.365 3.365 0 0 0 3.365 3.365h10.269a3.365 3.365 0 0 0 3.364-3.365" class="cls-6"/>
                <path id="Path_704" d="M67.55 347.13a3.364 3.364 0 0 0 3.365 3.365h10.269a3.364 3.364 0 0 0 3.364-3.365" class="cls-6"/>
                <path id="Path_705" d="M120.313 393.037H29.124V268.8h91.188" class="cls-6"/>
            </g>
        </g>
        <g id="Chair">
            <g id="Group_439">
                <path id="Path_706" d="M198.2 332.716v47l24.615 8.673a1.57 1.57 0 0 1 1.049 1.482v1.455a1.572 1.572 0 0 1-2.014 1.508l-25.276-7.426-.46 6.075a1.674 1.674 0 0 1-1.67 1.548h-1.3a1.674 1.674 0 0 1-1.67-1.548l-.459-6.075-25.276 7.426a1.572 1.572 0 0 1-2.015-1.508v-1.455a1.571 1.571 0 0 1 1.049-1.482l24.615-8.673v-47" class="cls-6"/>
                <path id="Line_235" d="M0 13.613L0 0" class="cls-6" transform="translate(186.968 302.084)"/>
                <path id="Line_236" d="M0 0L0 13.613" class="cls-6" transform="translate(181.203 302.084)"/>
                <path id="Path_707" d="M161.966 299.664c-4.094-.168-6.962-2.829-6.962-7.42v-23.85a7.467 7.467 0 0 1 4.744-6.615" class="cls-6"/>
                <path id="Path_708" d="M160.87 265.366v26.775c0 4.617 3.687 7.173 8.34 6.348a68.153 68.153 0 0 1 30.517 1.345c4.584 1.236 8.18-.986 8.18-5.6v-26.778a6.108 6.108 0 0 0-3.826-5.371 70.547 70.547 0 0 0-39.3-1.739 5.465 5.465 0 0 0-3.911 5.02z" class="cls-6"/>
                <path id="Path_709" d="M179.748 317.675h-13.3a8.538 8.538 0 0 0-8.538 8.537 3.912 3.912 0 0 0 3.912 3.912h15.471" class="cls-6"/>
                <path id="Path_710" d="M181.842 330.124h43.919a3.911 3.911 0 0 0 3.911-3.912 8.537 8.537 0 0 0-8.537-8.537h-34.667a8.537 8.537 0 0 0-8.537 8.537 3.911 3.911 0 0 0 3.911 3.912z" class="cls-6"/>
            </g>
        </g>
        <g id="Desk">
            <g id="Group_456">
                <g id="Group_447">
                    <path id="Path_711" d="M388.626 247.84a2.181 2.181 0 0 0 2.116-1.91l4.38-40.769a1.683 1.683 0 0 0-1.7-1.91" class="cls-6"/>
                    <g id="Group_440">
                        <path id="Rectangle_195" d="M0 0H140.941V13.081H0z" class="cls-6" transform="rotate(180 210.619 142.677)"/>
                        <path id="Path_712" d="M230.126 272.272v13.081h47.991" class="cls-6"/>
                    </g>
                    <path id="Path_713" d="M425.768 270.874v-8.18H288.34" class="cls-6"/>
                    <path id="Rectangle_196" d="M0 0H60.563V8.18H0z" class="cls-6" transform="rotate(180 143.08 135.437)"/>
                    <g id="Group_445">
                        <g id="Group_441">
                            <path id="Path_714" d="M413.594 287.535v105.5h3.05l1.091-105.5" class="cls-6"/>
                            <path id="Path_715" d="M409.453 287.535l1.091 105.5h3.051v-105.5" class="cls-6"/>
                        </g>
                        <g id="Group_442">
                            <path id="Path_716" d="M373.289 287.535v105.5h3.051l1.091-105.5" class="cls-6"/>
                            <path id="Path_717" d="M369.148 287.535l1.091 105.5h3.051v-105.5" class="cls-6"/>
                        </g>
                        <g id="Group_443">
                            <path id="Path_718" d="M278.075 287.535v105.5h3.051l1.091-105.5" class="cls-6"/>
                            <path id="Path_719" d="M273.934 287.535l1.091 105.5h3.051v-105.5" class="cls-6"/>
                        </g>
                        <g id="Group_444">
                            <path id="Path_720" d="M237.77 287.535v105.5h3.051l1.091-105.5" class="cls-6"/>
                            <path id="Path_721" d="M233.629 287.535l1.091 105.5h3.051v-105.5" class="cls-6"/>
                        </g>
                    </g>
                    <path id="Rectangle_197" d="M0 0H29.649V2.545H0z" class="cls-6" transform="translate(311.309 260.149)"/>
                    <g id="Group_446">
                        <path id="Rectangle_198" d="M1.733 0h6.878a1.732 1.732 0 0 1 1.732 1.732v2.176H0V1.733A1.733 1.733 0 0 1 1.733 0z" class="cls-6" transform="rotate(180 198.588 131.347)"/>
                        <path id="Path_722" d="M397.176 258.8c0-1.485-2.316-2.689-5.172-2.689s-5.172 1.2-5.172 2.689z" class="cls-6"/>
                        <path id="Path_723" d="M386.832 258.8c0-1.485 2.316-2.689 5.172-2.689v2.689z" class="cls-6"/>
                    </g>
                    <path id="Path_724" d="M386.485 247.84h-57.8a1.683 1.683 0 0 1-1.7-1.91l4.381-40.769a2.181 2.181 0 0 1 2.115-1.91h57.8a1.683 1.683 0 0 1 1.7 1.91L388.6 245.93a2.18 2.18 0 0 1-2.115 1.91z" class="cls-6"/>
                    <path id="Path_725" d="M365.94 248.931l.986 9.175h2.181l-.986-9.175" class="cls-6"/>
                    <path id="Path_726" d="M351.761 248.931l.986 9.175h14.179l-.986-9.175" class="cls-6"/>
                    <path id="Path_727" d="M384.071 244.892h-52.343a1.46 1.46 0 0 1-1.479-1.657l3.8-35.379a1.891 1.891 0 0 1 1.835-1.657h52.343a1.46 1.46 0 0 1 1.479 1.657l-3.8 35.379a1.891 1.891 0 0 1-1.835 1.657z" class="cls-6"/>
                    <path id="Rectangle_199" d="M0 0H28.747V4.588H0z" class="cls-6" transform="translate(342.548 258.106)"/>
                    <path id="Rectangle_200" d="M0 0H8.411V4.588H0z" class="cls-6" transform="translate(371.296 258.106)"/>
                </g>
                <g id="Group_455">
                    <path id="Rectangle_201" d="M0 0H94.149V21.208H0z" class="cls-3" transform="translate(312.848 214.854)"/>
                    <g id="Group_454">
                        <g id="Group_448">
                            <path id="Path_728" d="M324.229 227.676l-1.521-1.16.249 1.865a.844.844 0 0 1-.836.956.845.845 0 0 1-.837-.956l.249-1.865-1.52 1.16a.844.844 0 0 1-1.241-.246l-.021-.036a.844.844 0 0 1 .4-1.2l1.744-.732-1.745-.733a.843.843 0 0 1-.4-1.2l.021-.036a.844.844 0 0 1 1.241-.246l1.52 1.16-.249-1.865a.845.845 0 0 1 .837-.956.844.844 0 0 1 .836.956l-.249 1.865 1.52-1.16a.843.843 0 0 1 1.241.246l.021.036a.843.843 0 0 1-.4 1.2l-1.745.733 1.745.732a.843.843 0 0 1 .4 1.2l-.021.036a.843.843 0 0 1-1.239.246z" class="cls-10"/>
                        </g>
                        <g id="Group_449">
                            <path id="Path_729" d="M337.8 227.676l-1.521-1.16.249 1.865a.844.844 0 0 1-.836.956.844.844 0 0 1-.836-.956l.249-1.865-1.521 1.16a.843.843 0 0 1-1.24-.246l-.021-.036a.843.843 0 0 1 .4-1.2l1.745-.732-1.745-.733a.844.844 0 0 1-.4-1.2l.022-.036a.842.842 0 0 1 1.24-.246l1.521 1.16-.249-1.865a.844.844 0 0 1 .836-.956.844.844 0 0 1 .836.956l-.249 1.865 1.521-1.16a.842.842 0 0 1 1.24.246l.022.036a.844.844 0 0 1-.4 1.2l-1.745.733 1.745.732a.843.843 0 0 1 .4 1.2l-.021.036a.843.843 0 0 1-1.242.246z" class="cls-10"/>
                        </g>
                        <g id="Group_450">
                            <path id="Path_730" d="M351.373 227.676l-1.52-1.16.249 1.865a.845.845 0 0 1-.837.956.844.844 0 0 1-.836-.956l.249-1.865-1.521 1.16a.843.843 0 0 1-1.24-.246l-.021-.036a.843.843 0 0 1 .4-1.2l1.745-.732-1.745-.733a.843.843 0 0 1-.4-1.2l.021-.036a.843.843 0 0 1 1.241-.246l1.52 1.16-.249-1.865a.844.844 0 0 1 .836-.956.845.845 0 0 1 .837.956l-.249 1.865 1.52-1.16a.844.844 0 0 1 1.241.246l.021.036a.843.843 0 0 1-.4 1.2l-1.745.733 1.744.732a.844.844 0 0 1 .4 1.2l-.021.036a.844.844 0 0 1-1.24.246z" class="cls-10"/>
                        </g>
                        <g id="Group_451">
                            <path id="Path_731" d="M364.945 227.676l-1.52-1.16.249 1.865a.844.844 0 0 1-.836.956.845.845 0 0 1-.837-.956l.25-1.865-1.521 1.16a.844.844 0 0 1-1.241-.246l-.021-.036a.844.844 0 0 1 .4-1.2l1.744-.732-1.745-.733a.844.844 0 0 1-.4-1.2l.021-.036a.844.844 0 0 1 1.241-.246l1.521 1.16-.25-1.865a.845.845 0 0 1 .837-.956.844.844 0 0 1 .836.956l-.249 1.865 1.52-1.16a.843.843 0 0 1 1.241.246l.021.036a.843.843 0 0 1-.4 1.2l-1.745.733 1.745.732a.843.843 0 0 1 .4 1.2l-.021.036a.844.844 0 0 1-1.24.246z" class="cls-10"/>
                        </g>
                        <g id="Group_452">
                            <path id="Path_732" d="M378.518 227.676l-1.518-1.16.249 1.865a.844.844 0 0 1-.836.956.844.844 0 0 1-.836-.956l.249-1.865-1.521 1.16a.843.843 0 0 1-1.24-.246l-.021-.036a.843.843 0 0 1 .4-1.2l1.745-.732-1.745-.733a.844.844 0 0 1-.4-1.2l.022-.036a.842.842 0 0 1 1.24-.246l1.521 1.16-.249-1.865a.844.844 0 0 1 .836-.956.844.844 0 0 1 .836.956L377 224.4l1.521-1.16a.842.842 0 0 1 1.24.246l.022.036a.844.844 0 0 1-.4 1.2l-1.745.733 1.745.732a.843.843 0 0 1 .4 1.2l-.021.036a.843.843 0 0 1-1.244.253z" class="cls-10"/>
                        </g>
                        <g id="Group_453">
                            <path id="Path_733" d="M401.208 225.459s-2.764 3.454-6.174 3.454-6.174-3.454-6.174-3.454 2.764-3.459 6.174-3.459 6.174 3.459 6.174 3.459z" class="cls-3"/>
                            <path id="Path_734" d="M397.155 225.459a2.121 2.121 0 1 1-2.121-2.122 2.121 2.121 0 0 1 2.121 2.122z" class="cls-5"/>
                        </g>
                    </g>
                </g>
            </g>
        </g>
        <g id="Plant">
            <g id="Group_466">
                <g id="Group_464">
                    <g id="Group_457">
                        <path id="Path_735" d="M377.382 317.864s-11.451 23.645-21.515 11.649 6.941-16.507 6.941-16.507-20.475 2.429-20.475-8.676 14.575-4.164 14.575-4.164-18.942-14.771-9.716-21c6.419-4.336 21.862 11.332 21.862 11.332s-5.9-15.316 1.041-15.663 11.452 21.865 11.452 21.865 3.817-16.368 10.757-11.654-5.454 22.891-5.454 22.891 8.924-8.808 11.354-2.562-11.354 10.411-11.354 10.411-.1 22.9-7.733 20.127-1.735-18.049-1.735-18.049z" class="cls-1"/>
                        <path id="Path_736" d="M401.791 369.223s0-52.747-31.379-68.71" class="cls-6"/>
                        <path id="Path_737" d="M381.63 308.929s-8.759 1.564-18.649 12.32" class="cls-6"/>
                        <path id="Path_738" d="M375.495 303.606s-9.651 2.949-19.021 1.88" class="cls-6"/>
                        <path id="Path_739" d="M378.223 305.719a28.656 28.656 0 0 0 10.264-12.233" class="cls-6"/>
                    </g>
                    <g id="Group_460">
                        <g id="Group_459">
                            <path id="Path_740" d="M436.906 333.406s9.663 19.951 18.154 9.829-5.856-13.928-5.856-13.928 17.276 2.049 17.276-7.32-12.3-3.514-12.3-3.514 15.983-12.463 8.2-17.72c-5.417-3.658-18.446 9.562-18.446 9.562s4.977-12.924-.879-13.216-9.662 18.446-9.662 18.446-3.221-13.811-9.077-9.833 4.6 19.315 4.6 19.315-7.53-7.432-9.58-2.162 9.58 8.784 9.58 8.784.083 19.325 6.524 16.983 1.466-15.226 1.466-15.226z" class="cls-1"/>
                            <g id="Group_458" clip-path="url(#clip-path)">
                                <path id="Path_741" d="M436.906 333.406s9.663 19.951 18.154 9.829-5.856-13.928-5.856-13.928 17.276 2.049 17.276-7.32-12.3-3.514-12.3-3.514 15.983-12.463 8.2-17.72c-5.417-3.658-18.446 9.562-18.446 9.562s4.977-12.924-.879-13.216-9.662 18.446-9.662 18.446-3.221-13.811-9.077-9.833 4.6 19.315 4.6 19.315-7.53-7.432-9.58-2.162 9.58 8.784 9.58 8.784.083 19.325 6.524 16.983 1.466-15.226 1.466-15.226z" opacity="0.1"/>
                            </g>
                        </g>
                        <path id="Path_743" d="M435.741 322.418h-.01c-13.65 9.85-15.6 44.03-15.6 44.03" class="cls-6"/>
                        <path id="Path_744" d="M431.71 326.385a39.229 39.229 0 0 1 14.515 9.757" class="cls-6"/>
                        <path id="Path_745" d="M440.152 305.719c0 7.462-4.419 16.7-4.419 16.7l3.234 1.012" class="cls-6"/>
                        <path id="Path_746" d="M441.64 324.216s8.228 1.84 14.475 0" class="cls-6"/>
                    </g>
                    <g id="Group_463">
                        <g id="Group_462">
                            <path id="Path_747" d="M407.548 281.963s-23.105.943-21.66-11.378c1.213-10.348 17.575-3.432 17.575-3.432s-13.424-15.65-4.2-21.836 14.7 11.866 14.7 11.866 5.878-26.042 16.191-21.851c7.177 2.916-4.518 24.468-4.518 24.468s13.6-9.267 17.752-3.7-15.94 17.525-15.94 17.525 15.719-5.949 15.671 2.441-22.049 8.223-22.049 8.223 12.287 2.505 8.453 8-14.971-3.629-14.971-3.629-15.048 10.886-17 3 9.996-9.697 9.996-9.697z" class="cls-1"/>
                            <g id="Group_461" clip-path="url(#clip-path-2)">
                                <path id="Path_748" fill="#fff" d="M407.548 281.963s-23.105.943-21.66-11.378c1.213-10.348 17.575-3.432 17.575-3.432s-13.424-15.65-4.2-21.836 14.7 11.866 14.7 11.866 5.878-26.042 16.191-21.851c7.177 2.916-4.518 24.468-4.518 24.468s13.6-9.267 17.752-3.7-15.94 17.525-15.94 17.525 15.719-5.949 15.671 2.441-22.049 8.223-22.049 8.223 12.287 2.505 8.453 8-14.971-3.629-14.971-3.629-15.048 10.886-17 3 9.996-9.697 9.996-9.697z" opacity="0.2"/>
                            </g>
                        </g>
                        <path id="Path_750" d="M410.735 369.223s-3.689-65.282 9.394-108.986" class="cls-6"/>
                        <path id="Path_751" d="M394.692 272.144s9.74-.822 21.246 5.5" class="cls-6"/>
                        <path id="Path_752" d="M402.791 251.583s9.744 9.535 13.706 23.246" class="cls-6"/>
                        <path id="Path_753" d="M417.37 270.791s6.331-6.975 14.34-8.8" class="cls-6"/>
                    </g>
                </g>
                <g id="Group_465">
                    <path id="Path_754" d="M435.526 362.764h-49.765l4.01 45.121a1.909 1.909 0 0 0 1.9 1.741l.991 11.151a1.908 1.908 0 0 0 1.9 1.741h32.157a1.91 1.91 0 0 0 1.9-1.741l.991-11.151a1.91 1.91 0 0 0 1.9-1.741z" class="cls-3"/>
                    <path id="Path_755" d="M435.848 366.447H385.44a3.557 3.557 0 0 1-3.557-3.557 3.556 3.556 0 0 1 3.557-3.557h50.408a3.557 3.557 0 0 1 3.557 3.557 3.558 3.558 0 0 1-3.557 3.557z" class="cls-4"/>
                </g>
                <path id="Line_237" d="M0 0L3.301 0" class="cls-6" transform="translate(420.435 409.764)"/>
                <path id="Line_238" d="M0 0L19.593 0" class="cls-6" transform="translate(397.541 409.764)"/>
            </g>
        </g>
        <g id="Device">
            <g id="Group_476">
                <path id="Path_756" d="M300.259 38.731h-13.628v260.676h13.628a8.185 8.185 0 0 0 8.186-8.185V46.916a8.185 8.185 0 0 0-8.186-8.185z" class="cls-5"/>
                <rect id="Rectangle_202" width="133.61" height="260.676" class="cls-4" rx="7.505" transform="translate(170.471 38.731)"/>
                <g id="Group_468">
                    <path id="Path_757" d="M260.41 50.2a6.583 6.583 0 0 1-6.532 5.754H219.54a6.583 6.583 0 0 1-6.531-5.754 6.585 6.585 0 0 0-6.532-5.755h-24.153a6.585 6.585 0 0 0-6.585 6.584v236.079a6.585 6.585 0 0 0 6.585 6.584h109.9a6.585 6.585 0 0 0 6.585-6.584V51.03a6.585 6.585 0 0 0-6.585-6.584h-25.282a6.584 6.584 0 0 0-6.532 5.754z" class="cls-1"/>
                    <g id="Group_467" clip-path="url(#clip-path-3)">
                        <path id="Path_758" d="M211.986 310.271h-40.16l96.816-285H308.8z" class="cls-16"/>
                        <path id="Path_759" d="M240.071 310.271h-10.678l96.816-285h10.678z" class="cls-16"/>
                    </g>
                    <path id="Path_761" d="M260.41 50.2a6.583 6.583 0 0 1-6.532 5.754H219.54a6.583 6.583 0 0 1-6.531-5.754 6.585 6.585 0 0 0-6.532-5.755h-24.153a6.585 6.585 0 0 0-6.585 6.584v236.079a6.585 6.585 0 0 0 6.585 6.584h109.9a6.585 6.585 0 0 0 6.585-6.584V51.03a6.585 6.585 0 0 0-6.585-6.584h-25.282a6.584 6.584 0 0 0-6.532 5.754z" class="cls-6"/>
                </g>
                <path id="Path_762" d="M225.461 47.827a3.025 3.025 0 1 1-3.025-3.025 3.025 3.025 0 0 1 3.025 3.025z" class="cls-2"/>
                <path id="Path_763" d="M249.183 44.918h-15.178a2.909 2.909 0 1 0 0 5.817h15.178a2.909 2.909 0 1 0 0-5.817z" class="cls-5"/>
                <path id="Path_764" d="M251.045 280.865h-29.224a3.025 3.025 0 0 0 0 6.05h29.224a3.025 3.025 0 1 0 0-6.05z" class="cls-5"/>
                <g id="Group_469">
                    <path id="Path_765" d="M309.928 105.066v-19.5a1.629 1.629 0 0 0-3.258 0v19.5a1.629 1.629 0 1 0 3.258 0z" class="cls-10"/>
                    <path id="Path_766" d="M309.928 119.547v-6.49a1.629 1.629 0 0 0-3.258 0v6.49a1.629 1.629 0 0 0 3.258 0z" class="cls-10"/>
                </g>
                <path id="Rectangle_203" d="M0 0H147.108V33.138H0z" class="cls-3" transform="translate(165.846 133.928)"/>
                <g id="Group_470">
                    <rect id="Rectangle_204" width="16.713" height="19.243" class="cls-2" rx="3.973" transform="translate(181.745 183.623)"/>
                    <rect id="Rectangle_205" width="16.713" height="19.243" class="cls-2" rx="3.973" transform="translate(200.377 183.623)"/>
                    <rect id="Rectangle_206" width="16.713" height="19.243" class="cls-2" rx="3.973" transform="translate(219.01 183.623)"/>
                    <rect id="Rectangle_207" width="16.713" height="19.243" class="cls-2" rx="3.973" transform="translate(237.643 183.623)"/>
                    <rect id="Rectangle_208" width="16.713" height="19.243" class="cls-2" rx="3.973" transform="translate(256.275 183.623)"/>
                    <rect id="Rectangle_209" width="16.713" height="19.243" class="cls-2" rx="3.973" transform="translate(274.908 183.623)"/>
                    <rect id="Rectangle_210" width="16.713" height="19.242" class="cls-2" rx="3.973" transform="translate(191.061 205.922)"/>
                    <rect id="Rectangle_211" width="16.713" height="19.242" class="cls-2" rx="3.973" transform="translate(209.694 205.922)"/>
                    <rect id="Rectangle_212" width="16.713" height="19.242" class="cls-2" rx="3.973" transform="translate(228.326 205.922)"/>
                    <rect id="Rectangle_213" width="16.713" height="19.242" class="cls-2" rx="3.973" transform="translate(246.959 205.922)"/>
                    <rect id="Rectangle_214" width="16.713" height="19.242" class="cls-2" rx="3.973" transform="translate(265.591 205.922)"/>
                    <rect id="Rectangle_215" width="16.713" height="19.242" class="cls-2" rx="3.973" transform="translate(181.745 228.22)"/>
                    <rect id="Rectangle_216" width="16.713" height="19.242" class="cls-2" rx="3.973" transform="translate(200.377 228.22)"/>
                    <rect id="Rectangle_217" width="16.713" height="19.242" class="cls-2" rx="3.973" transform="translate(219.01 228.22)"/>
                    <rect id="Rectangle_218" width="16.713" height="19.242" class="cls-2" rx="3.973" transform="translate(237.643 228.22)"/>
                    <rect id="Rectangle_219" width="16.713" height="19.242" class="cls-2" rx="3.973" transform="translate(256.275 228.22)"/>
                    <rect id="Rectangle_220" width="16.713" height="19.242" class="cls-2" rx="3.973" transform="translate(274.908 228.22)"/>
                    <rect id="Rectangle_221" width="16.713" height="19.242" class="cls-2" rx="3.973" transform="translate(191.061 250.519)"/>
                    <rect id="Rectangle_222" width="16.713" height="19.242" class="cls-2" rx="3.973" transform="translate(209.694 250.519)"/>
                    <rect id="Rectangle_223" width="16.713" height="19.242" class="cls-2" rx="3.973" transform="translate(228.326 250.519)"/>
                    <rect id="Rectangle_224" width="16.713" height="19.242" class="cls-2" rx="3.973" transform="translate(246.959 250.519)"/>
                    <rect id="Rectangle_225" width="16.713" height="19.242" class="cls-2" rx="3.973" transform="translate(265.591 250.519)"/>
                </g>
                <g id="Group_475">
                    <circle id="Ellipse_43" cx="27.855" cy="27.855" r="27.855" class="cls-3" transform="rotate(-62.03 187.343 -112.421)"/>
                    <path id="Path_767" d="M236.433 122.083a27.725 27.725 0 0 0 16.85-5.678 59.367 59.367 0 0 0-20.4-3.722 43.539 43.539 0 0 0-14.624 2.646 27.743 27.743 0 0 0 18.174 6.754z" class="cls-2"/>
                    <path id="Path_768" d="M228.93 106.647s-.243-9.081-2.788-15.716-4-16.452 5.726-17.815 13.583.255 19.152-.182c10.7-.839-1.091 11.452-1.091 11.452l-14.329 5.59s-4.974 17.124-6.67 16.671z" class="cls-4"/>
                    <g id="Group_472">
                        <path id="Path_769" fill="#fff" d="M228.284 109.287l2.525-10.327 7.033 2.121 2.109 8.378a5.642 5.642 0 0 0 3.025 3.725 17.7 17.7 0 0 1 3.006 1.764s-8.342 10.693-24.357 0a16.758 16.758 0 0 1 3.429-1.91 5.543 5.543 0 0 0 3.23-3.751z"/>
                        <g id="Group_471" clip-path="url(#clip-path-4)">
                            <path id="Path_770" d="M250.152 84.712l.914 6.126a4.278 4.278 0 0 1-.156 1.93l-.535 1.676.316 3.992a4.141 4.141 0 0 1 0 .62c-.134 2.047-1.124 11.827-7.03 12.275-5.237.4-10.452-4.989-12.3-7.557a6.256 6.256 0 0 1-.986-2.124l-.793-3.107a3.533 3.533 0 0 1-3.338-2.461c-.791-2.51-2.108-4.132.434-5.383s3.444 2.285 3.444 2.285.658-4.135 1.355-5.316c.615-1.041 2.861-2.3 3.524-3.309a14.59 14.59 0 0 0 .895-2.487s7.737 1.491 13.607.295z" class="cls-4"/>
                        </g>
                        <path id="Path_772" d="M228.284 109.287l2.525-10.327 7.033 2.121 2.109 8.378a5.642 5.642 0 0 0 3.025 3.725 17.7 17.7 0 0 1 3.006 1.764s-8.342 10.693-24.357 0a16.758 16.758 0 0 1 3.429-1.91 5.543 5.543 0 0 0 3.23-3.751z" class="cls-6"/>
                    </g>
                    <path id="Path_773" d="M250.152 83.621l.914 6.126a4.282 4.282 0 0 1-.156 1.931l-.535 1.676.316 3.991a4.153 4.153 0 0 1 0 .621c-.134 2.047-1.124 11.826-7.03 12.274-5.237.4-10.452-4.989-12.3-7.556a6.269 6.269 0 0 1-.986-2.125l-.793-3.106a3.535 3.535 0 0 1-3.338-2.462c-.791-2.51-2.108-4.131.434-5.382s3.444 2.284 3.444 2.284.658-4.135 1.355-5.316c.615-1.04 2.861-2.3 3.524-3.308a14.623 14.623 0 0 0 .895-2.488s7.737 1.491 13.607.295z" class="cls-3"/>
                    <path id="Path_774" d="M246 93.855l1.914 4.633a1.033 1.033 0 0 1-.886 1.425l-2.393.157" class="cls-19"/>
                    <path id="Path_775" d="M240.048 101.8a2.96 2.96 0 0 0 4.473 1.113" class="cls-19"/>
                    <g id="Group_473">
                        <path id="Path_776" d="M239.958 76.3c-10.362-1.181-12.271 2.909-12.271 2.909" class="cls-20"/>
                        <path id="Path_777" d="M251.369 75.165a38.683 38.683 0 0 1-9.084 1.174" class="cls-20"/>
                    </g>
                    <g id="Group_474">
                        <path id="Path_778" d="M242 79.276c2.947.035 8.9-.546 11.291-3.265" class="cls-20"/>
                        <path id="Path_779" d="M237.64 78.783a19.222 19.222 0 0 0 2.322.373" class="cls-20"/>
                    </g>
                    <path id="Path_780" d="M241.843 93.183c0 .795-.322 1.439-.72 1.439s-.719-.644-.719-1.439.322-1.439.719-1.439.72.644.72 1.439z" class="cls-10"/>
                    <path id="Path_781" d="M248.622 92.993c0 .69-.279 1.25-.625 1.25s-.624-.56-.624-1.25.279-1.249.624-1.249.625.556.625 1.249z" class="cls-10"/>
                    <path id="Path_782" d="M238.765 91.057s.862-2.562 2.358-2.5a2.714 2.714 0 0 1 2.169 1.5" class="cls-19"/>
                    <path id="Path_783" d="M249.089 89.99c-.275-.694-.711-1.467-1.281-1.433-1.028.063-1.49 1.5-1.49 1.5" class="cls-19"/>
                </g>
            </g>
            <text id="Edit_profile" font-family="SegoeUI, Segoe UI" font-size="19.637px" transform="translate(194.526 157.342)">
                <tspan x="0" y="0">Edit profile</tspan>
            </text>
        </g>
        <g id="Character">
            <g id="Group_497">
                <g id="Group_478">
                    <path id="Path_784" d="M94.092 211.422c2.039-4.863-2.89-19.56-5.077-25.588a2.274 2.274 0 0 0-3.659-.918c-1.976 1.771-4.387 5.212-4.786 11.6 0 0-15.255 26.87-15.255 39.128 0 11.492 22.718 35.415 22.718 35.415a10.611 10.611 0 0 0 6.059-4.854s-8.5-20.976-15.082-29.99c0-.003 12.828-19.415 15.082-24.793z" class="cls-10"/>
                    <g id="Group_477" clip-path="url(#clip-path-5)">
                        <path id="Path_785" d="M91.543 219.28s-7.271-15.486-10.045-14.1-9.811 27.506-7.1 31.666 17.493 33.531 21.2 32.945-4.055-50.511-4.055-50.511z" class="cls-23"/>
                    </g>
                    <path id="Path_787" d="M94.092 211.422c2.039-4.863-2.89-19.56-5.077-25.588a2.274 2.274 0 0 0-3.659-.918c-1.976 1.771-4.387 5.212-4.786 11.6 0 0-15.255 26.87-15.255 39.128 0 11.492 22.718 35.415 22.718 35.415a10.611 10.611 0 0 0 6.059-4.854s-8.5-20.976-15.082-29.99c0-.003 12.828-19.415 15.082-24.793z" class="cls-6"/>
                </g>
                <path id="Path_788" d="M92.158 264.3l3.435 5.5s10.674 3.338 11.786 6.872-4.358 8.441-7.61 7.46-8.553-10.8-8.553-10.8L86.9 268.3z" class="cls-3"/>
                <path id="Path_789" d="M85.428 269.67l2.311 2.658a13.2 13.2 0 0 0 7.764-5.915l-1.403-3.331s-1.969 4.618-8.672 6.588z" class="cls-2"/>
                <path id="Path_790" d="M99.125 416.85l-2.978 12.45a2.84 2.84 0 0 0 2.761 3.5h17.5a2.839 2.839 0 0 0 2.8-3.325 6.76 6.76 0 0 0-2.919-4.65c-3.987-2.6-5.894-10.748-5.894-10.748z" class="cls-4"/>
                <path id="Path_791" d="M142.29 418.93s-2.833 4.07-3.251 11.327a2.428 2.428 0 0 0 2.431 2.542h31.073a2.924 2.924 0 0 0 1.841-5.2 8.972 8.972 0 0 0-4.53-1.738c-7.628-1.04-14.376-4.507-15.6-9.014z" class="cls-4"/>
                <g id="Group_480">
                    <path id="Path_792" d="M94.092 266.2s-3.52 14.562-2.133 46l.9 35.6s-5.065 24.963 4.643 70.267c0 0 2.963 6.7 15.088-1.679l1.387-69.05 12.649-76.278z" class="cls-24"/>
                    <g id="Group_479" clip-path="url(#clip-path-6)">
                        <path id="Path_793" d="M119.25 298.331s-5.161 20.572-7.241 32.591-14.448 11.1-15.941 18.954 13.019-1.387 11.591 27.044-6.477 43.9 1.479 43.68 8.187-22.646 8.187-22.646l4.854-68.187v-9.477l1.156-18.029z" class="cls-23"/>
                    </g>
                    <path id="Path_795" d="M94.092 266.2s-3.52 14.562-2.133 46l.9 35.6s-5.065 24.963 4.643 70.267c0 0 2.963 6.7 15.088-1.679l1.387-69.05 12.649-76.278z" class="cls-6"/>
                </g>
                <g id="Group_481">
                    <path id="Path_796" d="M96.067 355.521a25.327 25.327 0 0 0-1.491 2.214" class="cls-6"/>
                    <path id="Path_797" d="M96.7 347.68s11.6-2.774 12.389 0c.684 2.414-5.592-.423-11.774 6.339" class="cls-6"/>
                </g>
                <g id="Group_483">
                    <path id="Path_798" d="M116.807 303.326c9.015 14.537 21.672 43.122 21.672 43.122s-1.9 3.313 0 8.86c0 0-5.03 19.314 2.251 65.478 0 0 6.241 3.978 15.256-3.015 0 0 4.507-69.4 2.773-78.759s-18.029-71.185-18.029-71.185h-35.747" class="cls-24"/>
                    <g id="Group_482" clip-path="url(#clip-path-7)">
                        <path id="Path_799" d="M114.783 304.341s5.45 2.774 15.9 0 1.782 9.015 5.249 21.843 13.175 18.722 11.615 24.27-6.179 6.934-7.163 21.843 12.085 42.449 6.937 48.1-17.629-7.7-17.629-7.7l-10.442-70.683z" class="cls-23"/>
                    </g>
                    <path id="Path_801" d="M116.807 303.326c9.015 14.537 21.672 43.122 21.672 43.122s-1.9 3.313 0 8.86c0 0-5.03 19.314 2.251 65.478 0 0 6.241 3.978 15.256-3.015 0 0 4.507-69.4 2.773-78.759s-18.029-71.185-18.029-71.185h-35.747" class="cls-6"/>
                </g>
                <g id="Group_484">
                    <path id="Path_802" d="M145.1 348.9c4.1-.621 9.361-1.053 9.148.86-.347 3.12-7.671-.047-12.135 5.2" class="cls-6"/>
                    <path id="Path_803" d="M140.384 349.761s.716-.158 1.822-.366" class="cls-6"/>
                </g>
                <path id="Path_804" d="M168.982 169.721l.648-6.6s-1.3-6.865-.648-9.2 6.346-17.1 8.16-16.449-2.72 8.678-2.591 11.009c0 0 2.412.13 3.019 1.684 0 0 2.292.388 2.421 2.461a3.648 3.648 0 0 1 1.684 3.367c-.259 2.2-4.663 8.16-4.663 8.16l.259 8.548z" class="cls-3"/>
                <path id="Path_805" d="M130.663 158.572s-2.55-5.054-2.923-6.887c-.265-1.3.267-4.015 0-5.318-.624-3.047-4.89-11.438-4.89-11.438a2.33 2.33 0 0 0-.761-.9l-2.494 3.078h-6.789l-10.354 13.679 5.1 12.277-1.5 1.772c.918.9 1.5 1.425 1.5 1.425l-1.5 8.91 14.6 1.48.385-5.659h4.438a2.259 2.259 0 0 0 2.259-2.259V161l2.039-.578a1.364 1.364 0 0 0 .89-1.85z" class="cls-3"/>
                <path id="Path_806" d="M95.346 154.123c5.885 8.654 12.209 12.139 12.209 12.139l2.487-6.193s-5.047-.533-4.253-5.384c1.174-7.171 7.017-.727 7.017-.727l1.261-5.537s3.115-3.342 2.9-4.514a21.734 21.734 0 0 0-.669-2.509s11.254-10.708 10.064-16.673c0 0-9.371 1.9-20.549 3.952-13.637 2.507-17.108 15.682-10.467 25.446z" class="cls-4"/>
                <path id="Path_807" d="M125.481 170.993s-7.832-1.329-10.825-5.009-.6.255.795 2.5c3.004 4.832 5.592 2.509 10.03 2.509z" class="cls-10"/>
                <path id="Path_808" d="M120.658 159.741a5.056 5.056 0 0 0 4.384 1.651" class="cls-19"/>
                <path id="Path_809" d="M126.359 150.171c0 .695-.262 1.259-.586 1.259s-.586-.564-.586-1.259.262-1.259.586-1.259.586.563.586 1.259z" class="cls-10"/>
                <path id="Path_810" d="M126.247 146.488a3.505 3.505 0 0 0-4 2.117" class="cls-19"/>
                <path id="Path_811" d="M98.431 179.062s.048-6.841 11.788-5.779c14.331 1.3 20.11 8.635 20.11 8.635z" class="cls-2"/>
                <g id="Group_486">
                    <path id="Path_812" d="M121.545 177.827c8.939.974 24.5 3.156 23.577 27.159s-4.392 62.841-4.392 62.841-44.663 19.088-49.695 1.38c0 0 2.311-19.963-5.086-51.125s-4.083-44.582 35.596-40.255z" class="cls-10"/>
                    <g id="Group_485" clip-path="url(#clip-path-8)">
                        <path id="Path_813" d="M147.383 245.168s-5.837 1.4-23.692-8.321c-28.028-15.267-31.144-37.68-39.034-33.982s7.776 75.954 7.776 75.954l29 1.817h26.874z" class="cls-23"/>
                    </g>
                    <path id="Path_815" d="M121.545 177.827c8.939.974 24.5 3.156 23.577 27.159s-4.392 62.841-4.392 62.841-44.663 19.088-49.695 1.38c0 0 2.311-19.963-5.086-51.125s-4.083-44.582 35.596-40.255z" class="cls-6"/>
                </g>
                <g id="Group_487">
                    <path id="Path_816" d="M70.012 235.2c-.5.12-1.031.267-1.588.446" class="cls-20"/>
                    <path id="Path_817" d="M77.383 235.649s-1.881-1.343-5.973-.719" class="cls-20"/>
                </g>
                <g id="Group_489">
                    <path id="Path_818" d="M125.027 178.269s15.472.1 22.406 4.26c0 0 12.251-2.08 17.1 0l4.392-16.411s5.778-2.774 8.552 1.387c0 0 2.08 24.963-1.387 27.043s-30.934 8.317-30.934 8.317-17.572-5.279-20.129-24.596z" class="cls-10"/>
                    <g id="Group_488" clip-path="url(#clip-path-9)">
                        <path id="Path_819" d="M144.947 198.625s-.809-6.427 10.979-5.6 21 1.06 22.175-4.488 14.115-15.152 9.954 2.825l-4.161 17.978-24.738 1.626z" class="cls-23"/>
                    </g>
                    <path id="Path_821" d="M125.027 178.269s15.472.1 22.406 4.26c0 0 12.251-2.08 17.1 0l4.392-16.411s5.778-2.774 8.552 1.387c0 0 2.08 24.963-1.387 27.043s-30.934 8.317-30.934 8.317-17.572-5.279-20.129-24.596z" class="cls-6"/>
                </g>
                <g id="Group_490">
                    <path id="Path_822" d="M167.379 183.763a15.665 15.665 0 0 1 3.4 3.851" class="cls-20"/>
                    <path id="Path_823" d="M164.885 182.692a2.459 2.459 0 0 1 1.088.24" class="cls-20"/>
                </g>
                <g id="Group_491">
                    <path id="Path_824" d="M85.585 210.967c-.537-5.175-2-14.689-1.42-21.262" class="cls-20"/>
                    <path id="Path_825" d="M81.5 198.625s2.707 16.033 4.012 16.033" class="cls-20"/>
                </g>
                <path id="Line_239" d="M0 0L0 8.98" class="cls-20" transform="translate(91.206 258.055)"/>
                <path id="Path_826" d="M106.448 280.636s1.457 10.158 5.908 16.424" class="cls-5"/>
                <path id="Path_827" d="M167.639 164.225l-1.022 3.727s6.76-1.6 12.741 1.6l-.606-4.344s-3.852-2.89-11.113-.983z" class="cls-2"/>
                <g id="Group_492">
                    <path id="Path_828" d="M130.714 260.127c-4.878 2.168-14.533 4.063-33.5 2.193" class="cls-20"/>
                    <path id="Path_829" d="M135.586 256.148a5.306 5.306 0 0 1-1.914 2.261" class="cls-20"/>
                </g>
                <g id="Group_494">
                    <path id="Path_830" d="M149.027 182.966l7.9 4.889" class="cls-20"/>
                    <g id="Group_493">
                        <path id="Path_831" d="M136.676 224.074a38.707 38.707 0 0 0 8.978-21.014" class="cls-20"/>
                        <path id="Path_832" d="M132.075 222.619a64.793 64.793 0 0 1-23.411 17.126" class="cls-20"/>
                        <path id="Path_833" d="M136.045 217.545q-1.137 1.614-2.371 3.155" class="cls-20"/>
                        <path id="Path_834" d="M138.411 213.925q-.574.948-1.183 1.877" class="cls-20"/>
                        <path id="Path_835" d="M95.177 252.032a56.674 56.674 0 0 0 32.372 4.432" class="cls-20"/>
                    </g>
                </g>
                <g id="Group_495">
                    <path id="Path_836" d="M122.248 127.817a16.494 16.494 0 0 0 2.939-1.647" class="cls-20"/>
                    <path id="Path_837" d="M97.887 151.43s-5.547-10.178.867-15.725c4.89-4.229 13.6-4.63 20.582-6.809" class="cls-20"/>
                </g>
                <g id="Group_496">
                    <path id="Path_838" d="M102.564 144.2a5.288 5.288 0 0 1 1.217-5.4c3.814-3.615 14.93-3.962 20.467-9.509" class="cls-20"/>
                    <path id="Path_839" d="M104.821 148.912a15.4 15.4 0 0 1-1.222-2.022" class="cls-20"/>
                </g>
            </g>
        </g>
    </g>
</svg>
