<svg xmlns="http://www.w3.org/2000/svg" width="623.265" height="484.76" viewBox="0 0 623.265 484.76">
    <defs>
        <clipPath id="clip-path">
            <path id="Path_12301" fill="#00d97e" stroke="#263238" stroke-linecap="round" stroke-linejoin="round" d="M256.863 242.407c.678 2.582 1.374 5.138 2.069 7.637 7.311 26.319 16.815 76.4 16.815 76.4 46.789 9.87 96.137 0 96.137 0 .269-10.918-1.06-25.317-2.541-40.443 7.673-2.123 13.206-9.206 13.507-20.969.366-14.256-2.218-39.923-3.655-51.907-1.265-10.545-.366-16.813-16.7-24.8-8.184-4.726-21.777-6.961-38.5-9.191-32.9-4.386-56.638 2.262-65.066 5.849-6.678-1.758-8.536 6.084-8.536 6.084-3.7-2.8-8 9.045-8 9.045-10.821 13.807-19.334 37.06-22.163 45.353a9.658 9.658 0 0 1-3.3 4.547c-7.678 5.854-3.411 13.091-3.411 13.091l15.718 4.818s7.615 1.981 13.433-8.033c4.87-8.388 12.823-22.588 14.193-17.481z" transform="translate(-212.34 -177.682)"/>
        </clipPath>
        <clipPath id="clip-path-2">
            <path id="Path_12320" d="M305.016 181.261c-1.371-4.809-7.644-6.157-7.644-6.157-29.974-5.118-36.311 5.778-36.311 5.778a44.133 44.133 0 0 0 0 30.651s8.53-3.531 9.992 0 4.142 11.09 4.142 11.09a33.718 33.718 0 0 0 10.479-9.016c4.629-6.093 15.519 0 15.519 0 6.992-12.184 3.823-32.346 3.823-32.346zm-7.248-.36c-11.607 36.44-21.842 38.067-21.842 38.067-3.411-13.4-6.336-10.478-10.966-18.852-3.715-6.719-2.458-15.237-1.816-18.343a2.544 2.544 0 0 1 1.32-1.759c11.517-5.863 25.611-3.705 31.423-2.423a2.578 2.578 0 0 1 1.881 3.309z" class="cls-2" transform="translate(-258.353 -173.737)"/>
        </clipPath>
        <clipPath id="clip-path-3">
            <circle id="Ellipse_946" cx="36.375" cy="36.375" r="36.375" class="cls-3" transform="rotate(-76.594 44.808 35.383)"/>
        </clipPath>
        <clipPath id="clip-path-4">
            <circle id="Ellipse_950" cx="31.048" cy="31.048" r="31.048" class="cls-3" transform="rotate(-76.839 38.117 30.233)"/>
        </clipPath>
        <clipPath id="clip-path-5">
            <path id="Rectangle_302" d="M0 0H43.028V21.734H0z" class="cls-4" transform="rotate(180 21.514 10.867)"/>
        </clipPath>
        <style>
            .cls-14,.cls-15,.cls-16,.cls-17,.cls-2,.cls-20,.cls-23,.cls-24,.cls-4{stroke:#263238}.cls-14,.cls-15,.cls-16,.cls-17,.cls-18,.cls-19,.cls-2,.cls-20,.cls-23,.cls-24,.cls-3,.cls-30,.cls-34,.cls-35{stroke-linecap:round;stroke-linejoin:round}.cls-12,.cls-2,.cls-3,.cls-4,.cls-6{fill:#ff4d54}.cls-3,.cls-30,.cls-35{stroke:#fff}.cls-18,.cls-23,.cls-24,.cls-3,.cls-30{stroke-width:.75px}.cls-4{stroke-miterlimit:10}.cls-18,.cls-19,.cls-20,.cls-23,.cls-30,.cls-34,.cls-35{fill:none}.cls-12,.cls-22{opacity:.3}.cls-14,.cls-28{fill:#263238}.cls-15{fill:#858585}.cls-16,.cls-24{fill:#989898}.cls-17{fill:#fff}.cls-18,.cls-19{stroke:#7f7f7f}.cls-34{stroke:#08082c}.cls-34,.cls-35{stroke-width:1.5px}
        </style>
    </defs>
    <g id="Group_722" transform="translate(-738.5 -492.683)">
        <g id="Group_716" transform="translate(707.524 414.819)">
            <g id="Background_Simple" transform="translate(56.457 79.292)">
                <g id="Group_668" opacity="0.49">
                    <path id="Path_12263" d="M251.112 434.5C181.414 413.016 21.837 362.588 52.2 221.088c35.092-163.535 228.413-52.679 347.018-107.973 83.945-39.135 259.159-80.365 246.3 96.3C633 381.3 625.813 505.843 523.97 535.383S356.453 466.957 251.112 434.5z" class="cls-6" transform="translate(-48.403 -78.959)"/>
                </g>
            </g>
            <g id="Floor" transform="translate(48.879 561.141)">
                <path id="Line_388" fill="none" stroke="#fff" stroke-linecap="round" stroke-linejoin="round" d="M0 0L604.689 0"/>
            </g>
            <g id="Plant" transform="translate(30.975 314.095)">
                <g id="Group_673">
                    <path id="Path_12264" fill="#b9474b" d="M128.48 319.913c8.85 7.358 5.917 50.3 33.285 31.8s-19.311-29.458-16.642-39.942c3.737-14.674 65.461 2.959 55.1-25.148s-47.253 14.162-56.952 3.7c-8.91-9.612 35.5-44.379 14.793-50.3s-16.252 44.385-29.587 44.379c-10.375 0-8.444-48.077-27.521-31.065s22.625 33.773 17.166 44.33c-4.148 8.024-36.982-11.785-35.5 6.707s36.551 7.8 45.858 15.539z" transform="translate(-7.129 -239.546)"/>
                    <path id="Path_12265" d="M123.682 279.472s-19.97 24.208-17.751 90.037" class="cls-2" transform="translate(3.587 -221.094)"/>
                    <g id="Group_670" fill="#a22b30" transform="translate(118.823 47.805)">
                        <g id="Group_669" transform="translate(26.118)">
                            <path id="Path_12266" d="M151.339 317.065c-3.538-7.121-32.874-11.981-16.087-27.437s16.731 17.67 24.2 17.543c10.46-.177 8.425-44.479 25.674-33.045s-17.04 29.515-11.548 37.7c5.044 7.518 35.485-16.809 36.168-1.943s-32.425 3.864-34.543 12.829c-1.648 6.976 30.979 13.326 16.506 23.446s-19.106-20.584-27.072-18.594c-6.053 1.513 2.04 26.738-10.156 22.8s.579-25.81-3.142-33.299z" transform="translate(-130.104 -272.241)"/>
                            <path id="Path_12267" d="M151.339 317.065c-3.538-7.121-32.874-11.981-16.087-27.437s16.731 17.67 24.2 17.543c10.46-.177 8.425-44.479 25.674-33.045s-17.04 29.515-11.548 37.7c5.044 7.518 35.485-16.809 36.168-1.943s-32.425 3.864-34.543 12.829c-1.648 6.976 30.979 13.326 16.506 23.446s-19.106-20.584-27.072-18.594c-6.053 1.513 2.04 26.738-10.156 22.8s.579-25.81-3.142-33.299z" opacity="0.3" transform="translate(-130.104 -272.241)"/>
                        </g>
                        <path id="Path_12268" stroke="#fff" stroke-linecap="round" stroke-linejoin="round" d="M174.682 303.159s-56.834-5.916-62.441 55.474" transform="translate(-112.241 -258.023)"/>
                    </g>
                    <g id="Group_672" transform="translate(0 5.917)">
                        <g id="Group_671">
                            <path id="Path_12269" d="M103.891 323.96c-8.85 7.358-5.917 50.3-33.285 31.8s19.312-29.458 16.642-39.942c-3.736-14.674-65.459 2.958-55.1-25.148s47.254 14.162 56.954 3.7c8.909-9.612-35.5-44.379-14.793-50.3s16.252 44.385 29.585 44.379c10.375 0 8.444-48.077 27.522-31.065s-22.625 33.773-17.167 44.33c4.15 8.024 36.984-11.785 35.5 6.705s-36.549 7.802-45.858 15.541z" class="cls-6" transform="translate(-30.975 -243.593)"/>
                            <path id="Path_12270" d="M103.891 323.96c-8.85 7.358-5.917 50.3-33.285 31.8s19.312-29.458 16.642-39.942c-3.736-14.674-65.459 2.958-55.1-25.148s47.254 14.162 56.954 3.7c8.909-9.612-35.5-44.379-14.793-50.3s16.252 44.385 29.585 44.379c10.375 0 8.444-48.077 27.522-31.065s-22.625 33.773-17.167 44.33c4.15 8.024 36.984-11.785 35.5 6.705s-36.549 7.802-45.858 15.541z" class="cls-12" transform="translate(-30.975 -243.593)"/>
                        </g>
                        <path id="Path_12271" fill="#ff4d54" stroke="#fff" stroke-linecap="round" stroke-linejoin="round" d="M76.537 283.519s25.887 34.562 31.8 92.256" transform="translate(-9.919 -225.141)"/>
                    </g>
                    <path id="Path_12272" d="M95.92 441.307h40.356a14.873 14.873 0 0 0 14.82-13.613l6.344-74.557A14.874 14.874 0 0 0 142.62 337H89.576a14.874 14.874 0 0 0-14.82 16.135l6.344 74.56a14.871 14.871 0 0 0 14.82 13.612z" class="cls-2" transform="translate(-10.767 -194.506)"/>
                </g>
            </g>
            <g id="Character" transform="translate(272.078 155.008)">
                <g id="Group_695">
                    <g id="Group_675" transform="translate(55.075 101.973)">
                        <path id="Path_12273" d="M312.455 337.886c-13.485 0-52.449-8.8-52.449-8.8H364.9s-38.959 8.8-52.445 8.8z" class="cls-14" transform="translate(-221.306 -141.051)"/>
                        <path id="Rectangle_292" d="M0 0H24.038V16.474H0z" class="cls-15" transform="translate(79.131 192.435)"/>
                        <path id="Rectangle_293" d="M0 0H31.147V70.847H0z" class="cls-16" transform="translate(75.576 208.909)"/>
                        <path id="Path_12274" d="M342.286 328.066h-20.242c2.25-13.946 3.91-28.158 4.933-42.248h20.242c-1.019 14.089-2.683 28.302-4.933 42.248z" class="cls-15" transform="translate(-192.634 -161.046)"/>
                        <path id="Path_12275" d="M389.345 200.484h-87.259c-10.258 0-16.97 8.659-14.986 18.865a664.41 664.41 0 0 1 9.976 94.373 16.293 16.293 0 0 0 16.449 16.383h73.456a19.164 19.164 0 0 0 18.764-16.383 657.362 657.362 0 0 0 3.828-94.373c-.484-10.206-9.973-18.865-20.228-18.865z" class="cls-15" transform="translate(-208.944 -200.484)"/>
                        <path id="Path_12276" d="M394.1 219.349a657.124 657.124 0 0 1-3.828 94.373 19.164 19.164 0 0 1-18.764 16.383h-57.98a16.293 16.293 0 0 1-16.449-16.383 664.41 664.41 0 0 0-9.976-94.373c-1.984-10.206 4.727-18.865 14.986-18.865h71.781c10.258 0 19.743 8.659 20.23 18.865z" class="cls-16" transform="translate(-208.944 -200.484)"/>
                        <path id="Path_12277" d="M364.9 405.033a2.6 2.6 0 0 1-3.155 2.546c-9.545-2.082-38.137-8.1-49.292-8.1s-39.747 6.023-49.292 8.1a2.6 2.6 0 0 1-3.157-2.546 6.829 6.829 0 0 1 5.4-6.682c11.174-2.4 36.669-7.619 47.054-7.619s35.88 5.22 47.054 7.619a6.828 6.828 0 0 1 5.394 6.682z" class="cls-14" transform="translate(-221.306 -112.56)"/>
                        <g id="Group_674" transform="translate(29.732 287.204)">
                            <path id="Path_12278" d="M262.841 396.909a8.97 8.97 0 1 0 8.97 8.969 8.968 8.968 0 0 0-8.97-8.969zm0 13.828a4.858 4.858 0 1 1 4.859-4.859 4.857 4.857 0 0 1-4.859 4.859z" class="cls-15" transform="translate(-253.872 -396.909)"/>
                            <path id="Path_12279" d="M298.712 396.909a8.97 8.97 0 1 0 8.97 8.969 8.97 8.97 0 0 0-8.97-8.969zm0 13.828a4.858 4.858 0 1 1 4.859-4.859 4.858 4.858 0 0 1-4.859 4.859z" class="cls-15" transform="translate(-237.294 -396.909)"/>
                            <path id="Path_12280" d="M333.838 396.909a8.97 8.97 0 1 0 8.969 8.969 8.969 8.969 0 0 0-8.969-8.969zm0 13.828a4.858 4.858 0 1 1 4.857-4.859 4.857 4.857 0 0 1-4.857 4.859z" class="cls-15" transform="translate(-221.061 -396.909)"/>
                        </g>
                        <path id="Path_12281" d="M351.275 314.275a693.1 693.1 0 0 1-104.825-4.634c-7.14-.959-12.911 3.926-12.912 11.092v1.712A15.425 15.425 0 0 0 246.45 337.3a693.1 693.1 0 0 0 104.825 4.634z" class="cls-16" transform="translate(-233.538 -150.092)"/>
                        <path id="Path_12282" d="M375.306 336.982c-21.729 2.717-43.267 4.522-65.143 5.463A9.393 9.393 0 0 1 300.5 333v-8.4a9.909 9.909 0 0 1 9.66-9.821c21.877-.94 43.414-2.747 65.143-5.464a8.1 8.1 0 0 1 9.583 8.207v8.4a11.508 11.508 0 0 1-9.58 11.06z" class="cls-15" transform="translate(-202.59 -150.229)"/>
                    </g>
                    <g id="Group_694">
                        <g id="Group_681" transform="translate(2.191 212.557)">
                            <g id="Group_680">
                                <g id="Group_676" transform="translate(2.415 135.577)">
                                    <path id="Path_12283" d="M276.726 423.161c-.064-4.885-1.064-14.662-6.814-27.272l-7.505-27.05-23.395 9.992 6.58 20.713s-20.112 9.6-27.537 12.186c-4.946 1.724-19.739 5.118-19.008 11.453a3.41 3.41 0 0 0 3.411 3.411h70.855a3.4 3.4 0 0 0 3.413-3.433z" class="cls-17" transform="translate(-199.021 -368.839)"/>
                                    <path id="Path_12284" d="M263.853 397.638c-3.655 2.68-23.15 6.091-18.261 2.193s0-9.992 0-9.992-20.112 9.6-27.537 12.186c-4.946 1.724-19.739 5.118-19.008 11.453a3.41 3.41 0 0 0 3.411 3.411h70.855a3.4 3.4 0 0 0 3.413-3.433 65.18 65.18 0 0 0-4.476-21.618c-4.03.049-4.742 3.12-8.397 5.8z" class="cls-2" transform="translate(-199.021 -359.134)"/>
                                </g>
                                <g id="Group_677" transform="translate(94.803 141.046)">
                                    <path id="Path_12285" d="M264.449 424.866h51.9a2.23 2.23 0 0 0 2.192-1.813c.8-4.128.616-13.352-4.068-25.6l-.459-24.871-26.588 4.518 3.375 21.2s-10.701 11.783-15.791 13.895c-3.575 1.481-11.694 1.639-12.785 10.184a2.231 2.231 0 0 0 2.224 2.487z" class="cls-17" transform="translate(-262.207 -372.579)"/>
                                    <path id="Path_12286" d="M305.715 397.847c-5.489 3.838-9.532 4.293-6.973-1.462s-7.941-5.942-7.941-5.942-10.706 11.779-15.791 13.89c-3.575 1.481-11.694 1.639-12.785 10.184a2.231 2.231 0 0 0 2.224 2.483h51.9a2.23 2.23 0 0 0 2.192-1.813c.8-4.128.616-13.352-4.068-25.6-4.002.977-3.273 4.424-8.758 8.26z" class="cls-2" transform="translate(-262.207 -364.718)"/>
                                </g>
                                <path id="Path_12287" d="M289.245 279.611s-5.226 5.362-26.617 8.773-65.742 14.135-65.255 31.681S238.8 431.188 238.8 431.188s20.47-3.9 29.974-9.748c0 0-16.477-66.772-28.831-84.318 0 0 55.461-6.822 86.133-19.495s12.639-41.512 12.639-41.512z" class="cls-14" transform="translate(-197.369 -276.115)"/>
                                <path id="Path_12288" d="M294.718 277.149s7.868 13.184 1.986 20.5-39.249 20.959-35.481 37.529 16.224 39.965 24.349 95.527c0 0 18.9-2.924 31.568-8.285 0 0 2.1-56.537-12.6-80.907 0 0 42.084-7.8 46.347-21.932s-3.714-35.747-3.867-43.461z" class="cls-14" transform="translate(-167.996 -276.115)"/>
                                <g id="Group_678" transform="translate(98.455 13.244)">
                                    <path id="Path_12289" d="M267.618 291.153a17.755 17.755 0 0 0-2.913.045" class="cls-18" transform="translate(-264.705 -282.427)"/>
                                    <path id="Path_12290" d="M267.963 285.173s8.643 2.543 12.034 13.806a.907.907 0 0 1-1.5.912 20.669 20.669 0 0 0-8.324-5.227" class="cls-18" transform="translate(-263.199 -285.173)"/>
                                </g>
                                <path id="Path_12291" d="M228.737 321.385c0-4.753-20.47-7.311-14.987-11.7s17.911 9.87 17.911 9.87" class="cls-18" transform="translate(-190.23 -260.986)"/>
                                <path id="Path_12292" d="M298.382 335.453c0-5.442-19.562-8.407-18.584-14.256s13.405 5.666 13.405 5.666" class="cls-18" transform="translate(-159.291 -256.046)"/>
                                <path id="Path_12293" d="M224.264 386.451l2.154 4.971a1.272 1.272 0 0 0 1.449.741c4.729-1.066 24.438-5.721 31.362-10.687a1.255 1.255 0 0 0 .464-1.32l-1.342-5.539a1.279 1.279 0 0 0-1.861-.82c-3.109 1.7-11.782 5.749-31.363 10.9a1.286 1.286 0 0 0-.863 1.754z" class="cls-16" transform="translate(-184.988 -231.044)"/>
                                <path id="Path_12294" d="M276.157 382.339a1 1 0 0 1 1.322-1.1 12.809 12.809 0 0 0 7.343.111c5.42-1.24 20.943-6.151 25.557-7.624a1.006 1.006 0 0 1 1.31.966v6.466a1 1 0 0 1-.592.921c-3.631 1.616-23.057 9.938-33.225 7.669a1 1 0 0 1-.762-.848z" class="cls-16" transform="translate(-160.962 -231.026)"/>
                                <g id="Group_679" transform="translate(97.044 8.539)">
                                    <path id="Path_12295" d="M297.526 287.041a10.154 10.154 0 0 1-2.123 5.553c-4.29 5.332-23.2 14.037-31.663 24.786" class="cls-19" transform="translate(-263.74 -279.604)"/>
                                    <path id="Path_12296" d="M286.225 281.955a25.643 25.643 0 0 1 .743 3.293" class="cls-19" transform="translate(-253.348 -281.955)"/>
                                </g>
                            </g>
                            <path id="Path_12297" d="M209.64 400.423a24.788 24.788 0 0 1 2.559 6.945H265a9.311 9.311 0 0 1 2.939-6.031" class="cls-20" transform="translate(-191.698 -218.665)"/>
                            <path id="Path_12298" d="M272.39 400.423s7.311.548 10.052 6.945h27.6a17.965 17.965 0 0 0 1.462-6.031" class="cls-20" transform="translate(-162.698 -218.665)"/>
                        </g>
                        <g id="Group_693" transform="translate(24.08)">
                            <g id="Group_684" transform="translate(0 68.633)">
                                <g id="Group_683">
                                    <path id="Path_12299" d="M256.863 242.407c.678 2.582 1.374 5.138 2.069 7.637 7.311 26.319 16.815 76.4 16.815 76.4 46.789 9.87 96.137 0 96.137 0 .269-10.918-1.06-25.317-2.541-40.443 7.673-2.123 13.206-9.206 13.507-20.969.366-14.256-2.218-39.923-3.655-51.907-1.265-10.545-.366-16.813-16.7-24.8-8.184-4.726-21.777-6.961-38.5-9.191-32.9-4.386-56.638 2.262-65.066 5.849-6.678-1.758-8.536 6.084-8.536 6.084-3.7-2.8-8 9.045-8 9.045-10.821 13.807-19.334 37.06-22.163 45.353a9.658 9.658 0 0 1-3.3 4.547c-7.678 5.854-3.411 13.091-3.411 13.091l15.718 4.818s7.615 1.981 13.433-8.033c4.87-8.388 12.823-22.588 14.193-17.481z" class="cls-6" transform="translate(-212.34 -177.682)"/>
                                    <g id="Group_682" clip-path="url(#clip-path)">
                                        <path id="Path_12300" d="M228.519 244.274s-.366-7.309-6.214-8.589 1.645-3.462 6.214-2.37 3.516-2.93 7.425-9.51 5.825-11.781 9.162-7.986 6.733 4.315 8.141 9.557-5.537 17.476-5.537 17.476l-10.911 8.46-5.539 3.109h-8.271l-2.826-7.151z" class="cls-22" transform="translate(-208.724 -160.65)"/>
                                    </g>
                                    <path id="Path_12302" d="M256.863 242.407c.678 2.582 1.374 5.138 2.069 7.637 7.311 26.319 16.815 76.4 16.815 76.4 46.789 9.87 96.137 0 96.137 0 .269-10.918-1.06-25.317-2.541-40.443 7.673-2.123 13.206-9.206 13.507-20.969.366-14.256-2.218-39.923-3.655-51.907-1.265-10.545-.366-16.813-16.7-24.8-8.184-4.726-21.777-6.961-38.5-9.191-32.9-4.386-56.638 2.262-65.066 5.849-6.678-1.758-8.536 6.084-8.536 6.084-3.7-2.8-8 9.045-8 9.045-10.821 13.807-19.334 37.06-22.163 45.353a9.658 9.658 0 0 1-3.3 4.547c-7.678 5.854-3.411 13.091-3.411 13.091l15.718 4.818s7.615 1.981 13.433-8.033c4.87-8.388 12.823-22.588 14.193-17.481z" class="cls-20" transform="translate(-212.34 -177.682)"/>
                                </g>
                                <path id="Path_12303" d="M354.11 290.68a264.175 264.175 0 0 0-1.383-28.133c1.594 22.258-44.771 29.224-46.232 17.16s45.074-29.47 19.754-23.387c-22.1 5.308-64.914.237-75.45-1.139 4.046 19.018 7.175 35.5 7.175 35.5 46.788 9.868 96.136-.001 96.136-.001z" class="cls-22" transform="translate(-194.566 -141.919)"/>
                                <path id="Path_12304" d="M314.879 202.923s-6.616 19.372-6.6 29.607-18.562 17.1-18.6 17.11c9.947-2.028 19.632-4.7 24.26-6.039a3.56 3.56 0 0 0 2.565-3.736 360.092 360.092 0 0 1-1.626-36.943z" class="cls-22" transform="translate(-176.595 -166.017)"/>
                            </g>
                            <path id="Path_12305" d="M240.592 199.587s-.224 13.936 4.876 26.743a1.276 1.276 0 0 1-1.915 1.528c-2.508-1.8-6.056-5.455-9.264-12.827" class="cls-23" transform="translate(-202.195 -98.926)"/>
                            <path id="Path_12306" d="M328.673 246.45c-3.857-12.789-10.533-15.995-15.708-16.318a.821.821 0 0 1-.377-1.535c3-1.627 8.864-2.91 16.085 5.059" class="cls-23" transform="translate(-166.204 -86.082)"/>
                            <path id="Path_12307" d="M274.117 216.072a2.2 2.2 0 1 1-2.2-2.2 2.2 2.2 0 0 1 2.2 2.2z" class="cls-24" transform="translate(-185.819 -92.323)"/>
                            <path id="Path_12308" d="M276.153 233.092a2.2 2.2 0 1 1-2.2-2.2 2.2 2.2 0 0 1 2.2 2.2z" class="cls-24" transform="translate(-184.878 -84.456)"/>
                            <path id="Path_12309" d="M281.176 274.114a2.2 2.2 0 1 1-2.2-2.2 2.2 2.2 0 0 1 2.2 2.2z" class="cls-16" transform="translate(-182.557 -65.498)"/>
                            <g id="Group_686" transform="translate(27.22 152.587)">
                                <path id="Path_12310" d="M252.554 243.908s-7.182 6.853-3.767 6.96 7.735-4.584 11.7-5.132-2.434-2.97-2.434-2.97z" class="cls-17" transform="translate(-223.141 -231.557)"/>
                                <g id="Group_685">
                                    <path id="Path_12311" d="M302.289 239.757a3.161 3.161 0 0 0-2.383-.794c-3.518.284-13.594 1.047-17.41.811-6.748-.415-26.642-4.629-26.642-4.629a3.033 3.033 0 0 0-1.383.079l-12.32 3.619a3.068 3.068 0 0 0-1.206.683l-7.456 6.853a2.993 2.993 0 0 0-.614.785L231.329 250a3.053 3.053 0 0 0 .541 3.641l12.339.386a3.059 3.059 0 0 0 2.084-.734l3.654-3.133a3.173 3.173 0 0 0 .619-.728c.9-1.445 4.344-6.281 9.8-5.815 0 0-11.686 6.214-9.492 8.773s11.149-4.752 14.073-4.021c2.861.716 3.119 7.9 19.034 5.306a4.968 4.968 0 0 1 2.126.1l14.475 4.047a3.344 3.344 0 0 0 4.141-2.4c1.087-4.238 2.077-11.556-2.434-15.665z" class="cls-17" transform="translate(-230.956 -235.1)"/>
                                    <path id="Path_12312" d="M254.679 236.922l-3.1.525a8.273 8.273 0 0 0-4.079 1.934l-3.227 2.823a8.3 8.3 0 0 0-1.48 1.7l-2.117 3.239a7.994 7.994 0 0 1-.782 1.006c-1.257 1.388-4.718 5.5-.98 4.954" class="cls-17" transform="translate(-228.06 -234.258)"/>
                                    <path id="Path_12313" d="M247.652 237.672l-3.209.869a6.172 6.172 0 0 0-2.661 1.5l-2.5 2.4a6.145 6.145 0 0 0-.654.738l-4.107 5.452s-2.2 3.862 0 3.93" class="cls-17" transform="translate(-229.761 -233.911)"/>
                                </g>
                            </g>
                            <path id="Path_12314" d="M318.509 200.8c-.54 12.988.542 28.661 1.534 40.046a3.563 3.563 0 0 1-2.566 3.736c-6.385 1.844-22.391 6.24-35.441 7.961" class="cls-20" transform="translate(-180.129 -98.365)"/>
                            <path id="Path_12315" d="M307.629 194.6c-.193 1.487-.35 3.051-.474 4.676" class="cls-23" transform="translate(-168.52 -101.231)"/>
                            <path id="Path_12316" d="M312.034 185.235c-1.676 1.443-2.911 4.116-3.8 7.631" class="cls-23" transform="translate(-168.02 -105.559)"/>
                            <path id="Path_12317" fill="#fff" d="M261.183 181.475s.914-2.924 5.849-4.569 22.008-4.278 30.8 0-8.042 27.508-8.042 27.508l-7.863 10.786-6.945 5.208-3.107-9.263-4.021-4.17s-8.681-7.128-7.95-14.165 1.279-11.335 1.279-11.335z" transform="translate(-190.377 -110.481)"/>
                            <g id="Group_688" transform="translate(67.28 62.864)">
                                <path id="Path_12318" d="M305.016 181.261c-1.371-4.809-7.644-6.157-7.644-6.157-29.974-5.118-36.311 5.778-36.311 5.778a44.133 44.133 0 0 0 0 30.651s8.53-3.531 9.992 0 4.142 11.09 4.142 11.09a33.718 33.718 0 0 0 10.479-9.016c4.629-6.093 15.519 0 15.519 0 6.992-12.184 3.823-32.346 3.823-32.346zm-7.248-.36c-11.607 36.44-21.842 38.067-21.842 38.067-3.411-13.4-6.336-10.478-10.966-18.852-3.715-6.719-2.458-15.237-1.816-18.343a2.544 2.544 0 0 1 1.32-1.759c11.517-5.863 25.611-3.705 31.423-2.423a2.578 2.578 0 0 1 1.881 3.309z" class="cls-6" transform="translate(-258.353 -173.737)"/>
                                <g id="Group_687" clip-path="url(#clip-path-2)">
                                    <path id="Path_12319" fill="#ff4d54" d="M305.016 181.261c-1.371-4.809-7.644-6.157-7.644-6.157-29.974-5.118-36.311 5.778-36.311 5.778a44.133 44.133 0 0 0 0 30.651s8.53-3.531 9.992 0 4.142 11.09 4.142 11.09a33.718 33.718 0 0 0 10.479-9.016c4.629-6.093 15.519 0 15.519 0 6.992-12.184 3.823-32.346 3.823-32.346zm-7.248-.36c-11.607 36.44-21.842 38.067-21.842 38.067-3.411-13.4-6.336-10.478-10.966-18.852-3.715-6.719-2.458-15.237-1.816-18.343a2.544 2.544 0 0 1 1.32-1.759c11.517-5.863 25.611-3.705 31.423-2.423a2.578 2.578 0 0 1 1.881 3.309z" opacity="0.4" transform="translate(-258.353 -173.737)"/>
                                </g>
                                <path id="Path_12321" d="M305.016 181.261c-1.371-4.809-7.644-6.157-7.644-6.157-29.974-5.118-36.311 5.778-36.311 5.778a44.133 44.133 0 0 0 0 30.651s8.53-3.531 9.992 0 4.142 11.09 4.142 11.09a33.718 33.718 0 0 0 10.479-9.016c4.629-6.093 15.519 0 15.519 0 6.992-12.184 3.823-32.346 3.823-32.346zm-7.248-.36c-11.607 36.44-21.842 38.067-21.842 38.067-3.411-13.4-6.336-10.478-10.966-18.852-3.715-6.719-2.458-15.237-1.816-18.343a2.544 2.544 0 0 1 1.32-1.759c11.517-5.863 25.611-3.705 31.423-2.423a2.578 2.578 0 0 1 1.881 3.309z" class="cls-2" transform="translate(-258.353 -173.737)"/>
                            </g>
                            <g id="Group_692" transform="translate(46.471)">
                                <path id="Path_12322" d="M261.817 140.8s-25.829 5.173-11.6 21.975c15.773 18.634 11.6-21.975 11.6-21.975z" class="cls-14" transform="translate(-243.283 -126.094)"/>
                                <path id="Path_12323" d="M250.342 184.128s-6.141-24.857 5.556-36.8 24.37-14.377 33.874-8.529 13.4 20.47 11.94 28.025-.75 34.6-13.778 45.814-21.048 8.447-29.663-6.824c-5.661-10.031-8.371-12.914-7.929-21.686z" class="cls-17" transform="translate(-241.992 -128.426)"/>
                                <path id="Path_12324" d="M297.745 181.572s-9.82-9.748-12.827-21.2-4.713-13.4-15.923-7.8-28.7-1.939-24.126-16.084c4.809-14.864 19.495 4.386 33.63-.487s24.159 3.9 24.18 16.815c0 0 8.542 8.286-.02 29.73z" class="cls-14" transform="translate(-244.122 -130.743)"/>
                                <path id="Path_12325" d="M278.689 168.322s2.483-13.626 9.394-12.363 1.971 21.368-6.16 19.175" class="cls-17" transform="translate(-228.147 -119.127)"/>
                                <path id="Path_12326" d="M256.849 167.547s-2.708 12.646-1.828 14.82 9.253.509 9.253.509" class="cls-17" transform="translate(-239.166 -113.733)"/>
                                <path id="Path_12327" d="M262.091 178.049s6.556-2.589 12.324 6.015" class="cls-17" transform="rotate(-14.98 -244.833 1028.08)"/>
                                <path id="Path_12328" d="M253.888 168.873c.246 1.177-.063 2.237-.687 2.367s-1.328-.721-1.573-1.9.063-2.239.687-2.369 1.329.729 1.573 1.902z" class="cls-28" transform="translate(-240.692 -114.004)"/>
                                <path id="Path_12329" d="M264.855 167.991c.244 1.178-.063 2.239-.687 2.369s-1.328-.721-1.573-1.9.063-2.239.687-2.369 1.329.722 1.573 1.9z" class="cls-28" transform="translate(-235.624 -114.412)"/>
                                <path id="Path_12330" d="M260.539 169.072c.33 3.312-3 6.357-7.437 6.8s-8.3-1.882-8.634-5.194 3.155-4.774 7.593-5.218 8.147.299 8.478 3.612z" class="cls-20" transform="translate(-243.972 -114.751)"/>
                                <path id="Path_12331" d="M274.69 167.657c.332 3.312-3 6.357-7.435 6.8s-8.305-1.882-8.635-5.194 3.157-4.774 7.594-5.217 8.146.299 8.476 3.611z" class="cls-20" transform="translate(-237.432 -115.405)"/>
                                <path id="Line_389" d="M0 0.462L4.621 0" class="cls-17" transform="translate(16.567 53.859)"/>
                                <path id="Line_390" d="M0 10.023L16.998 0" class="cls-17" transform="translate(36.691 40.57)"/>
                                <path id="Line_391" d="M0 0L0.802 1.947" class="cls-17" transform="translate(56.604 66.184)"/>
                                <path id="Path_12332" d="M248.9 164.915s2.587-3.3 5.765-1.708" class="cls-17" transform="translate(-241.914 -115.939)"/>
                                <path id="Path_12333" d="M269.838 163.983s-4.549-4.335-8.925-1.3" class="cls-17" transform="translate(-236.362 -116.479)"/>
                                <g id="Group_689" transform="translate(6.739 5.197)">
                                    <path id="Path_12334" d="M252.827 135.795c6.913 2.2 18.556 4.884 28.068 2.013 14.538-4.386 9.6 11.984 12.893 16.5" class="cls-19" transform="translate(-246.838 -133.605)"/>
                                    <path id="Path_12335" d="M248.731 134.3s1.161.512 3.128 1.221" class="cls-19" transform="translate(-248.731 -134.297)"/>
                                </g>
                                <g id="Group_690" transform="translate(8.35 13.604)">
                                    <path id="Path_12336" d="M260.677 141.632c.776-.238 1.586-.513 2.433-.831" class="cls-19" transform="translate(-244.821 -139.699)"/>
                                    <path id="Path_12337" d="M249.833 140.047s3.09 4.79 13.075 2.658" class="cls-19" transform="translate(-249.833 -140.047)"/>
                                </g>
                                <g id="Group_691" transform="translate(45.094 17.808)">
                                    <path id="Path_12338" d="M275.226 146.46a35.431 35.431 0 0 0 6.2 15.663" class="cls-19" transform="translate(-274.841 -141.287)"/>
                                    <path id="Path_12339" d="M274.968 142.922a25.255 25.255 0 0 0 .091 2.616" class="cls-19" transform="translate(-274.963 -142.922)"/>
                                </g>
                            </g>
                            <path id="Path_12340" d="M284.048 252.731a1.706 1.706 0 0 0 1.086 3c9.874.047 36.512.111 46.843-.478 12.794-.731 3.028-14.652-7.26-9.337-9.48 4.902-29.423-3.254-40.669 6.815z" class="cls-22" transform="translate(-179.473 -78.071)"/>
                        </g>
                        <path id="Path_12341" d="M207.711 245.141s5.976-15.923 20.976-13.395c15.152 2.554 3.536 15.087-3.676 16.207 0 0-1.095-4.372-17.3-2.812z" class="cls-17" transform="translate(-190.399 -84.189)"/>
                        <path id="Path_12342" d="M200.48 251.439c-1.98 1.98-6.727 2.149-3.534-2.139 3.534-4.745 7.517-6.336 10.237-7.549 7.115-3.176 9.889-2.54 16.326-3.951s7.641 1.208 9.87 2.429c5.3 2.908 6.58 3.413 7.921 6.337s2.8 6.729-1.341 6.729c-3.777 0-4.021-6.242-7.676-6s-5.483 6-8.042 6h-.975c-2.193 0-2.312-1.822-.969-4.691s2.8-5.451 2.8-5.451a11.231 11.231 0 0 0-4.935 5.179c-1.755 3.731-2.079 5.3-5.3 5.3s-3-2.4.206-7.689a12.417 12.417 0 0 0-4.471 4.575c-1.581 2.989-2.4 2.772-4.476 2.772-2.709 0-2.527-4.476 2.287-7.4-.008.005-1.075-1.304-7.928 5.549z" class="cls-17" transform="translate(-195.871 -81.453)"/>
                        <path id="Path_12343" fill="#fff" stroke="#263238" stroke-linecap="round" stroke-linejoin="round" stroke-width="0.75px" d="M212.852 239.688s-1.892-.092-3.079 3.107" transform="translate(-189.446 -80.393)"/>
                    </g>
                </g>
            </g>
            <g id="Code" transform="translate(109.16 78.239)">
                <g id="Group_697" transform="translate(30.985 34.786)">
                    <g id="Group_696" transform="translate(40.005)">
                        <path id="Path_12344" d="M376.2 145.537a301.678 301.678 0 0 1 26.915 23.892" class="cls-30" transform="translate(-20.603 -81.923)"/>
                        <path id="Path_12345" d="M369.22 140.29q2.68 1.926 5.328 3.922" class="cls-30" transform="translate(-23.828 -84.348)"/>
                        <path id="Path_12346" d="M362.251 135.5q2.75 1.807 5.468 3.685" class="cls-30" transform="translate(-27.049 -86.563)"/>
                        <path id="Path_12347" d="M311.093 111.295a296.673 296.673 0 0 1 68.863 31.581" class="cls-30" transform="translate(-50.692 -97.748)"/>
                        <path id="Path_12348" d="M300.168 108.221q4.441 1.119 8.855 2.373" class="cls-30" transform="translate(-55.741 -99.169)"/>
                        <path id="Path_12349" d="M288.935 105.729q4.818.928 9.614 2.015" class="cls-30" transform="translate(-60.932 -100.32)"/>
                        <path id="Path_12350" d="M278.922 104.058q4.158.588 8.3 1.294" class="cls-30" transform="translate(-65.56 -101.093)"/>
                        <path id="Path_12351" d="M218.609 105.583a300.533 300.533 0 0 1 81.884-1.412" class="cls-30" transform="translate(-93.434 -102.03)"/>
                        <path id="Path_12352" d="M210.358 106.351q3.733-.737 7.48-1.379" class="cls-30" transform="translate(-97.247 -100.67)"/>
                        <path id="Path_12353" d="M202.354 108.2q3.735-.895 7.488-1.69" class="cls-30" transform="translate(-100.946 -99.961)"/>
                        <path id="Path_12354" d="M192.509 110.952q3.81-1.116 7.644-2.127" class="cls-30" transform="translate(-105.496 -98.889)"/>
                        <path id="Path_12355" d="M133 151.324a296.624 296.624 0 0 1 78.954-39.344" class="cls-30" transform="translate(-132.999 -97.431)"/>
                    </g>
                    <path id="Path_12356" d="M124.96 146.473q3.43-2.667 6.92-5.217" class="cls-30" transform="translate(-96.71 -83.901)"/>
                    <path id="Path_12357" d="M116.9 153.425q3.759-3.242 7.6-6.336" class="cls-30" transform="translate(-100.436 -81.206)"/>
                    <path id="Path_12358" d="M105.639 165.034q5.145-5.145 10.475-9.988" class="cls-30" transform="translate(-105.639 -77.528)"/>
                </g>
                <g id="Group_701" transform="translate(65.137 25.062)">
                    <g id="Group_700">
                        <g id="Group_699">
                            <circle id="Ellipse_944" cx="36.375" cy="36.375" r="36.375" class="cls-6" transform="rotate(-76.594 44.808 35.383)"/>
                            <g id="Group_698" clip-path="url(#clip-path-3)">
                                <circle id="Ellipse_945" cx="36.375" cy="36.375" r="36.375" class="cls-12" transform="rotate(-76.594 44.808 35.383)"/>
                            </g>
                            <circle id="Ellipse_947" cx="36.375" cy="36.375" r="36.375" class="cls-3" transform="rotate(-76.594 44.808 35.383)"/>
                        </g>
                    </g>
                </g>
                <g id="Group_702" transform="translate(0 115.323)">
                    <rect id="Rectangle_294" width="55.955" height="55.955" class="cls-3" rx="11.958"/>
                </g>
                <g id="Group_703" transform="translate(421.123 114.976)">
                    <rect id="Rectangle_295" width="55.955" height="55.955" class="cls-3" rx="11.958"/>
                </g>
                <g id="Group_706" transform="translate(329.719 23.347)">
                    <g id="Group_705">
                        <circle id="Ellipse_948" cx="31.048" cy="31.048" r="31.048" class="cls-6" transform="rotate(-76.839 38.117 30.233)"/>
                        <g id="Group_704" clip-path="url(#clip-path-4)">
                            <path id="Path_12381" fill="none" d="M31.048 0A31.048 31.048 0 1 1 0 31.048 31.048 31.048 0 0 1 31.048 0z" opacity="0.2" transform="rotate(-76.839 38.117 30.233)"/>
                        </g>
                        <circle id="Ellipse_951" cx="31.048" cy="31.048" r="31.048" class="cls-3" transform="rotate(-76.839 38.117 30.233)"/>
                    </g>
                </g>
                <g id="Group_707" transform="translate(200.072)">
                    <rect id="Rectangle_296" width="67.823" height="67.823" class="cls-3" rx="13.6"/>
                </g>
                <path id="Path_12359" d="M258.622 106.48H252.7a3.935 3.935 0 1 1 0-7.871h5.919" class="cls-34" transform="translate(-8.506 -68.825)"/>
                <path id="Path_12360" d="M252.061 101.239h-.461" class="cls-34" transform="translate(-7.194 -67.609)"/>
                <path id="Path_12361" d="M244.041 92.6h12.637a7.672 7.672 0 0 1 7.673 7.672v10.494a7.672 7.672 0 0 1-7.673 7.673h-12.637a7.673 7.673 0 0 1-7.673-7.673v-10.498a7.673 7.673 0 0 1 7.673-7.668z" class="cls-34" transform="translate(-14.236 -71.604)"/>
                <path id="Path_12362" d="M240.9 97.134h7.9" class="cls-34" transform="translate(-12.14 -69.507)"/>
                <g id="Group_709" transform="translate(14.754 128.803)">
                    <path id="Path_12365" d="M101.664 192.337h12.206c4.484 0 7.923-1.619 6.947-8.137l-1.138-8.833c-.6-3.252-2.677-4.5-4.5-4.5H100.3c-1.847 0-3.8 1.339-4.5 4.5l-1.135 8.833c-.829 5.782 2.516 8.137 6.999 8.137z" class="cls-35" transform="translate(-94.538 -164.232)"/>
                    <path id="Path_12366" d="M99.275 172.648a6.318 6.318 0 0 1 6.317-6.318 6.318 6.318 0 0 1 6.344 6.318" class="cls-35" transform="translate(-92.349 -166.33)"/>
                    <path id="Path_12367" d="M100.63 175.154h.067" class="cls-35" transform="translate(-91.723 -162.252)"/>
                    <path id="Path_12368" d="M106.46 175.154h.067" class="cls-35" transform="translate(-89.029 -162.252)"/>
                </g>
            </g>
            <g id="Desk" transform="translate(130.116 264.566)">
                <g id="Group_713" transform="translate(0 68.082)">
                    <path id="Path_12369" d="M143.4 476.561h-5.418l-1.462-215.31h6.88z" class="cls-15" transform="translate(-81.337 -248.068)"/>
                    <path id="Path_12370" d="M146.645 476.561h-5.418v-215.31h6.88z" class="cls-16" transform="translate(-79.162 -248.068)"/>
                    <path id="Rectangle_297" d="M0 0H371.69V13.183H0z" class="cls-14"/>
                    <path id="Rectangle_298" d="M0 0H83.225V13.183H0z" class="cls-15" transform="translate(366.145)"/>
                    <path id="Rectangle_299" d="M0 0H369.521V21.734H0z" class="cls-4" transform="translate(19.037 13.183)"/>
                    <g id="Group_711" transform="translate(388.557 13.183)">
                        <path id="Rectangle_300" d="M0 0H43.028V21.734H0z" class="cls-6" transform="rotate(180 21.514 10.867)"/>
                        <g id="Group_710" clip-path="url(#clip-path-5)">
                            <path id="Rectangle_301" d="M0 0H43.028V21.734H0z" class="cls-12" transform="rotate(180 21.514 10.867)"/>
                        </g>
                        <path id="Rectangle_303" d="M0 0H43.028V21.734H0z" class="cls-4" transform="rotate(180 21.514 10.867)"/>
                    </g>
                    <path id="Path_12371" d="M366.7 476.561h-5.418l-1.462-215.31h6.88z" class="cls-15" transform="translate(21.861 -248.068)"/>
                    <path id="Path_12372" d="M369.94 476.561h-5.418v-215.31h6.88z" class="cls-16" transform="translate(24.035 -248.068)"/>
                    <path id="Path_12373" d="M113.974 476.561h-5.418l-1.462-215.31h6.88z" class="cls-15" transform="translate(-94.937 -248.068)"/>
                    <path id="Path_12374" d="M117.217 476.561H111.8v-215.31h6.881z" class="cls-16" transform="translate(-92.762 -248.068)"/>
                    <g id="Group_712" transform="translate(424.705 13.183)">
                        <path id="Path_12375" d="M396.124 476.561h-5.418l-1.462-215.31h6.88z" class="cls-15" transform="translate(-389.244 -261.251)"/>
                        <path id="Path_12376" d="M399.368 476.561h-5.418v-215.31h6.881z" class="cls-16" transform="translate(-387.069 -261.251)"/>
                    </g>
                </g>
                <g id="Group_715" transform="translate(80.453)">
                    <g id="Group_714">
                        <path id="Path_12377" d="M277.331 252.882h-43.563a1.613 1.613 0 0 1-1.613-1.613v-3.6l46.789 1.462v2.135a1.613 1.613 0 0 1-1.613 1.616z" class="cls-15" transform="translate(-117.592 -186.261)"/>
                        <path id="Path_12378" d="M263.509 272.292h-87.576a3.489 3.489 0 0 1-3.2-2.43l-18.8-61.03a2.312 2.312 0 0 1 2.214-3.16h87.574a3.489 3.489 0 0 1 3.2 2.43l18.8 61.03a2.313 2.313 0 0 1-2.212 3.16z" class="cls-16" transform="translate(-153.803 -205.672)"/>
                        <path id="Path_12379" d="M241.235 269.133l-18.8-61.03a3.489 3.489 0 0 0-3.2-2.43H215.3a3.489 3.489 0 0 1 3.2 2.43l18.8 61.03a2.313 2.313 0 0 1-2.214 3.16h3.935a2.313 2.313 0 0 0 2.214-3.16z" class="cls-15" transform="translate(-125.381 -205.672)"/>
                    </g>
                    <path id="Path_12380" d="M199.263 230.166a4.691 4.691 0 0 1-4.752 5.416 6.3 6.3 0 0 1-6.083-5.416 4.692 4.692 0 0 1 4.752-5.417 6.3 6.3 0 0 1 6.083 5.417z" class="cls-17" transform="translate(-137.82 -196.855)"/>
                </g>
            </g>
        </g>
        <g id="Close_Square" transform="translate(1250.249 620.25)">
            <path id="Path_12382" d="M16.6 9.595l-7 6.994" class="cls-35" transform="translate(3.149 3.145)"/>
            <path id="Path_12383" d="M16.6 16.594l-7-7" class="cls-35" transform="translate(3.148 3.144)"/>
            <path id="Path_12384" fill="none" fill-rule="evenodd" stroke="#fff" stroke-linecap="round" stroke-linejoin="round" stroke-width="1.5px" d="M22.576 2.75H9.924c-4.409 0-7.173 3.122-7.173 7.54v11.921c0 4.418 2.751 7.54 7.173 7.54h12.651c4.424 0 7.176-3.122 7.176-7.54V10.29c0-4.418-2.751-7.54-7.175-7.54z"/>
        </g>
    </g>
</svg>
