<svg xmlns="http://www.w3.org/2000/svg" width="549.797" height="573.308" viewBox="0 0 549.797 573.308">
    <defs>
        <style>
            .cls-5{fill:#0c6}.cls-2{opacity:.1}.cls-10,.cls-3{fill:#fff}.cls-4,.cls-9{fill:none}.cls-10,.cls-4,.cls-9{stroke:#263238;stroke-linecap:round;stroke-linejoin:round}.cls-6{fill:#263238}.cls-9{stroke-dasharray:4 4}
        </style>
    </defs>
    <g id="Group_378" transform="translate(-42.196 -40.074)">
        <g id="Background_Simple" transform="translate(42.196 40.075)">
            <g id="Group_366">
                <path id="Path_599" fill="#0c6" d="M416.855 40.091c-48.644.838-86.161 40.619-127.8 65.781-62.895 38.006-143.658 45.721-196.77 96.506C55.921 237.15 37.937 289.549 43.052 339.6s32.566 96.974 72.321 127.813c25.348 19.663 55.1 32.918 85.462 43.284 30.769 10.506 62.8 18.279 95.313 18.689 45.061.568 89.324-13.057 130.085-32.278 28.346-13.367 55.672-29.7 77.966-51.729 21.064-20.811 37.213-46.366 48.275-73.831 27.345-67.889 22.992-145.686-.71-214.932-19.606-57.274-67.55-117.687-134.909-116.525z" opacity="0.27" transform="translate(-42.196 -40.075)"/>
            </g>
        </g>
        <g id="Wallet" transform="translate(68.538 201.8)">
            <g id="Group_372">
                <path id="Path_601" d="M438.251 277.963c-.349-9.956-1-20.573-2.068-31.559-1.439-21.928-4.191-42.422-9.179-55.3h-.022c-27.4-5.613-169.95 4.787-170.051 4.8l-.9-3.961c-.115-.526-.237-1.052-.357-1.577l-.624-2.761-.181-.629c-.923-3.724-1.963-7.421-3.187-11.077s-108.06-9.65-143.9-.292v.007c.005.315.007.619.013.932l.106 8.85c.1 17.117-.292 33.165.595 50.806v.123h-.015a3.532 3.532 0 0 0-.525.057 7.559 7.559 0 0 0-6.16 5.008 7.557 7.557 0 0 0-.391 3.2l.515 5.5c.008.089.012.172.02.263 1.322 14.035 2.617 27.94 2.617 27.94h.016c.045.022.677.066 1.8.126l5.934.414c-12.634 1.152-26.4 17.827-25.825 32.167s-13.214 41.35-9.767 56.862c2.691 12.111 16.237 31.573 22.869 46.363q-.238 1.362-.522 2.935l-29.593 59.406c1.979-2.909 19.789 74.671 102.694 58.244l58.959-96.057a114.115 114.115 0 0 0 17.954-16.878 29.211 29.211 0 0 0 5.559-7.69v-.007a41.142 41.142 0 0 0 4.777-10.838q.392-1.491.823-3.005c4.812-12.251 11.241-28.974 15.945-40.558 62.076-1.838 127.335-5.632 160.093-13.342l.073-.011c3.164-21.533 3.234-45.71 1.905-68.461zM119.229 332.24a93.405 93.405 0 0 1-.916-10.8q1.086 5.706 2.345 11.406c-.472-.215-.946-.428-1.429-.606z" class="cls-2" transform="translate(-59.765 -159.521)"/>
                <g id="Group_371">
                    <g id="Group_367" transform="translate(0 99.392)">
                        <path id="Path_602" d="M64.361 451.507s26.539 78.456 109.445 62.029c0 0 18.392-86.362 33.808-99.075 9.944-8.2 31.9-22.9 36.587-33.535 4.781-10.844 23.54-61.168 27.191-67.252s-39.546-76.033-39.546-76.033l-90.983 46.943-50.626 89.927s-9.711 58.061-25.876 76.996z" class="cls-3" transform="translate(-61.408 -237.64)"/>
                        <path id="Path_603" d="M90.07 346.429s-6.494 48.519-27.943 73.871" class="cls-4" transform="translate(-62.127 -202.645)"/>
                        <path id="Path_604" d="M147.169 492.122s18.3-83.563 33.808-99.075c0 0 35.047-20.389 41.367-44.379 4.376-16.613 12.331-35.764 16.134-44.457" class="cls-4" transform="translate(-34.771 -216.226)"/>
                        <path id="Path_605" d="M152.767 306.215c-1.357-.842 21.206 17.237 22.083 41.816" class="cls-4" transform="translate(-32.989 -215.59)"/>
                    </g>
                    <path id="Path_606" d="M419.342 337.35c-73.062 17.235-308.373 14.922-308.373 14.922-1.983-4.176-4.375-14.7-6.688-26.883-4.626-24.464-8.948-55.643-8.948-55.643l-7.785-.542s-1.3-13.9-2.617-27.94 6.556-14.023 6.556-14.023l-.568-48.585-.145-12.133c35.844-9.357 143.9.291 143.9.291l3.37 11.71 1.877 8.3L410 182.026c15.62 40.325 9.342 155.324 9.342 155.324z" class="cls-5" transform="translate(-54.839 -162.438)"/>
                    <g id="Group_368" transform="translate(215.477 57.199)">
                        <path id="Rectangle_158" d="M6.294 0h115.592a6.294 6.294 0 0 1 6.294 6.294V33a6.293 6.293 0 0 1-6.293 6.293H6.293A6.293 6.293 0 0 1 0 33V6.294A6.294 6.294 0 0 1 6.294 0z" class="cls-6" transform="rotate(-2.748 128.12 3.073)"/>
                        <path id="Path_607" d="M354.744 246.54l.348 3.766-128.437 4.974-.107-3.382z" class="cls-6" transform="translate(-224.714 -192.584)"/>
                        <path id="Path_608" d="M355.283 256.451l.107 3.382-128.428 4.75-.107-3.382z" class="cls-6" transform="translate(-224.616 -189.396)"/>
                    </g>
                    <path id="Path_609" d="M372.242 177.669s18.958 89.875 9.344 155.323c0 0-119.847 14.055-160.884 11.788l-1.684-21.872 3.434-.534s-16.58-124.84-20.289-139.915c.001 0 142.722-10.417 170.079-4.79z" opacity="0.3" transform="translate(-17.081 -158.076)"/>
                    <path id="Path_610" fill="#fff" d="M244.529 286.907l1.435 16.535s-120.81 5.283-131.429 1.449.565-9.991 28.665-12.191 101.329-5.793 101.329-5.793z" opacity="0.8" transform="translate(-46.54 -122.4)"/>
                    <ellipse id="Ellipse_36" cx="11.041" cy="9.988" class="cls-6" rx="11.041" ry="9.988" transform="translate(114.825 74.406)"/>
                    <path id="Path_611" d="M92.765 265.247a428.128 428.128 0 0 0 15.635 82.536c51.24-.437 102.469-1.014 153.69-2.651s103.876-5.092 154.689-12.269c0 0 9.1-80.3-9.344-155.323-20.375-4.24-169.51 4.774-169.51 4.774" class="cls-4" transform="translate(-52.272 -157.946)"/>
                    <path id="Path_612" d="M251.371 326.819l1.435 16.535-114.939 2.651c-4.746.4-12.129 1.027-16.489-1.2-1.992-1.019-3.419-3.508-2.482-5.539.845-1.828 3.077-2.47 5.05-2.876 14.067-2.889 28.416-4.112 42.736-5.17q45.972-3.4 92.072-4.607c-.636.017-8.14-61.84-8.97-67.544-3.253-22.343-6.347-44.768-10.359-66.989a180.71 180.71 0 0 0-6.2-25.387c-47.366-3.385-96.831-6.521-143.908-.288.428 20.978-.344 39.7.719 60.71" class="cls-4" transform="translate(-53.381 -162.312)"/>
                    <path id="Path_613" d="M107.717 343.742s-5.949-15.54 21.627-18.607 89.464-8.711 121.854-9.586c-6.53-47.6-13.813-94.777-22.285-142.069 0 0-88.807-6.8-139.491-2.423" class="cls-9" transform="translate(-53.347 -160.138)"/>
                    <path id="Path_614" d="M87.658 254.086l-3.157-33.7a7.567 7.567 0 0 1 7.093-8.264c19.426-1.122 69.679-3.76 88.967-2.216 9.262.741 19.306 3.709 23.819 12.565 3.718 7.3 4.281 18.244-1.98 24.243-9.517 9.118-27.561 8.416-39.835 8.85-22.858.806-74.889-1.284-74.907-1.478z" class="cls-4" transform="translate(-54.941 -147.322)"/>
                    <path id="Path_615" d="M204.472 227.64c.038-.941 4.8 19.359-12.775 26.055s-98.931 4.594-98.931 4.594v-9.513s57.559 1.207 67.131.941 43.537 2.929 44.575-22.077z" class="cls-6" transform="translate(-52.272 -141.475)"/>
                    <path id="Path_616" d="M164.489 313.432s14.375 8.422 19.764 24.233" class="cls-4" transform="translate(-29.2 -113.868)"/>
                    <path id="Path_617" d="M84.788 215.98s70.527-3.316 88.47-2.719S200 217.8 201.791 229.053s-9.093 18.305-17.766 19.5-96.47 1.709-96.47 1.709" class="cls-9" transform="translate(-54.838 -146.113)"/>
                    <g id="Group_370" transform="translate(4.319 84.394)">
                        <g id="Group_369">
                            <path id="Path_618" d="M139.488 346.811s-10.916-37.919-31.024-45.388c0 0-4.022-25.878 4.6-27.3s32.748-17.366 26.428-37.259-25.278 9.983-37.919 11.131-26.428 17.841-25.853 32.189-13.214 41.35-9.767 56.862 24.7 43.089 26.428 57.453" class="cls-10" transform="translate(-65.395 -225.084)"/>
                            <path id="Path_619" d="M101.446 243.36s15.132 2.749 23.362-6.848-1.246-10.22-1.246-10.22z" class="cls-10" transform="translate(-53.798 -226.292)"/>
                        </g>
                        <path id="Path_620" d="M81 255.411a16.554 16.554 0 0 1 7.777 2.551" class="cls-4" transform="translate(-60.376 -216.925)"/>
                        <path id="Path_621" d="M80.651 259.57a14.543 14.543 0 0 1 7.557 2.992" class="cls-4" transform="translate(-60.487 -215.587)"/>
                    </g>
                    <path id="Path_622" d="M111.555 298.624s64.8-3.344 81.821-2.372" class="cls-4" transform="translate(-46.227 -119.451)"/>
                    <path id="Path_623" d="M161.532 292.609s16.3-1.267 26.452 0" class="cls-4" transform="translate(-30.151 -120.747)"/>
                    <path id="Line_214" d="M0 0L26.377 0" class="cls-4" transform="translate(172.664 176.624)"/>
                    <path id="Path_624" d="M204.836 188.009s115.818-10.339 162.356-4.436c0 0 12.555 23.088 9.829 141.443 0 0-75.329 10.383-157.655 11.722" class="cls-9" transform="translate(-16.221 -156.226)"/>
                </g>
            </g>
        </g>
        <g id="Card" transform="translate(277.386 114.09)">
            <g id="Group_377">
                <g id="Group_373" opacity="0.1" transform="translate(0 11.742)">
                    <path id="Path_625" d="M513.439 376.469c-3.29-13.994-8.114-19.257-12.943-23.3 0 0-.112-7.958-6.312-12.453a42.424 42.424 0 0 0-5.33-3.944c-5.821-4.363-12.235-9.3-12.236-9.3-3.013-8.723-7.093-19.282-11.5-29.673l.221 2.363c-4.516-11.033-8.946-22.024-10.191-25.667l-.026-.075c1.287 3.512 2.655 6.9 4.1 10.041l-16.559-58.485c-.394-2.354-.8-4.671-1.213-6.9-.784-6.578-2.951-19.064-8.144-19.937a2.723 2.723 0 0 0-.579-.058s-6.114-2.654-6.114 8.209c-7.284 2.427-10.1 7.867-10.806 14.394a19.607 19.607 0 0 0-.123 6.207c.126 2.391.41 4.836.769 7.269l-23.343-30.735-2.277-3-28.912-38.067-38.9-51.206a18.207 18.207 0 0 0-25.511-3.485l-48.221 36.649-18.842 14.307C216 167.146 219.768 182 223.772 187.274l84.147 110.772a8.643 8.643 0 0 0-1.3-.063s-2.407-5.678-8.354-4.771a6.794 6.794 0 0 0-3.545 1.174 6.292 6.292 0 0 0-2.358 2.152 18.32 18.32 0 0 0-1.771 2.531c-3.036 5.188-.234 17.86 4.143 33.345.278 1 .552 1.963.818 2.868l.042.144q.551 1.911 1.123 3.866c4.284 14.861 12.3 44.029 13.772 58.324q.159 2.078.2 4.058c.1 16.468-7.216 44.046-4.075 55.428.414 1.5.83 2.931 1.261 4.339 2.337 7.614 4.429 14.813 8.1 21.973 4.469 8.714 9.795 17.084 14.772 25.528q13.723 23.287 28.395 45.994c4.5 6.961 9.776 13.3 14.879 19.856 2.331 3 7.441 7.51 8.328 11.355 0 0 45.238 3.74 70.567-12.347l-2.387-36 16.98-97.614c4.851-7.352 19.772-21.739 22.824-26.288q2.3-3.392 4.51-6.7c11.175-10.421 16.769-18.558 19.22-27.9 0-.005-.174-1.072-.624-2.829zm-158.424 19.1l-.011-.025.013.032zm1.807 2.227l-.218-.432a53.05 53.05 0 0 0 14.516 4.236c-5.25-.614-11.209-1.453-14.298-3.8zm19.057 4.369h-.005q1.186.1 2.432.164a16.624 16.624 0 0 1-2.427-.163zM356.32 396.8l-3.033-6.029c-4.237-12.136-13.79-40.734-13.83-40.852v-.008A163.322 163.322 0 0 0 332 325.789a14.407 14.407 0 0 0 13.5-2.12l23.127-17.569c2.388 1.439 4.839 2.732 7.234 3.874l21.654 16.936-17.177 70.618zm87.689-162.65c1.787 8.443 4.639 20.573 8.4 32.324a211.945 211.945 0 0 1-8.4-32.324z" transform="translate(-220.145 -104.96)"/>
                    <path id="Path_626" d="M315.248 459.453l.141.625s-.048-.227-.141-.625z" transform="translate(-189.552 9.072)"/>
                </g>
                <g id="Group_376" transform="translate(15.09)">
                    <g id="Group_374" transform="translate(138.199 120.252)">
                        <path id="Path_627" d="M388.85 210.337c1.373-.878 20.7-11.419 30.363 20.2s21.087 85.454 21.087 85.454l-23.048 4.509s-21.352-11.361-40.492-39.824c0 0-26.83-6.953-38.512-23.477-10.616-15.017 22.052-70.139 22.052-70.139z" class="cls-3" transform="translate(-336.125 -187.06)"/>
                        <path id="Path_628" d="M369.728 234.453c5.714 8.566 16.526 26.579 31.116 32.255" class="cls-4" transform="translate(-325.316 -171.815)"/>
                        <path id="Path_629" d="M357.507 241.424c2.7 1.068 9.314 4.866 12.375 5.01 0 0 13.465 26.663 35.705 35.315" class="cls-4" transform="translate(-329.248 -169.572)"/>
                        <path id="Path_630" d="M348.159 248.849c8.268 6.915 18.1 11.637 24.73 11.951 0 0 13.465 26.663 35.705 35.315" class="cls-4" transform="translate(-332.255 -167.184)"/>
                    </g>
                    <g id="Group_375">
                        <rect id="Rectangle_159" width="120.64" height="196.674" class="cls-6" rx="10.917" transform="rotate(-37.222 108.352 36.488)"/>
                        <path id="Path_631" d="M431 258.014l-67.065 50.956a18.192 18.192 0 0 1-25.512-3.484l-96.942-127.623a18.208 18.208 0 0 1 3.485-25.494l18.842-14.307 48.22-36.649a18.209 18.209 0 0 1 25.512 3.487l38.9 51.207 28.913 38.066 29.13 38.351a18.184 18.184 0 0 1-3.483 25.49z" class="cls-5" transform="translate(-229.564 -95.552)"/>
                        <path id="Path_632" d="M370.1 156.1l-112.629-18.038 48.22-36.649A18.209 18.209 0 0 1 331.2 104.9z" class="cls-2" transform="translate(-223.227 -95.552)"/>
                        <path id="Path_633" d="M430.886 240.205l-67.062 50.956a18.192 18.192 0 0 1-25.512-3.484l-96.943-127.624a18.057 18.057 0 0 1-3.251-6.986l169.4 26.292 26.852 35.352a18.184 18.184 0 0 1-3.484 25.494z" class="cls-2" transform="translate(-229.453 -77.743)"/>
                        <rect id="Rectangle_160" width="25.652" height="34.484" class="cls-10" rx="4.075" transform="rotate(-37.222 84.076 -97.167)"/>
                        <path id="Line_215" d="M0 0L20.443 27.776" class="cls-10" transform="translate(86.374 23.111)"/>
                        <path id="Line_216" d="M0 15.495L20.443 0" class="cls-10" transform="translate(86.374 29.353)"/>
                        <path id="Path_634" d="M338.079 264.908l-3.485 2.568-42.569-56.041 3.451-2.618z" class="cls-6" transform="translate(-212.112 -59.81)"/>
                        <path id="Path_635" d="M342.557 261.619l-3.485 2.584-42.619-56.125 3.435-2.618z" class="cls-6" transform="translate(-210.688 -60.889)"/>
                        <path id="Path_636" d="M347.039 258.346l-3.485 2.568-42.685-56.191 3.451-2.618z" class="cls-6" transform="translate(-209.267 -61.969)"/>
                        <path id="Path_637" d="M351.367 254.862l-3.485 2.568-42.119-55.458 3.435-2.618z" class="cls-6" transform="translate(-207.693 -62.854)"/>
                        <path id="Path_638" d="M356.2 251.325l-3.485 2.568-42.185-55.541 3.452-2.618z" class="cls-6" transform="translate(-206.159 -64.018)"/>
                        <path id="Path_639" d="M356.2 201.879l-3.485 2.568-42.185-55.541 3.452-2.618z" class="cls-6" transform="translate(-206.159 -79.924)"/>
                        <path id="Rectangle_161" d="M0 0H6.778V196.539H0z" class="cls-6" transform="rotate(-37.25 68.83 -64.008)"/>
                        <path id="Path_640" d="M431 258.014l-67.065 50.956a18.192 18.192 0 0 1-25.512-3.484l-96.942-127.623a18.208 18.208 0 0 1 3.485-25.494l18.842-14.307 48.22-36.649a18.209 18.209 0 0 1 25.512 3.487l38.9 51.207 28.913 38.066 29.13 38.351a18.184 18.184 0 0 1-3.483 25.49z" class="cls-4" transform="translate(-229.564 -95.552)"/>
                    </g>
                    <path id="Path_641" d="M360.384 565.642s78.057 27.775 101.672-32.708c0 0-36.942-44.905-16.773-81.648 12.695-23.125 47.784-74.186 47.784-74.186s14.652-13.916 19.219-27.9c0 0-2.51-15.576-13.566-26.124 0 0-.112-7.958-6.312-12.453s-17.565-13.246-17.565-13.246-18.691-44.838-21.475-52.978-8.342-23.432-11.136-40.343-5.363-35.129-11.281-35.072c0 0-6.114-2.654-6.114 8.209 0 0-12.812 6.6-10.93 20.588s3.636 21.2 3.136 29.082 2.02 35.172 8.341 43.733c0 0 2.112 38.334 5.273 48.316q.145.458.293.834c3.323 8.438-29.96 41.038-47.972 49.765 0 0-1.881 3.522-8.876 2.561s-18.825-1.414-20.865-6.6-15.559-45.659-15.559-45.659-10.958-51.934-32.841-51.929c0 0-3.331-7.939-11.9-3.6s-2.959 27.968.833 40.9 13.4 46.91 14.961 62.547-7.3 46.951-3.895 59.273 7.021 20.638 17.651 40.808 34.16 80.248 37.897 97.83z" class="cls-3" transform="translate(-213.268 -72.715)"/>
                    <path id="Path_642" d="M360.6 542.665s-16.7-62.895-41.268-103.551-10.164-55.056-10.164-88.935S281.592 258.7 289.028 246s17.6-2.542 21.835 9.316-1.694 18.634-13.552 19.481" class="cls-4" transform="translate(-213.486 -49.738)"/>
                    <path id="Path_643" d="M300.845 243.748s14.252-.862 23.021 21.936 22.8 80.671 37.413 98.208" class="cls-4" transform="translate(-209.275 -48.575)"/>
                    <path id="Path_644" d="M337.842 318.495c.083.181 20.415 11.521 51.981 1.583" class="cls-4" transform="translate(-197.374 -24.529)"/>
                    <path id="Path_645" d="M302.89 295.655a14.288 14.288 0 0 1 13.348-5.061" class="cls-4" transform="translate(-208.617 -33.567)"/>
                    <path id="Path_646" d="M304.944 300.8a11.346 11.346 0 0 1 11.476-3.734" class="cls-4" transform="translate(-207.957 -31.535)"/>
                    <path id="Path_647" d="M403.175 175.125c-20.75 6.911-5.31 38.245-7.794 49.67s3.973 33.33 8.94 45.2c0 13.907 4.968 47.683 4.968 47.683-3.068 10.736-28.654 42.411-53.516 52.326" class="cls-4" transform="translate(-191.606 -70.648)"/>
                    <path id="Path_648" d="M406.863 192.9s-1.54-23.983-9.112-23.983-7.117 16.163-3.956 28.156 15.375 10.216 13.068-4.173z" class="cls-4" transform="translate(-180.069 -72.646)"/>
                    <path id="Path_649" d="M403.158 187.06s6.452 37.713 17.384 61.4" class="cls-4" transform="translate(-176.364 -66.808)"/>
                    <path id="Path_650" d="M427.758 318.573c5.283-8.558 7.629-16.661 9.589-26.969-.5-6.462-7.909-27.565-16.576-48" class="cls-4" transform="translate(-170.698 -48.619)"/>
                    <path id="Path_651" d="M429.984 267.557c8.572 6.454 23.5 11.406 21.769 22.54a93.271 93.271 0 0 1-11.5 31.568" class="cls-4" transform="translate(-167.734 -40.915)"/>
                    <path id="Path_652" d="M427.247 498.426s-29.879-41.49-23.9-70.141c4.4-21.079 32.706-57.934 53-88.47 11.175-10.42 16.769-18.556 19.219-27.9-3.588-17.644-9.394-22.788-15-27.3" class="cls-4" transform="translate(-176.556 -35.429)"/>
                    <path id="Path_653" d="M432.121 272.968a25.284 25.284 0 0 0-19.922 2.713" class="cls-4" transform="translate(-173.455 -39.478)"/>
                    <path id="Path_654" d="M428.908 278.165a18.73 18.73 0 0 0-11.821 2.078" class="cls-4" transform="translate(-171.883 -37.573)"/>
                </g>
            </g>
        </g>
    </g>
</svg>
