<svg xmlns="http://www.w3.org/2000/svg" width="327.8" height="267.5" viewBox="0 0 327.8 267.5">
    <defs>
        <style>
            .cls-2,.cls-5,.cls-8{fill:#00d97e}.cls-5,.cls-6,.cls-8{stroke:#263238}.cls-4,.cls-5,.cls-6{stroke-miterlimit:10}.cls-4{fill:none;stroke:#8b8b8b}.cls-6{fill:#fff}.cls-8{stroke-linejoin:round}
        </style>
    </defs>
    <g id="Group_358" transform="translate(-9.159 -74.373)">
        <g id="Background_Simple" transform="translate(20.763 74.373)">
            <g id="Group_351">
                <path id="Path_584" fill="#00d97e" d="M237.085 75.687c-24.557-3.78-49.844.341-68.756 15.689-18.383 14.918-26.744 39.883-45.933 53.748-29.664 21.436-71.726 14.315-88.89 52.834-6.127 13.75-7.738 29.115-7.535 44.166.255 18.853 3.327 37.928 11.469 54.934s21.7 31.833 39.053 39.205c25.6 10.876 55.277 4.38 80.981-6.252 10.6-4.386 21.246-9.527 32.706-10.128 14.433-.756 28.092 5.748 41.8 10.327 16.452 5.495 34.673 8.262 51 2.419 12.783-4.574 23.289-14.053 31.719-24.7a126.959 126.959 0 0 0 26.68-66.316c6.552-68.572-28.832-154.313-104.294-165.926z" opacity="0.33" transform="translate(-25.955 -74.373)"/>
            </g>
        </g>
        <g id="Plants" transform="translate(72.392 140.009)">
            <g id="Group_352">
                <path id="Path_586" d="M277.953 227.153c-3.857 1.415-13.036.654-13.043.653-.095-.008 2.339-5.9 2.535-6.252 2.27-4.1 9.069-10.679 14.216-9.666a6.21 6.21 0 0 1 4.505 8.067c-1.079 3.545-4.928 5.993-8.213 7.198z" class="cls-2" transform="translate(-153.716 -183.789)"/>
                <path id="Path_587" d="M107.441 175.517c5.24-.248 11 7.261 12.643 11.648.142.38 1.684 6.563 1.588 6.556l-.111-.008c.919 1.179 1.888 2.452 2.921 3.866 1.886 2.625 3.993 5.607 6.066 9.008a110.265 110.265 0 0 1 6.173 11.29 80.989 80.989 0 0 1 5.042 13.483c.015.055.022.114.037.169.065-1.536.392-5.824.454-6.15.88-4.6 5.286-12.974 10.494-13.616a6.209 6.209 0 0 1 6.8 6.26c.079 3.7-2.814 7.229-5.559 9.4-3.1 2.447-11.4 4.5-12.065 4.658a109.832 109.832 0 0 1 2.588 14.433c.331 2.832.576 5.694.786 8.568.1-1.327.2-2.511.23-2.675.881-4.6 5.286-12.974 10.493-13.616a6.208 6.208 0 0 1 6.8 6.259c.08 3.7-2.813 7.229-5.559 9.4-2.786 2.2-9.832 4.092-11.7 4.567.069 1.1.15 2.2.215 3.307.311 5.294.6 10.577 1.04 15.75.154 1.823.373 3.613.586 5.4.09-1.177.175-2.168.2-2.317.881-4.6 5.286-12.974 10.492-13.616a6.211 6.211 0 0 1 6.8 6.261c.08 3.7-2.815 7.229-5.56 9.4-2.657 2.1-9.148 3.9-11.369 4.479.274 1.828.544 3.66.891 5.419.264 1.2.436 2.365.768 3.553q.457 1.77.9 3.509c.657 2.21 1.319 4.493 2.014 6.633.472 1.492.949 2.9 1.425 4.329-.174-1.812-.443-5.37-.431-5.669a24.105 24.105 0 0 1 3.933-11.511 7.369 7.369 0 0 1 .168-1.365 6.209 6.209 0 0 1 7.9-4.8c4.98 1.652 7.653 10.729 7.61 15.412 0 .277-.364 3.271-.623 5.158.322-1.085.62-2.143.965-3.256.666-2.206 1.395-4.387 2.17-6.739q.62-1.682 1.257-3.4c.4-1.143.958-2.3 1.436-3.466 1.166-2.676 2.478-5.332 3.857-7.977-1.931-.587-8.755-2.772-11.41-5.076s-5.372-5.949-5.123-9.643a6.21 6.21 0 0 1 7.076-5.942c5.172.88 9.191 9.445 9.859 14.082.042.29.147 3.67.17 5.528.842-1.583 1.674-3.168 2.579-4.743 2.608-4.546 5.39-9.067 8.148-13.588.844-1.385 1.669-2.774 2.5-4.162-.69-.2-8.858-2.624-11.832-5.2-2.642-2.293-5.372-5.949-5.123-9.644a6.208 6.208 0 0 1 7.075-5.94c5.172.879 9.191 9.445 9.86 14.082.05.35.195 5.214.172 6.453 1.83-3.058 3.625-6.122 5.273-9.214a109.368 109.368 0 0 0 5.907-12.891c-.322-.094-8.857-2.583-11.9-5.226-2.643-2.293-5.373-5.949-5.123-9.644a6.208 6.208 0 0 1 7.076-5.941c5.172.879 9.19 9.445 9.858 14.082.052.364.206 5.6.166 6.548.1-.256.226-.512.318-.769a80.156 80.156 0 0 0 3.49-13.778c.448-2.582.732-5.076.955-7.509-1.637-.3-9.106-1.757-12.11-3.832-2.88-1.99-5.994-5.324-6.151-9.023a6.208 6.208 0 0 1 6.38-6.682c5.237.305 10.172 8.379 11.346 12.914.064.247.436 2.826.679 4.708.083-1.1.191-2.233.249-3.287.231-3.96.2-7.6.146-10.826-.046-1.834-.124-3.491-.214-5.04-1.452-1.134-7.25-5.774-8.929-8.942-1.639-3.092-2.866-7.485-1.3-10.842a6.209 6.209 0 0 1 8.727-2.997c4.507 2.685 5.166 12.124 4.12 16.69-.091.394-2.217 6.4-2.294 6.345 0 0-.072-.055-.087-.069.116 1.489.222 3.087.3 4.836.126 3.23.237 6.879.091 10.861a110.454 110.454 0 0 1-1.08 12.822 81.053 81.053 0 0 1-3.233 14.026c-.018.054-.045.108-.063.161.9-1.245 3.54-4.64 3.772-4.878 3.273-3.352 11.567-7.9 16.263-5.568a6.209 6.209 0 0 1 2.215 8.971c-1.977 3.132-6.336 4.476-9.822 4.772-3.932.333-11.992-2.54-12.632-2.771a109.967 109.967 0 0 1-5.805 13.466c-1.285 2.544-2.66 5.067-4.069 7.579.814-1.051 1.55-1.984 1.667-2.1 3.274-3.352 11.568-7.9 16.263-5.566a6.208 6.208 0 0 1 2.217 8.97c-1.975 3.132-6.336 4.477-9.822 4.772-3.538.3-10.458-2.011-12.282-2.648-.551.959-1.09 1.921-1.645 2.876-2.661 4.587-5.335 9.152-7.822 13.711-.877 1.605-1.681 3.22-2.493 4.832.724-.933 1.342-1.712 1.449-1.822 3.273-3.352 11.567-7.9 16.263-5.567a6.208 6.208 0 0 1 2.215 8.97c-1.977 3.132-6.335 4.477-9.822 4.772-3.377.287-9.783-1.789-11.953-2.535-.782 1.676-1.567 3.352-2.247 5.012-.439 1.143-.943 2.213-1.318 3.386q-.6 1.729-1.183 3.426c-.671 2.2-1.378 4.476-1.979 6.644-.43 1.5-.812 2.946-1.2 4.4.854-1.609 2.593-4.723 2.768-4.967 2.726-3.809 10.235-9.565 15.232-7.966a6.207 6.207 0 0 1 3.547 8.53c-1.478 3.4-5.583 5.386-8.984 6.206-3.746.9-11.825-.615-12.833-.812-.634 2.4-1.229 4.747-1.755 6.967-.114.475-.208.907-.316 1.372H169.4c.178-.7.357-1.4.547-2.126.634-2.443 1.361-5.04 2.133-7.7a67.629 67.629 0 0 1-6.958-3.8c-2.855 2.741-9.928 5.724-10.843 6.1.8 2.355 1.594 4.638 2.381 6.779.094.258.184.492.277.745h-3.306c-.788-2.307-1.581-4.769-2.373-7.309-1 .147-9.156 1.3-12.861.223-3.36-.975-7.371-3.151-8.693-6.612a6.208 6.208 0 0 1 3.938-8.358c5.063-1.369 12.3 4.726 14.85 8.656.151.232 1.5 2.93 2.326 4.646-.331-1.082-.664-2.129-.991-3.247-.663-2.207-1.259-4.429-1.907-6.818l-.829-3.528c-.3-1.172-.471-2.449-.714-3.684-.5-2.875-.875-5.813-1.183-8.781-1.934.574-8.832 2.518-12.318 2.061-3.469-.455-7.762-2-9.592-5.218a6.209 6.209 0 0 1 2.624-8.859c4.8-2.119 12.876 2.809 15.992 6.308.194.217 2.147 2.98 3.191 4.517-.171-1.785-.351-3.567-.465-5.379-.332-5.231-.5-10.536-.7-15.829-.059-1.62-.138-3.235-.211-4.852-.686.213-8.834 2.7-12.738 2.187-3.47-.454-7.763-2-9.593-5.218a6.208 6.208 0 0 1 2.624-8.858c4.8-2.12 12.876 2.808 15.991 6.306.234.264 3.04 4.241 3.7 5.288-.16-3.561-.353-7.106-.685-10.594a109.423 109.423 0 0 0-2.185-14.011c-.319.1-8.813 2.732-12.81 2.209-3.47-.455-7.763-2-9.594-5.218a6.209 6.209 0 0 1 2.624-8.859c4.8-2.12 12.876 2.809 15.992 6.307.245.275 3.26 4.556 3.752 5.371-.062-.267-.1-.551-.161-.817a79.966 79.966 0 0 0-4.69-13.417c-1.05-2.4-2.189-4.64-3.345-6.791-1.532.653-8.564 3.558-12.215 3.485-3.5-.071-7.935-1.134-10.108-4.133a6.209 6.209 0 0 1 1.635-9.094c4.538-2.634 13.107 1.378 16.588 4.513.189.17 1.921 2.116 3.163 3.551-.537-.963-1.073-1.967-1.605-2.879-1.992-3.431-4.027-6.451-5.851-9.111-1.049-1.5-2.028-2.842-2.957-4.086-1.836-.143-9.233-.814-12.381-2.531-3.071-1.676-6.52-4.663-7.067-8.325a6.209 6.209 0 0 1 5.642-7.326z" class="cls-2" transform="translate(-101.725 -170.699)"/>
                <path id="Path_588" d="M146.786 218.344c-.084.046-1.3-6.21-1.336-6.614-.365-4.67 1.673-13.909 6.526-15.9a6.208 6.208 0 0 1 8.207 4.243c1.055 3.549-.8 7.715-2.88 10.533-2.434 3.306-10.511 7.734-10.517 7.738z" class="cls-2" transform="translate(-115.643 -178.563)"/>
            </g>
        </g>
        <g id="Banknotes_3" transform="translate(179.524 104.523)">
            <g id="Group_354">
                <g id="Group_353" transform="translate(16.579)">
                    <path id="Rectangle_151" fill="#263238" stroke="#263238" stroke-miterlimit="10" d="M0 0H118.726V234.777H0z"/>
                    <path id="Line_199" d="M0 0L0 40.645" class="cls-4" transform="translate(105.89 1.07)"/>
                    <path id="Line_200" d="M0 0L0 17.114" class="cls-4" transform="translate(113.378 11.231)"/>
                    <path id="Line_201" d="M0 0L0 60.967" class="cls-4" transform="translate(109.634 7.487)"/>
                    <path id="Line_202" d="M0 0L0 79.685" class="cls-4" transform="translate(116.052)"/>
                    <path id="Line_203" d="M0 41.714L0 0" class="cls-4" transform="translate(106.96 192.528)"/>
                    <path id="Line_204" d="M0 9.092L0 0" class="cls-4" transform="translate(111.238 225.686)"/>
                    <path id="Line_205" d="M0 36.901L0 0" class="cls-4" transform="translate(112.308 185.576)"/>
                    <path id="Line_206" d="M0 60.432L0 0" class="cls-4" transform="translate(107.495 126.748)"/>
                </g>
                <path id="Rectangle_152" d="M0 0H118.726V234.777H0z" class="cls-5"/>
                <path id="Path_589" d="M371.515 138.95a9.084 9.084 0 0 1-9.065-8.557h-80.274a9.042 9.042 0 0 1-10.669 8.407v197.107a9.084 9.084 0 0 1 9.625 13.22h82.362a9.068 9.068 0 0 1 9.625-13.22V138.8a9.092 9.092 0 0 1-1.604.15zm-51.608 136.374c-18.756 0-33.96-16.522-33.96-36.9s15.2-36.9 33.96-36.9 33.96 16.522 33.96 36.9-15.205 36.9-33.96 36.9z" class="cls-6" transform="translate(-262.95 -122.371)"/>
                <path id="Rectangle_153" d="M0 0H134.553V24.066H0z" class="cls-6" transform="translate(.535 103.217)"/>
                <path id="Rectangle_154" fill="#3d3d3d" stroke="#8b8b8b" stroke-miterlimit="10" d="M0 0H16.103V24.066H0z" transform="translate(118.985 103.217)"/>
            </g>
        </g>
        <g id="Banknotes_1" transform="translate(120.156 132.166)">
            <g id="Group_355" transform="translate(12.296 172.92)">
                <path id="Path_590" d="M209.2 434.316s-2.02.577-7.5-3.462-11.83-9.811-11.83-9.811 6.3-.844 9.206-2.382c3.207-1.694 6.952-5.7 6.952-5.7s12.7 17.313 28.566 16.159a8.894 8.894 0 0 1-5.482 6.636c-4.912 2.023-19.912-1.44-19.912-1.44z" class="cls-8" transform="translate(-189.868 -412.964)"/>
                <path id="Path_591" d="M232.766 433.289s-13.48-3.536-20.772-11.27a2.455 2.455 0 0 1-3.094-2.21 15.842 15.842 0 0 1-9.281 4.2s.221 1.547-.442 1.989c0 0 10.386 9.06 16.352 10.165a44.307 44.307 0 0 0 12.6.663 8.477 8.477 0 0 0 4.861-2.21s-2.213-.443-.224-1.327zm-12.73-.5c-.48 1.188-2.888 1.334-5.377.327s-4.117-2.786-3.636-3.974 2.888-1.335 5.377-.328 4.117 2.786 3.636 3.978z" class="cls-6" transform="translate(-192.834 -415.145)"/>
                <path id="Path_592" d="M215.241 442.493s6.952 2.86 12.435 2.86a41.442 41.442 0 0 0 9.518-1.058s-1.876 1.023-4.918-.931a9.648 9.648 0 0 1-2.86-3.606 52.253 52.253 0 0 1-14.175 2.735z" class="cls-8" transform="translate(-197.952 -421.501)"/>
            </g>
            <g id="Group_356" transform="translate(12.036 68.49)">
                <path id="Path_593" d="M189.486 260.446l.139 32.819 17.13-.076.054-33.485z" class="cls-5" transform="translate(-189.486 -259.704)"/>
                <path id="Path_594" d="M203.73 291.329a1.844 1.844 0 0 1 1.986-1.73 1.393 1.393 0 0 1 .254.079l-.03-24.991a1.359 1.359 0 0 1-1.134.333 1.585 1.585 0 0 1-1.186-1.274l-10.348.444a2.207 2.207 0 0 1 0 .643 1.746 1.746 0 0 1-1.468 1.573l-.031 23.15a1.424 1.424 0 0 1 .786-.089 1.894 1.894 0 0 1 1.379 2l9.785-.044c.003-.03.002-.062.007-.094zm-5.7-8.621c-1.906-.348-3.159-2.513-2.8-4.834s2.2-3.921 4.1-3.573 3.159 2.513 2.8 4.834-2.19 3.922-4.095 3.573z" class="cls-6" transform="translate(-190.215 -260.992)"/>
            </g>
            <g id="Group_357">
                <path id="Path_595" d="M179.44 189.684l33.24-13.146-6.865-17.348-33.993 13.21z" class="cls-5" transform="translate(-171.822 -159.189)"/>
                <path id="Path_596" d="M206.14 165.852a2.008 2.008 0 0 1-2.542-1.329 1.593 1.593 0 0 1-.02-.29l-25.341 9.935a1.48 1.48 0 0 1 .787 1.018 1.727 1.727 0 0 1-.822 1.708l4.55 10.322a2.407 2.407 0 0 1 .653-.254 1.9 1.9 0 0 1 2.178.867l23.5-9.142a1.551 1.551 0 0 1-.4-.762 2.065 2.065 0 0 1 1.485-2.193l-3.922-9.909c-.04.007-.071.022-.106.029zm-6.488 9.194c.4 2.071-1.3 4.2-3.8 4.756s-4.848-.673-5.249-2.745 1.3-4.2 3.8-4.756 4.847.675 5.249 2.745z" class="cls-6" transform="translate(-173.855 -160.796)"/>
            </g>
        </g>
        <g id="Floor" transform="translate(9.659 339.3)">
            <path id="Line_207" fill="none" stroke="#fff" stroke-linecap="round" stroke-linejoin="round" d="M0 0L325.937 0"/>
        </g>
    </g>
</svg>
