<svg xmlns="http://www.w3.org/2000/svg" width="831.457" height="816" viewBox="0 0 831.457 816">
    <defs>
        <clipPath id="clip-path">
            <path id="Path_12556" d="M216.644 472.227s-22.774 15.5-31.949 14.464a4.213 4.213 0 0 1-2.7-1.144c-5.985-6.173-10.791-17.012-10.791-17.012s2.846-3.957 11.643 6.529l5.59-5.13-11.537-11.59s6.494-5.158 17.519 1.4c-.366-.788-7.485-16.271-2.118-37.348l-26.882-25.9 23.795-20.732 1.833-1.594s1.5 1.475 3.922 3.767c2.345 2.222 5.572 5.2 9.079 8.271 8.393 7.376 18.542 15.365 22.941 15.291 8.142-.155-10.345 70.728-10.345 70.728z" class="cls-1" transform="translate(-165.419 -374.175)"/>
        </clipPath>
        <clipPath id="clip-path-2">
            <path id="Path_12596" d="M440.7 321.8s-5.772 42.746-35.032 59.48c-28.974 4.133-61.471-19.876-72.428-48.729-8.661-22.772-1.08-48.617 3.043-59.676a.02.02 0 0 1 .023-.018C370.533 253.318 440.7 321.8 440.7 321.8z" class="cls-1" transform="translate(-329.262 -269.347)"/>
        </clipPath>
        <style>
            .cls-1,.cls-4{fill:#fff}.cls-1,.cls-12,.cls-6{stroke:#263238}.cls-1,.cls-12,.cls-5,.cls-6,.cls-7{stroke-linecap:round;stroke-linejoin:round}.cls-10,.cls-12,.cls-3{fill:#0c6}.cls-5,.cls-6{fill:none}.cls-5,.cls-7{stroke:#fff}.cls-7{fill:#757575}.cls-10{opacity:.4}.cls-11{opacity:.2}.cls-13{fill:#263238}
        </style>
    </defs>
    <g id="Group_866" transform="translate(-57.401 -51.101)">
        <g id="Background_Simple" transform="translate(57.401 51.101)">
            <g id="Group_839" opacity="0.5">
                <path id="Path_12519" d="M91.252 332.572c72.469-72.442 133.833-11.665 159.688-108.941C309.344 3.9 551.547 6.044 583.4 162.344c57.391 281.643 307.31 102.782 305.452 304.5-1.983 215.368-160.359 383.105-444.408 399.87C189.787 881.745-28.818 452.6 91.252 332.572z" class="cls-3" transform="translate(-57.401 -51.101)"/>
            </g>
        </g>
        <g id="Discount" transform="translate(231.439 153.357)">
            <g id="Group_843">
                <g id="Group_841" transform="translate(27.932 .107)">
                    <g id="Group_840" transform="translate(11.595 47.059)">
                        <path id="Path_12520" d="M161.847 132.764c-.458-3.9 1.3-6.3 5.034-6.742s6 1.492 6.46 5.4l1.461 12.467c.456 3.9-1.3 6.308-5.038 6.746s-6-1.5-6.458-5.4zm5.287 12.293c.2 1.682.984 2.3 2.23 2.157 1.193-.139 1.868-.931 1.672-2.615l-1.522-13.007c-.2-1.68-1.039-2.3-2.232-2.157-1.246.145-1.868.933-1.672 2.613zm14.741-20.519l3.523-.411-10.517 39.7-3.523.413zm.407 19.9c-.456-3.9 1.3-6.306 5.036-6.744s6 1.5 6.456 5.4l1.461 12.469c.458 3.9-1.3 6.306-5.036 6.744s-6-1.5-6.456-5.4zm5.287 12.293c.2 1.682.982 2.3 2.23 2.159 1.193-.141 1.868-.935 1.672-2.615l-1.524-13.009c-.2-1.682-1.037-2.3-2.23-2.157-1.246.147-1.868.933-1.672 2.613z" class="cls-4" transform="translate(-161.775 -124.127)"/>
                    </g>
                    <path id="Path_12521" d="M210.048 181.955l-44.3 5.187a3.829 3.829 0 0 1-4.246-3.354l-5.359-45.76a5.634 5.634 0 0 1 1.643-4.671l18.493-18.227a5.636 5.636 0 0 1 6.879-.806l22.207 13.462a5.645 5.645 0 0 1 2.676 4.166l5.359 45.758a3.826 3.826 0 0 1-3.352 4.245z" class="cls-5" transform="translate(-156.108 -88.178)"/>
                    <path id="Path_12522" d="M172.261 118.076a2.843 2.843 0 1 1-3.155-2.494 2.843 2.843 0 0 1 3.155 2.494z" class="cls-6" transform="translate(-145.139 -86.027)"/>
                    <path id="Path_12523" d="M167.983 101.128s8.661 33.334 0 32.38" class="cls-6" transform="translate(-143.685 -101.128)"/>
                    <path id="Path_12524" d="M166.9 126.414c1.69-9.261 10.184-24.873 10.184-24.873" class="cls-6" transform="translate(-144.814 -100.696)"/>
                    <path id="Path_12525" d="M169.111 117.872a2.481 2.481 0 0 1-2.206-1.8" class="cls-6" transform="translate(-144.813 -85.491)"/>
                </g>
                <g id="Group_842">
                    <path id="Path_12526" d="M186.874 107.176a56.034 56.034 0 0 1 17.265 23.848" class="cls-5" transform="translate(-95.99 -94.694)"/>
                    <path id="Path_12527" d="M143.042 143.129a56.194 56.194 0 0 1 84.458-33.322" class="cls-5" transform="translate(-141.845 -101.076)"/>
                    <path id="Path_12528" d="M161.136 166.729a55.961 55.961 0 0 1-18.679-34.214" class="cls-5" transform="translate(-142.457 -68.185)"/>
                    <path id="Path_12529" d="M183.271 160.727a55.976 55.976 0 0 1-28.8-9.3" class="cls-5" transform="translate(-129.889 -48.396)"/>
                    <path id="Path_12530" d="M221.043 124.555a56.177 56.177 0 0 1-47.44 63.727" class="cls-5" transform="translate(-109.873 -76.513)"/>
                </g>
            </g>
        </g>
        <g id="Gift" transform="translate(107.675 332.572)">
            <g id="Group_846">
                <g id="Group_844" transform="translate(28.962 27.122)">
                    <path id="Rectangle_368" d="M0 0h71.976v44.758a1.655 1.655 0 0 1-1.655 1.655H1.655A1.655 1.655 0 0 1 0 44.757V0z" class="cls-5" transform="rotate(10.912 -149.255 60.669)"/>
                    <path id="Rectangle_369" d="M0 0h75.629v13.081a1.655 1.655 0 0 1-1.655 1.655H1.655A1.655 1.655 0 0 1 0 13.081V0z" class="cls-5" transform="rotate(-169.11 42.692 17.787)"/>
                    <path id="Rectangle_370" d="M0 0H10.292V61.149H0z" class="cls-5" transform="rotate(10.89 -87.74 229.838)"/>
                    <path id="Path_12531" d="M119.053 217.449s17.519-12.784 25.624-8.913 4.1 14.644.023 13.859" class="cls-5" transform="translate(-72.14 -195.756)"/>
                    <path id="Path_12532" d="M122.439 215.586s14.262-7.1 16.336-3.89-4.092 6.251-8.823 5.338" class="cls-5" transform="translate(-68.598 -192.557)"/>
                    <path id="Path_12533" d="M119.283 221.171s7.405-13.453 6.435-17.744l4.941-.01s1.608 5.1-4.158 13.812" class="cls-5" transform="translate(-71.899 -200.348)"/>
                    <path id="Path_12534" d="M133.457 221.626s-11.512-18.381-20.474-17.8-9.255 12.068-5.173 12.856" class="cls-5" transform="translate(-86.543 -199.933)"/>
                    <path id="Path_12535" d="M123.2 216.959s-10.6-11.89-13.719-9.686 1.475 7.325 6.2 8.236" class="cls-5" transform="translate(-83.219 -196.6)"/>
                    <path id="Path_12536" d="M122.029 222.626s-1.872-15.24.622-18.863l-4.581-1.846s-3.39 4.137-1.277 14.368" class="cls-5" transform="translate(-75.23 -201.917)"/>
                </g>
                <g id="Group_845">
                    <path id="Path_12537" d="M144.548 201.995a71.558 71.558 0 0 1 14.769 34.574" class="cls-5" transform="translate(-16.506 -174.714)"/>
                    <path id="Path_12538" d="M85.88 227.449a71.761 71.761 0 0 1 114.589-17.654" class="cls-5" transform="translate(-77.882 -188.662)"/>
                    <path id="Path_12539" d="M95.795 268.9a71.446 71.446 0 0 1-13.6-47.884" class="cls-5" transform="translate(-81.971 -154.82)"/>
                    <path id="Path_12540" d="M124.941 267.67A71.508 71.508 0 0 1 91.7 247.961" class="cls-5" transform="translate(-71.794 -126.626)"/>
                    <path id="Path_12541" d="M191.395 226.437a71.739 71.739 0 0 1-77.075 65.972" class="cls-5" transform="translate(-48.129 -149.144)"/>
                </g>
            </g>
        </g>
        <g id="Update" transform="translate(426.337 90.452)">
            <g id="Group_850">
                <g id="Group_848" transform="translate(22.289 27.089)">
                    <g id="Group_847" transform="translate(24.705 9.787)">
                        <path id="Path_12542" d="M293.758 138.843l-6.018-3.077a18.816 18.816 0 0 0 .886-8.205c1.964.9 3.943 1.835 5.809 2.726-.106 2.473-.309 5.395-.677 8.556z" class="cls-5" transform="translate(-232.361 -47.34)"/>
                        <path id="Path_12543" d="M302.784 132.854a21.258 21.258 0 0 0 6.057 2.026 54.734 54.734 0 0 1-4.927 34.66c-1.547 3.024-17.869-5.324-16.32-8.35 3.732-7.292 5.551-16.187 6.427-23.739.368-3.161.571-6.083.677-8.557 3.402 1.622 6.402 3.099 8.086 3.96z" class="cls-5" transform="translate(-232.623 -45.947)"/>
                        <path id="Path_12544" d="M327.45 119.365a21.339 21.339 0 1 1-19.438 38c-1.686-.861-4.688-2.339-8.086-3.961-1.866-.89-3.845-1.821-5.809-2.726-4.706-2.169-9.265-4.164-11.624-4.931l20.6-40.274c4.362 3.183 19.526 11.421 24.357 13.892z" class="cls-5" transform="translate(-237.851 -70.453)"/>
                        <path id="Path_12545" d="M301.06 99.369a102.772 102.772 0 0 0 19.983 19.007l-20.6 40.274a102.8 102.8 0 0 0-27.105-5.083l-7.994-.417 30.707-60.02z" class="cls-5" transform="translate(-255.797 -83.36)"/>
                        <path id="Path_12546" d="M260.922 159.845l35.945-70.261a2.255 2.255 0 0 1 3.036-.98l2.658 1.359a2.258 2.258 0 0 1 .983 3.037l-2.621 5.124-30.707 60.02-2.616 5.116a2.258 2.258 0 0 1-3.036.982l-2.658-1.361a2.258 2.258 0 0 1-.984-3.036z" class="cls-5" transform="translate(-260.675 -88.355)"/>
                    </g>
                    <path id="Line_402" d="M13.853 7.087L0 0" class="cls-7" transform="translate(12.169 30.418)"/>
                    <path id="Line_403" d="M8.73 15.279L0 0" class="cls-7" transform="translate(33.52)"/>
                    <path id="Line_404" d="M17.498 0L0 1.861" class="cls-7" transform="translate(0 63.661)"/>
                </g>
                <g id="Group_849">
                    <path id="Path_12547" d="M335.754 93.852A92.453 92.453 0 0 0 292.7 71.373" class="cls-5" transform="translate(-180.179 -69.245)"/>
                    <path id="Path_12548" d="M300.634 231.924a92.709 92.709 0 0 0 34.193-145.831" class="cls-5" transform="translate(-171.878 -53.846)"/>
                    <path id="Path_12549" d="M253.525 150.02a92.319 92.319 0 0 0 60.317 22.309" class="cls-5" transform="translate(-221.161 13.032)"/>
                    <path id="Path_12550" d="M238.47 123.948a92.385 92.385 0 0 0 22.062 44.788" class="cls-5" transform="translate(-236.911 -14.243)"/>
                    <path id="Path_12551" d="M330.389 70.333a92.68 92.68 0 0 0-92.681 92.681" class="cls-5" transform="translate(-237.708 -70.333)"/>
                </g>
            </g>
        </g>
        <g id="Heart" transform="translate(302.817 316.533)">
            <g id="Group_851">
                <path id="Path_12552" d="M229.395 196.648c-7.779-6.951-15.839-3.9-19.966-1.461-.829-4.725-3.771-12.835-14.11-14.227-11.225-1.494-20.406 9.459-17.4 24.7 2.177 10.967 9.181 21.012 12.94 25.765.446.571.868 1.068 1.209 1.469.528 0 1.181 0 1.9-.035 6.055-.237 18.239-1.447 27.969-6.932 13.563-7.617 15.892-21.727 7.458-29.279z" class="cls-5" transform="translate(-177.341 -180.823)"/>
                <path id="Path_12553" fill="none" stroke="#fff" stroke-dasharray="3 3" stroke-linecap="round" stroke-linejoin="round" d="M184.137 209.755s-16.167 30.158 7.974 45.547c40.35 25.724 53.928-34.959 23.032-29.5-22.348 3.945 3.677 65.952 39.8 46.343" transform="translate(-175.775 -150.556)"/>
            </g>
        </g>
        <g id="Character" transform="translate(181.676 263.189)">
            <g id="Group_865">
                <g id="Group_854" transform="translate(96.746 448.971)">
                    <g id="Group_853">
                        <path id="Path_12554" d="M216.644 472.227s-22.774 15.5-31.949 14.464a4.213 4.213 0 0 1-2.7-1.144c-5.985-6.173-10.791-17.012-10.791-17.012s2.846-3.957 11.643 6.529l5.59-5.13-11.537-11.59s6.494-5.158 17.519 1.4c-.366-.788-7.485-16.271-2.118-37.348l-26.882-25.9 23.795-20.732 1.833-1.594s1.5 1.475 3.922 3.767c2.345 2.222 5.572 5.2 9.079 8.271 8.393 7.376 18.542 15.365 22.941 15.291 8.142-.155-10.345 70.728-10.345 70.728z" class="cls-4" transform="translate(-165.419 -374.175)"/>
                        <g id="Group_852" clip-path="url(#clip-path)">
                            <path id="Path_12555" d="M199.035 461.257s-12.975 13.378-14.339 24.619a4.213 4.213 0 0 1-2.7-1.144c-5.985-6.173-10.791-17.012-10.791-17.012s2.846-3.957 11.643 6.529l5.59-5.13-11.538-11.59s6.494-5.158 17.519 1.4c-.366-.788-7.485-16.271-2.118-37.348l-26.882-25.9 23.795-20.732 5.756 2.173c2.345 2.222 5.572 5.2 9.079 8.271-5.034 7.393-15.821 22.653-15.821 22.653l9.32 12.643s-5.648 31.878 1.487 40.568z" class="cls-10" transform="translate(-165.419 -373.36)"/>
                        </g>
                        <path id="Path_12557" d="M216.644 472.227s-22.774 15.5-31.949 14.464a4.213 4.213 0 0 1-2.7-1.144c-5.985-6.173-10.791-17.012-10.791-17.012s2.846-3.957 11.643 6.529l5.59-5.13-11.537-11.59s6.494-5.158 17.519 1.4c-.366-.788-7.485-16.271-2.118-37.348l-26.882-25.9 23.795-20.732 1.833-1.594s1.5 1.475 3.922 3.767c2.345 2.222 5.572 5.2 9.079 8.271 8.393 7.376 18.542 15.365 22.941 15.291 8.142-.155-10.345 70.728-10.345 70.728z" class="cls-6" transform="translate(-165.419 -374.175)"/>
                    </g>
                    <path id="Path_12558" d="M176.67 426.182s1.981-6.218 6.005-10.178" class="cls-6" transform="translate(-153.649 -330.415)"/>
                </g>
                <path id="Path_12559" d="M662.9 400.412a64.529 64.529 0 0 1-12.9 13.897.02.02 0 0 0-.022.018c-41.883 34.678-138.449 51.815-138.449 51.815s-3.227 4.849-8.2 11.755c-8.931 12.392-23.555 31.425-35.478 40.966h-.02c-5.029 4.047-9.592 6.386-13.03 5.758l18.109 66.917 8.109 29.049s-83.26 36.325-225.683-5.22c0 0-1.61-18.585-.405-22.553.057-.18.115-.38.192-.579 1.326-3.2 5.578-7.02 5.578-7.02s-.794-11.95-1.2-24.116c-.319-9.449-.405-19.023.291-23.277 1.011-6.138 5.5-20.965 7.757-28.253.8-2.584 1.328-4.225 1.328-4.225l-7.088-66.371-2.04-19.113s-.033-.352-.1-.994c-.008-.143-.016-.289-.043-.475l-1.117-10.253-36.63 11.188s1.952 4.285 4.563 10.307c4.813 11 11.886 27.777 13.462 34.414a14.216 14.216 0 0 0 .467 1.6c3.4 9.68 16.3 18.466 16.3 18.466l-34.682 40.54-10.269-7.162a31.45 31.45 0 0 1-4.131 2.6c-6.744 3.663-20.893 9.04-36.342.825-5.647-3-11.456-7.808-17.141-15.166-27.343-35.4-39.084-64.229-35.239-98.16C122.7 373.638 275.064 269.27 305.3 270.352l44.972 9.936c.968-.8 3.6-2.889 5.625-2.787 8.178.417 8.391 9.92 8.391 9.92l100.78 16.359s10.444-5.228 12.263-5.14a7.853 7.853 0 0 1 6.364 4.047s26.111-15.637 34.521-12C545.822 302.6 683.3 369.409 662.9 400.412z" class="cls-3" transform="translate(-118.136 -33.828)"/>
                <g id="Group_855" transform="translate(53.092 271.731)">
                    <path id="Path_12560" d="M242.745 417.388a75.254 75.254 0 0 1-43.618 23.656c-5.3.843-9.971 1.694-14.041 2.535 1.326-3.2 5.578-7.02 5.578-7.02s-.794-11.95-1.2-24.116c11.836 7.736 32.43 16.737 53.281 4.945z" class="cls-11" transform="translate(-101.19 -156.902)"/>
                    <path id="Path_12561" d="M194.1 423.352c.8-2.584 1.328-4.225 1.328-4.225l-7.088-66.371c10.589 15.191 48.365 66.954 74.415 72.54 27.223 5.826-45.569 16.128-68.655-1.944z" class="cls-11" transform="translate(-97.782 -219.343)"/>
                    <path id="Path_12562" d="M329.106 464.475c-28.437-3.235-68.667-10.4-72.692-25.286-6.261-23.255 24.229-37.2 67.613-47.389-5.029 4.047-9.592 6.386-13.03 5.758z" class="cls-11" transform="translate(-27.423 -178.497)"/>
                    <path id="Path_12563" d="M459.428 368.1c-41.883 34.678-138.449 51.815-138.449 51.815s-3.227 4.849-8.2 11.755a160.969 160.969 0 0 1-6.169-107.006s7.444 40.287 38.32 49.857c0 0-23.635-17.6-15.387-59.983 0 0 8.058 49.883 60.542 63.654 25.527 6.69 50.455-.728 69.343-10.092z" class="cls-11" transform="translate(19.325 -259.328)"/>
                    <path id="Path_12564" d="M227.718 395.814l-1.16-10.728-36.63 11.188s1.952 4.285 4.563 10.307c-14.008-1.445-40.581 11.567-45.22-2.607-5.59-17.1 28.81-11.207 28.81-11.207l32.45-18.878c-6.141-26.242 9.484-45.975 9.484-45.975l2.969 18.307c1.422-34.807 15.035-53.844 15.035-53.844-11.327 27.523-11.013 95.271-10.301 103.437z" class="cls-11" transform="translate(-139.301 -282.508)"/>
                    <path id="Path_12565" d="M229.5 380.171l-34.682 40.54-10.259-7.157a31.452 31.452 0 0 1-4.131 2.6c-6.744 3.663-20.893 9.04-36.342.825 11.24-15.551 34.451-38.443 62.082-47.283 0 0-11.368 16.629-18.428 31.492l7.127 7.024s17.782-20.273 34.633-28.041z" class="cls-11" transform="translate(-144.084 -201.622)"/>
                    <path id="Path_12566" d="M229.755 287.554c-.01 3.568-2.257 44.132 27.247 54.847s55.739-7.458 55.739-7.458-45.253 43.638-72.784 20.318-10.202-67.707-10.202-67.707z" class="cls-11" transform="translate(-60.09 -287.554)"/>
                </g>
                <path id="Path_12567" d="M255.338 615.362s-1.6-18.585-.413-22.544c.992-3.317 5.772-7.6 5.772-7.6s-2.507-37.678-.9-47.389c1.375-8.322 9.089-32.493 9.089-32.493l-10.392-97.2-36.632 11.2s15.6 34.453 18.01 44.719 16.778 20.062 16.778 20.062l-34.7 40.528-10.25-7.145s-30.271 23.666-57.616-11.745-39.082-64.233-35.241-98.172 156.228-138.314 186.46-137.238l44.966 9.94c.974-.8 3.6-2.885 5.625-2.781 8.176.417 8.391 9.922 8.391 9.922l100.775 16.36s10.46-5.228 12.277-5.138a7.873 7.873 0 0 1 6.366 4.035s26.1-15.625 34.521-11.991c27.6 11.907 165.067 78.72 144.671 109.721-28.953 44.011-151.356 65.727-151.356 65.727s-40.712 61.395-56.744 58.473l26.221 95.981" class="cls-6" transform="translate(-118.137 -33.832)"/>
                <path id="Path_12568" d="M370.431 439.391c46.245 30.551 83.522 24.894 112.7-14.413 0 0 24.29-31.314 22.569-65.1s-9.789-143.978-115.072-115.8c-17.327 4.637-57.771 58.8-61.18 73.682-1.557 6.8-17.791 41.43-33.551 77.271" class="cls-12" transform="translate(67.833 -66.087)"/>
                <path id="Path_12569" d="M327.5 181.531s29.452-4.471 49.928 13.857C403.308 218.552 432.36 281 390.974 384.5c0 0-61.127-40.588-165.46-13.445 0 0 8.983-24.28-6.787-100.7C211.6 235.8 229.522 156.139 327.5 181.531z" class="cls-13" transform="translate(-14.361 -131.876)"/>
                <g id="Group_856" transform="translate(237.945 175.629)">
                    <path id="Path_12570" d="M264.949 374.328c43.6 7.067 89.941-41.2 89.941-41.2s-23.711-2.922-25.833-14.053c-6.8-35.114 20.556-78.486 20.556-78.486s-105.876 2.93-87.363 26.886a60.363 60.363 0 0 1 8.375 14.36c6.419 15.772 1.966 27.67-1.451 30.574a4.686 4.686 0 0 1-.769.512c-6.406 2.928-32.72-1.432-32.72-1.432s-10.522 56.387 29.264 62.839z" class="cls-1" transform="translate(-234.426 -240.587)"/>
                    <path id="Path_12571" d="M318.084 292.344s-20.1 8.046-49.56 5.651l-13.267 6.5" class="cls-6" transform="translate(-212.633 -186.441)"/>
                    <path id="Path_12572" d="M263.841 312.291l-.974-8.708s-21.714-6.8-28.437-19.715" class="cls-6" transform="translate(-234.421 -195.308)"/>
                    <path id="Path_12573" d="M251.408 294.043c32.425 8.475 47.651-33.109 47.651-33.109s-25.939-7.734-46.2 2.535c6.418 15.772 1.966 27.671-1.451 30.574z" class="cls-13" transform="translate(-216.659 -222.223)"/>
                </g>
                <g id="Group_858" transform="translate(210.801 48.064)">
                    <path id="Path_12574" d="M349.943 277.582c7.888-44.277-.88-97.413-68.268-93.012-48.146 3.145-47.751 55.934-44.563 71.689 5.359 26.5-2.322 36.937 5.934 59.2 5.932 16 19.721 33.886 35.945 40.587 9.981 4.123 50.391-24.233 53.378-37.2" class="cls-1" transform="translate(-205.742 -171.892)"/>
                    <path id="Path_12575" d="M257.015 223.516c-.4 4.97-.988 17.284-11.516 26.367-6.808 5.877 8.823 11.888 8.823 11.888" class="cls-6" transform="translate(-197.494 -130.88)"/>
                    <path id="Path_12576" d="M257.523 216.043s-14.871-7.245-24.92 4.71" class="cls-6" transform="translate(-209.189 -140.974)"/>
                    <path id="Path_12577" d="M256.973 215.475a50.325 50.325 0 0 1 31.793 1.25" class="cls-6" transform="translate(-183.694 -141.344)"/>
                    <path id="Path_12578" d="M264.554 228.963c.462 4.272 3.337 7.464 6.423 7.131s5.212-4.068 4.749-8.34-3.337-7.464-6.423-7.131-5.211 4.068-4.749 8.34z" class="cls-13" transform="translate(-175.829 -133.932)"/>
                    <path id="Path_12579" d="M249.293 255.261c18.7-2.271 33.258-12.148 33.258-12.148s1.387 18.575-14.17 22.438c-11.931 2.965-16.553-10.654-16.553-10.654" class="cls-6" transform="translate(-191.728 -110.379)"/>
                    <path id="Path_12580" d="M322.459 207.792s-4.264 52.467 42.053 71.529l21.7-50.434-32.824-36.356-49.46-14.288c-73.891 4.608-105.7 50.528-64.677 172.851-.003 0-11.476-145.694 83.208-143.302z" class="cls-13" transform="translate(-221.16 -178.243)"/>
                    <path id="Path_12581" d="M286.28 236.106c-.638-5.9 14.276-20.918 19.326-11.278 8.6 16.429 2.335 30.75-6.562 36.36-3.986 2.515-9.036 7.219-12.586 2.779" class="cls-1" transform="translate(-153.055 -132.802)"/>
                    <path id="Path_12582" d="M242.516 229.916c.462 4.272 3.337 7.464 6.423 7.131s5.212-4.068 4.749-8.338-3.337-7.464-6.423-7.131-5.211 4.068-4.749 8.338z" class="cls-13" transform="translate(-198.884 -132.933)"/>
                    <g id="Group_857" opacity="0.2" transform="translate(10.385 7.122)">
                        <path id="Path_12583" d="M227.387 221.432c-.555 3.56-.933 7.149-1.152 10.746" class="cls-5" transform="translate(-226.235 -140.183)"/>
                        <path id="Path_12584" d="M308.073 188.034c-37.432-.988-72.217 22.872-80.5 60.337" class="cls-5" transform="translate(-224.833 -175.153)"/>
                        <path id="Path_12585" d="M301.6 183.91s-53.977-12.7-74.218 23.109" class="cls-5" transform="translate(-225.04 -181.724)"/>
                        <path id="Path_12586" d="M285.052 213.277a57.827 57.827 0 0 0 11.637 12.269" class="cls-5" transform="translate(-164.703 -148.714)"/>
                        <path id="Path_12587" d="M274.589 186.21c2.891 16.873 8.449 34.005 17.124 48.786" class="cls-5" transform="translate(-175.649 -177.03)"/>
                        <path id="Path_12588" d="M302.815 265.57q-1.437 6.448-3.362 12.774" class="cls-5" transform="translate(-149.638 -94.008)"/>
                        <path id="Path_12589" d="M299.571 230.709c8.76 19.443 8.156 43.632 4.561 64.1" class="cls-5" transform="translate(-149.514 -130.478)"/>
                        <path id="Path_12590" d="M304.209 247.257s2.681 21.7-15.217 40" class="cls-5" transform="translate(-160.582 -113.166)"/>
                        <path id="Path_12591" d="M284.265 189.27c9.185 12.42 16 25.734 26.645 37.076 11.207 11.939 22.414 25.622 24.517 42.443" class="cls-5" transform="translate(-165.527 -173.829)"/>
                        <path id="Path_12592" d="M277.941 182.961a40.769 40.769 0 0 1 7.2 6.04" class="cls-5" transform="translate(-172.143 -180.429)"/>
                    </g>
                </g>
                <path id="Path_12593" fill="#263238" stroke="#263238" stroke-linecap="round" stroke-linejoin="round" d="M408.916 385.226c-1.066.241-2.148.422-3.249.577-28.974 4.133-61.471-19.876-72.428-48.729-8.661-22.772-1.08-48.617 3.043-59.676 1.307-3.466 2.251-5.484 2.251-5.484 17.466-24.959 119.06 23.86 120.24 50.767 1.183 26.887-20.093 56.034-49.857 62.545z" transform="translate(102.733 -39.398)"/>
                <g id="Group_860" transform="translate(431.995 234.476)">
                    <path id="Path_12594" d="M440.7 321.8s-5.772 42.746-35.032 59.48c-28.974 4.133-61.471-19.876-72.428-48.729-8.661-22.772-1.08-48.617 3.043-59.676a.02.02 0 0 1 .023-.018C370.533 253.318 440.7 321.8 440.7 321.8z" class="cls-4" transform="translate(-329.262 -269.347)"/>
                    <g id="Group_859" clip-path="url(#clip-path-2)">
                        <path id="Path_12595" d="M440.7 321.8s-5.772 42.746-35.032 59.48c-28.974 4.133-61.471-19.876-72.428-48.729-8.661-22.772-1.08-48.617 3.043-59.676a.02.02 0 0 1 .023-.018C370.533 253.318 440.7 321.8 440.7 321.8z" class="cls-10" transform="translate(-329.262 -269.347)"/>
                    </g>
                    <path id="Path_12597" d="M440.7 321.8s-5.772 42.746-35.032 59.48c-28.974 4.133-61.471-19.876-72.428-48.729-8.661-22.772-1.08-48.617 3.043-59.676a.02.02 0 0 1 .023-.018C370.533 253.318 440.7 321.8 440.7 321.8z" class="cls-6" transform="translate(-329.262 -269.347)"/>
                </g>
                <path id="Path_12598" d="M325.182 306.845s32.984 47.346 71.5 51.289 63.155-28.5 64.755-52.975" class="cls-6" transform="translate(98.464 2.594)"/>
                <path id="Path_12599" d="M316.112 228.2c2.9-8.117 23.713-5.394 30.308 19.909s32.628 86.767 32.628 86.767 103.39-152.146 121.939-158.01 11.2 20.5-13.566 57.082c0 0 23.2-4.084 29.283.018s3.127 28.663 6.37 37.275c5.435 14.436-6.646 17.482-6.646 17.482s9.506-.084 16.148 6.138 3.311 31.959 5.207 39.237S527 347.524 527 347.524s30.486 16.627 23.6 20.789c-11.606 7.014-18.229-.172-18.229-.172s-46.832 58.831-82.155 71.922-104.099-38.963-111.49-67.323 1.43-26.61-4.176-73.8-18.438-70.74-18.438-70.74z" class="cls-1" transform="translate(88.976 -132.479)"/>
                <g id="Group_864" transform="translate(410.951)">
                    <rect id="Rectangle_371" width="158.866" height="273.386" class="cls-1" rx="4.424" transform="matrix(.968 -.252 .252 .968 0 40.065)"/>
                    <g id="Group_861" transform="translate(62.571 22.267)">
                        <path id="Path_12600" d="M353.921 170.565a2.217 2.217 0 1 1-2.7-1.586 2.214 2.214 0 0 1 2.7 1.586z" class="cls-12" transform="translate(-349.558 -162.214)"/>
                        <path id="Path_12601" d="M366.8 166.676a1.389 1.389 0 1 1-1.694-.994 1.388 1.388 0 0 1 1.694.994z" class="cls-12" transform="translate(-334.381 -165.636)"/>
                        <rect id="Rectangle_372" width="18.186" height="1.568" class="cls-12" rx=".318" transform="rotate(-14.607 29.854 -26.881)"/>
                    </g>
                    <path id="Path_12602" d="M467.359 162.3l63.856 245.011a5.359 5.359 0 0 1-3.835 6.535l-134.464 35.045a5.357 5.357 0 0 1-6.535-3.835l-63.855-245.008a5.356 5.356 0 0 1 3.832-6.535l27.6-7.2a4.5 4.5 0 0 1 4.817 1.77l1.993 2.846a4.5 4.5 0 0 0 4.817 1.77l60.6-15.794a4.5 4.5 0 0 0 3.339-3.9l.352-3.456a4.494 4.494 0 0 1 3.339-3.894l27.6-7.2a5.359 5.359 0 0 1 6.544 3.845z" class="cls-12" transform="translate(-315.448 -151.051)"/>
                    <g id="Group_863" transform="translate(29.797 51.443)">
                        <circle id="Ellipse_965" cx="56.805" cy="56.805" r="56.805" class="cls-1" transform="rotate(-66.526 79.432 52.103)"/>
                        <g id="Group_862" transform="translate(50.881 37.85)">
                            <path id="Path_12603" d="M358.755 267.85a5.031 5.031 0 0 0 6.1 2.828l18.665-5.392a7.682 7.682 0 0 0 9.815 6.476 7.738 7.738 0 0 0 5.285-9.58 7.657 7.657 0 0 0-.436-1.132l18.665-5.392a5.034 5.034 0 0 0 3.654-5.645 4.894 4.894 0 0 0-6.167-3.81l-1.582-.949a15.68 15.68 0 0 1-7-9.1l-3.552-12.293a21.8 21.8 0 0 0-24.065-15.516 5.916 5.916 0 1 0-5.772 1.668 21.8 21.8 0 0 0-12.082 25.96l3.591 12.428a15.694 15.694 0 0 1-1.94 12.936 4.89 4.89 0 0 0-3.179 6.513zm18.417-64.5a3.456 3.456 0 1 1-4.281-2.361 3.456 3.456 0 0 1 4.282 2.364z" class="cls-12" transform="translate(-358.407 -198.393)"/>
                            <path id="Line_405" d="M8.232 0L0 2.378" class="cls-12" transform="translate(28.152 62.963)"/>
                            <path id="Line_406" d="M37.758 0L0 10.907" class="cls-12" transform="translate(10.812 49.779)"/>
                        </g>
                    </g>
                    <path id="Path_12604" d="M451.634 277.311l-76.659 19.979A17.193 17.193 0 0 1 354 284.988a17.2 17.2 0 0 1 12.3-20.977l76.659-19.979a17.194 17.194 0 0 1 20.975 12.3 17.193 17.193 0 0 1-12.3 20.979z" class="cls-13" transform="translate(-282.926 -61.939)"/>
                </g>
                <path id="Path_12605" d="M317.95 427.261s-23.259-54.125-11.393-119.761" class="cls-6" transform="translate(75.452 5.048)"/>
                <path id="Path_12606" d="M309.446 394.609S262.43 408.983 257.66 419.8s21.088 1.715 21.088 1.715" class="cls-6" transform="translate(27.212 96.173)"/>
                <path id="Path_12607" d="M333.745 286.147s-43.3 42.906-72.266 54.358" class="cls-6" transform="translate(31.821 -17.295)"/>
                <path id="Path_12608" d="M227.951 280.514s-7.884 57.929 21.556 68.867" class="cls-6" transform="translate(-4.257 -23.188)"/>
                <path id="Path_12609" d="M186.731 388.525s-.239-75.955 14.847-99.437" class="cls-6" transform="translate(-46.377 -14.218)"/>
                <path id="Path_12610" d="M184.464 299.867s-4.244 47.166 5.269 62.557" class="cls-6" transform="translate(-49.735 -2.942)"/>
                <path id="Path_12611" d="M189.73 345.368s-32.929-11.344-39.757 2.721 19.639 1.594 19.639 1.594" class="cls-6" transform="translate(-86.009 40.137)"/>
                <path id="Path_12612" d="M195.891 367.228s-32.339 18.217-34 28.64" class="cls-6" transform="translate(-72.362 67.528)"/>
                <path id="Path_12613" d="M204.324 342.6s61.9 93.552 96.065 84.958" class="cls-6" transform="translate(-27.972 41.763)"/>
                <path id="Path_12614" d="M253.422 406.727s-48.537 35.579-55.6 32.569" class="cls-6" transform="translate(-34.776 108.85)"/>
                <path id="Path_12615" d="M391.137 335.1c3.276-2.689 5.433-4.465 6.134-5.023-.728.64-2.848 2.48-6.134 5.023z" class="cls-11" transform="translate(167.463 28.664)"/>
                <text id="Notification" fill="#fff" font-family="Roboto-Medium, Roboto" font-size="17px" font-weight="500" letter-spacing="0.017em" transform="rotate(-15.142 1091.466 -1734.44)">
                    <tspan x="0" y="0">Notification</tspan>
                </text>
            </g>
        </g>
    </g>
</svg>
