<svg xmlns="http://www.w3.org/2000/svg" width="504.862" height="505.795" viewBox="0 0 504.862 505.795">
    <defs>
        <style>
            .cls-2{fill:#00d97e}.cls-15,.cls-16,.cls-3{fill:none}.cls-16,.cls-3{stroke:#fff}.cls-10,.cls-15,.cls-16,.cls-17,.cls-3{stroke-miterlimit:10}.cls-3{opacity:.3}.cls-10,.cls-5{fill:#fff}.cls-7{fill:#263238}.cls-10,.cls-15{stroke:#263238}.cls-11{fill:#b2b2b2}.cls-17{fill:#08082c;stroke:#08082c}
        </style>
    </defs>
    <g id="Group_433" transform="translate(-28.504 -28)">
        <g id="Background_Simple" transform="translate(28.875 28)">
            <g id="Group_412" opacity="0.5">
                <path id="Path_659" d="M519.8 288.446c-11.867 44.277-40.048 93.667-84.627 111.76-67.356 27.345-70.288 84.03-194.979 90.738a251.684 251.684 0 0 1-54.457-2.734 209.382 209.382 0 0 1-26.054-5.981C84.312 459.792 40.271 398.737 30.65 331.364 17.979 242.754 76.019 194.383 114 165.677S191.413 36.06 313.94 28.5a243.927 243.927 0 0 1 55.973 2.778c42.159 7.188 86.287 27.788 114.01 61.422q3.122 3.791 6.019 7.784c37.764 52.011 46.037 127.598 29.858 187.962z" class="cls-2" transform="translate(-28.875 -28)"/>
            </g>
        </g>
        <g id="Graphics" transform="translate(47.122 166.558)">
            <path id="Path_660" d="M445.114 267.345v-6.289c0-12.416-8.26-16.809-16.7-16.809-8.606 0-16.514 6.326-16.514 16.809v6.289h-2.351v34.829h37.731v-34.829zm-15.586 19.141v6.31h-3.573v-6.31a4.765 4.765 0 1 1 3.573 0zm10.358-19.141h-22.945v-6.289a11.485 11.485 0 0 1 11.472-11.472c6.325 0 11.472 4.327 11.472 11.472z" class="cls-3" transform="translate(-5.288 -142.793)"/>
            <g id="Group_414" transform="translate(348.889)">
                <rect id="Rectangle_184" width="136.855" height="29.912" class="cls-3" rx="13.475"/>
                <g id="Group_413" opacity="0.3" transform="translate(22.484 8.063)">
                    <path id="Path_661" d="M385.89 165.6l3.118 3.442-1.5 1.119-2.324-4.09-2.3 4.09-1.5-1.119 3.089-3.442-4.561-.941.558-1.8 4.3 1.883-.531-4.648h1.884l-.5 4.648 4.3-1.852.558 1.794z" class="cls-5" transform="translate(-379.917 -160.103)"/>
                    <path id="Path_662" d="M396.356 165.6l3.119 3.442-1.5 1.119-2.325-4.09-2.294 4.09-1.5-1.119 3.09-3.442-4.561-.941.558-1.8 4.3 1.883-.529-4.648h1.883l-.5 4.648 4.3-1.852.558 1.794z" class="cls-5" transform="translate(-378.767 -160.103)"/>
                    <path id="Path_663" d="M406.826 165.6l3.118 3.442-1.5 1.119-2.325-4.09-2.3 4.09-1.5-1.119 3.089-3.442-4.561-.941.558-1.8 4.3 1.883-.531-4.648h1.884l-.5 4.648 4.3-1.852.559 1.794z" class="cls-5" transform="translate(-377.616 -160.103)"/>
                    <path id="Path_664" d="M417.291 165.6l3.119 3.442-1.5 1.119-2.324-4.09-2.3 4.09-1.5-1.119 3.089-3.442-4.561-.941.558-1.8 4.3 1.883-.531-4.648h1.883l-.5 4.648 4.3-1.852.558 1.794z" class="cls-5" transform="translate(-376.466 -160.103)"/>
                    <path id="Path_665" d="M427.76 165.6l3.118 3.442-1.5 1.119-2.325-4.09-2.3 4.09-1.5-1.119 3.089-3.442-4.561-.941.558-1.8 4.3 1.883-.529-4.648h1.882l-.5 4.648 4.3-1.852.558 1.794z" class="cls-5" transform="translate(-375.316 -160.103)"/>
                    <path id="Path_666" d="M438.227 165.6l3.118 3.442-1.5 1.119-2.325-4.09-2.3 4.09-1.5-1.119 3.089-3.442-4.561-.941.558-1.8 4.3 1.883-.531-4.648h1.883l-.5 4.648 4.3-1.852.559 1.794z" class="cls-5" transform="translate(-374.165 -160.103)"/>
                    <path id="Path_667" d="M448.7 165.6l3.118 3.442-1.5 1.119-2.325-4.09-2.3 4.09-1.5-1.119 3.09-3.442-4.562-.941.559-1.8 4.3 1.883-.529-4.648h1.882l-.5 4.648 4.3-1.852.558 1.794z" class="cls-5" transform="translate(-373.015 -160.103)"/>
                    <path id="Path_668" d="M459.162 165.6l3.118 3.442-1.5 1.119-2.325-4.09-2.3 4.09-1.5-1.119 3.089-3.442-4.561-.941.558-1.8 4.3 1.883-.529-4.648h1.888l-.5 4.648 4.3-1.852.558 1.794z" class="cls-5" transform="translate(-371.865 -160.103)"/>
                </g>
            </g>
            <g id="Group_415" transform="translate(0 54.634)">
                <path id="Path_669" d="M86.446 237.8a4.633 4.633 0 0 0-3.815-2.674h-2.517v-2.256a13.672 13.672 0 0 0 2.959-8.627c0-5.662-3.406-10.251-7.608-10.251s-7.608 4.589-7.608 10.251a13.82 13.82 0 0 0 2.747 8.382v2.5h-3.366a4.754 4.754 0 0 0-3.911 2.674l-4.559 7.683h32.125z" class="cls-3" transform="translate(-43.837 -200.752)"/>
                <circle id="Ellipse_37" cx="23.882" cy="23.882" r="23.882" class="cls-3" transform="rotate(-67.5 33.022 22.064)"/>
            </g>
        </g>
        <g id="Arrows" transform="translate(171.715 79.889)">
            <g id="Group_416" opacity="0.2">
                <path id="Path_670" d="M242.762 351.112a135.066 135.066 0 0 1-69.374-117.92c0-74.423 60.547-134.97 134.97-134.97a134.866 134.866 0 0 1 27.133 2.763l-3.445 11.544L370.4 103.4l-27.082-28.649-3.288 11.017a150.753 150.753 0 0 0-31.672-3.368c-83.143 0-150.786 67.643-150.786 150.787a150.938 150.938 0 0 0 81.66 133.98l-9.54-15.807z" class="cls-5" transform="translate(-157.572 -74.751)"/>
                <path id="Path_671" d="M356.378 91.236l11.847 12.534-14.55 3.462a135.172 135.172 0 0 1 82.03 124.149c0 74.422-60.547 134.97-134.97 134.97a134.437 134.437 0 0 1-39.075-5.78l4.686-8.493-39.417.765L247.3 386.6l6.565-11.9a150.163 150.163 0 0 0 46.871 7.468c83.145 0 150.787-67.643 150.787-150.786 0-63.504-39.46-117.959-95.145-140.146z" class="cls-5" transform="translate(-149.95 -72.939)"/>
            </g>
        </g>
        <g id="Device_1" transform="translate(120.44 141.658)">
            <path id="Path_672" d="M367.1 177.349a2.686 2.686 0 0 0 2.686-2.686v-22.188a2.686 2.686 0 0 0-2.686-2.686h-.121v-8.679a10.706 10.706 0 0 0-10.711-10.71H122.08a10.706 10.706 0 0 0-10.706 10.706v161.788A10.706 10.706 0 0 0 122.08 313.6h234.188a10.706 10.706 0 0 0 10.706-10.706V244.85h.121a2.686 2.686 0 0 0 2.686-2.686v-22.189a2.687 2.687 0 0 0-2.686-2.686h-.121v-2.8h.121a2.686 2.686 0 0 0 2.686-2.686v-22.192a2.687 2.687 0 0 0-2.686-2.686h-.121v-9.576z" class="cls-7" transform="translate(-111.374 -130.404)"/>
            <g id="Group_417" transform="translate(9.548 7.137)">
                <path id="Rectangle_185" fill="#00d97e" stroke="#263238" stroke-miterlimit="10" d="M0 0H236.505V168.922H0z"/>
            </g>
            <g id="Group_419" transform="translate(62.064 28.853)">
                <path id="Rectangle_186" fill="#e3e3e3" stroke="#263238" stroke-miterlimit="10" d="M0 0H132.264V106.233H0z"/>
                <path id="Rectangle_187" d="M0 0H111.612V12.594H0z" class="cls-10" transform="translate(10.212 35.088)"/>
                <path id="Rectangle_188" d="M0 0H111.612V12.594H0z" class="cls-10" transform="translate(10.212 55.065)"/>
                <path id="Path_673" d="M233.093 170.334v-2.418a7.119 7.119 0 0 0-14.238 0v2.418h-.133v13.389h14.5v-13.389zm-6.69 7.357v2.425h-1.374v-2.425a1.832 1.832 0 1 1 1.374 0zm3.981-7.357h-8.819v-2.418a4.41 4.41 0 0 1 8.819 0z" class="cls-7" transform="translate(-161.641 -155.917)"/>
                <g id="Group_418" transform="translate(47.82 58.955)">
                    <path id="Path_674" d="M212.306 211.293l1.006 1.111-.484.361-.75-1.32-.74 1.32-.484-.361 1-1.111-1.472-.3.181-.579 1.385.607-.171-1.5h.608l-.162 1.5 1.386-.6.181.578z" class="cls-11" transform="translate(-210.378 -209.518)"/>
                    <path id="Path_675" d="M215.683 211.293l1.006 1.111-.484.361-.75-1.32-.74 1.32-.484-.361 1-1.111-1.472-.3.181-.579 1.385.607-.171-1.5h.608l-.161 1.5 1.385-.6.181.578z" class="cls-11" transform="translate(-210.007 -209.518)"/>
                    <path id="Path_676" d="M219.06 211.293l1.007 1.111-.484.361-.75-1.32-.74 1.32-.484-.361 1-1.111-1.472-.3.18-.579 1.386.607-.171-1.5h.607l-.161 1.5 1.386-.6.18.578z" class="cls-11" transform="translate(-209.636 -209.518)"/>
                    <path id="Path_677" d="M222.437 211.293l1.007 1.111-.484.361-.75-1.32-.74 1.32-.484-.361 1-1.111-1.472-.3.18-.579 1.386.607-.171-1.5h.608l-.162 1.5 1.386-.6.18.578z" class="cls-11" transform="translate(-209.265 -209.518)"/>
                    <path id="Path_678" d="M225.815 211.293l1.006 1.111-.484.361-.75-1.32-.74 1.32-.484-.361 1-1.111-1.471-.3.18-.579 1.386.607-.171-1.5h.607l-.161 1.5 1.386-.6.18.578z" class="cls-11" transform="translate(-208.893 -209.518)"/>
                    <path id="Path_679" d="M229.192 211.293l1.008 1.107-.484.361-.749-1.32-.741 1.32-.484-.361 1-1.111-1.471-.3.18-.579 1.386.607-.171-1.5h.607l-.161 1.5 1.386-.6.18.578z" class="cls-11" transform="translate(-208.522 -209.518)"/>
                    <path id="Path_680" d="M232.57 211.293l1.006 1.111-.484.361-.75-1.32-.74 1.32-.484-.361 1-1.111-1.472-.3.181-.579 1.385.607-.171-1.5h.608l-.161 1.5 1.385-.6.181.578z" class="cls-11" transform="translate(-208.151 -209.518)"/>
                    <path id="Path_681" d="M235.947 211.293l1.006 1.111-.484.361-.75-1.32-.74 1.32-.484-.361 1-1.111-1.472-.3.181-.579 1.386.607-.171-1.5h.607l-.161 1.5 1.386-.6.18.578z" class="cls-11" transform="translate(-207.78 -209.518)"/>
                </g>
                <text id="Old_Password" font-family="Roboto-Medium, Roboto" font-size="7px" font-weight="500" opacity="0.2" transform="translate(40.075 43.715)">
                    <tspan x="0" y="0">Old Password</tspan>
                </text>
            </g>
        </g>
        <g id="Layer_9" transform="translate(229.775 244.747)">
            <path id="Rectangle_189" d="M0 0H37.272V10.937H0z" class="cls-2" transform="translate(0 .03)"/>
            <text id="Change" fill="#fff" font-family="Roboto-Medium, Roboto" font-size="7px" font-weight="500" transform="translate(6.002 7)">
                <tspan x="0" y="0">Change</tspan>
            </text>
        </g>
        <g id="Mug" transform="translate(187.336 396.885)">
            <g id="Group_423">
                <g id="Group_420">
                    <ellipse id="Ellipse_38" cx="70.997" cy="66.717" class="cls-7" rx="70.997" ry="66.717" transform="translate(1.49 3.476)"/>
                    <ellipse id="Ellipse_39" cx="70.997" cy="66.717" class="cls-10" rx="70.997" ry="66.717"/>
                    <ellipse id="Ellipse_40" cx="61.282" cy="57.588" class="cls-10" rx="61.282" ry="57.588" transform="translate(9.715 9.129)"/>
                </g>
                <path id="Path_682" d="M255.319 385.535c-24.6 0-44.535 25.056-44.535 55.963 0 19.939 8.305 37.43 20.8 47.343 2.064.173 4.149.276 6.261.276 25.853 0 48.4-13.235 60.438-32.88a69.532 69.532 0 0 0 1.573-14.739c-.002-30.907-19.941-55.963-44.537-55.963z" class="cls-7" transform="translate(-167.345 -357.593)"/>
                <g id="Group_421" transform="translate(14.959 20.193)">
                    <path id="Rectangle_190" d="M0 0H29.007V6.939H0z" class="cls-10" transform="translate(0 38.477)"/>
                    <ellipse id="Ellipse_41" cx="44.235" cy="41.568" class="cls-10" rx="44.235" ry="41.568" transform="translate(22.03)"/>
                    <ellipse id="Ellipse_42" cx="36.929" cy="34.703" fill="#08082c" stroke="#263238" stroke-miterlimit="10" rx="36.929" ry="34.703" transform="translate(29.336 6.865)"/>
                </g>
                <g id="Group_422" transform="translate(62.222 5.604)">
                    <path id="Path_683" d="M231.238 389.741a14.034 14.034 0 0 0-.825-1.695c-3.766-6.553-3.294-14.893-.471-22.637" class="cls-15" transform="translate(-227.707 -365.409)"/>
                    <path id="Path_684" d="M231.475 401.126s1.976-7.5-.587-13.794" class="cls-16" transform="translate(-227.357 -363)"/>
                    <path id="Path_685" d="M243.56 388.046c-3.766-6.553-3.3-14.893-.471-22.637" class="cls-15" transform="translate(-226.262 -365.409)"/>
                    <path id="Path_686" d="M244.7 401.294s2.354-8.936-1.412-15.489" class="cls-16" transform="translate(-225.994 -363.168)"/>
                    <path id="Path_687" d="M257.171 388.929q-.215-.448-.464-.882c-3.766-6.553-3.3-14.893-.471-22.637" class="cls-15" transform="translate(-224.817 -365.409)"/>
                    <path id="Path_688" d="M257.8 401.206s2.15-8.163-.948-14.606" class="cls-16" transform="translate(-224.503 -363.08)"/>
                </g>
            </g>
        </g>
        <g id="Right_Hand" transform="translate(271.479 256.802)">
            <g id="Group_428">
                <path id="Path_689" d="M399.107 373.215s-1.154.063-3.223.287c-1.96-6.654-7.837-26.349-11.7-36.524-4.689-12.363-11.085-29.843-15.348-37.089S365 288.378 356.9 281.557s-15.348-3.837-15.348-3.837-1.279-5.115-9.379-7.674-19.185 2.558-19.185 2.558-1.7-2.984-9.8-2.132-11.085 8.1-11.085 8.1-16.626-33.253-23.021-35.811-12.789 3.837-10.231 9.806 21.742 39.222 24.3 46.894 8.1 20.464 8.1 20.464-18.332-13.217-23.874-14.5-13.642-2.132-18.332 2.984 6.4 6.394 15.348 14.494 23.448 26.858 30.269 38.8 21.316 14.068 27.711 20.889c4.5 4.8 10.9 11.5 14.294 15.047a38.657 38.657 0 0 0-3.211 3.712l14.069 34.531s2.983-4.689 14.92-14.068 49.027-20.889 49.027-20.889z" class="cls-17" transform="translate(-247.406 -233.264)"/>
                <g id="Group_427">
                    <g id="Group_425">
                        <g id="Group_424">
                            <path id="Path_690" d="M338.524 392.037s-10.232-10.657-16.624-17.478-20.889-8.952-27.711-20.889-21.316-30.7-30.269-38.8-20.036-9.379-15.347-14.494 12.789-4.264 18.331-2.984 23.874 14.494 23.874 14.494-5.542-12.789-8.1-20.463-21.742-40.926-24.3-46.894 3.837-12.363 10.232-9.806 23.02 35.811 23.02 35.811 2.984-7.248 11.085-8.1 9.806 2.132 9.806 2.132 11.083-5.117 19.183-2.558 9.38 7.674 9.38 7.674 7.246-2.985 15.347 3.837 7.674 11.085 11.937 18.331 10.658 24.726 15.348 37.091 12.363 38.794 12.363 38.794l-54.997 29.845z" class="cls-10" transform="translate(-247.458 -234.147)"/>
                            <path id="Line_218" d="M0 0L14.921 22.169" class="cls-15" transform="translate(44.171 36.39)"/>
                            <path id="Line_219" d="M0 0L13.642 21.316" class="cls-15" transform="translate(65.061 30.421)"/>
                            <path id="Line_220" d="M0 0L9.379 16.626" class="cls-15" transform="translate(93.624 35.537)"/>
                            <path id="Line_221" d="M0 0L1.95 5.656" class="cls-15" transform="translate(49.895 96.813)"/>
                            <path id="Line_222" d="M0 0L5.221 15.14" class="cls-15" transform="translate(43.319 77.743)"/>
                        </g>
                        <path id="Line_223" d="M0 0L3.41 4.689" class="cls-15" transform="translate(67.192 63.674)"/>
                        <path id="Line_224" d="M0 0L3.837 5.116" class="cls-15" transform="translate(82.966 58.985)"/>
                        <path id="Line_225" d="M0 0L2.558 8.1" class="cls-15" transform="translate(103.856 56.427)"/>
                    </g>
                    <g id="Group_426" transform="translate(85.524 131.033)">
                        <path id="Path_691" d="M324.514 380.343s9.8-13.643 29.842-20.463a148.044 148.044 0 0 1 35.811-7.674l12.363 27.71s-37.089 11.511-49.026 20.89-14.921 14.068-14.921 14.068z" class="cls-10" transform="translate(-324.514 -352.206)"/>
                        <path id="Path_692" d="M357.023 469.791s-16.2-40.5-20.463-49.026 2.557-12.789 2.557-12.789 9.806-13.216 35.385-23.448 27.711-10.657 34.106-3.411 48.337 88.75 48.337 88.75" class="cls-10" transform="translate(-323.344 -349.57)"/>
                    </g>
                </g>
            </g>
        </g>
        <g id="Left_Hand" transform="translate(28.966 292.054)">
            <g id="Group_432">
                <path id="Path_693" d="M119.791 438.809a46.348 46.348 0 0 1 19.6-19.466c13.8-7.04 22.77-10.07 35.975-23.095s34.972-24.66 43.946-26.263 11.952-5.465 8.087-9.869-14.418-4.647-23.814-1.473S185.5 365.7 185.5 365.7c4.757-9.369 7.925-20.652 12.61-30.057 3.324-6.674 8.784-17.685 12.015-24.405 2.109-4.385 8.4-11.688 5.6-16.478-2.814-4.82-9.532-1.614-12.939 2.967-5.414 7.28-31.908 47.218-31.908 47.218l15.1-31.962 10.214-21.623c2.232-4.724 6.575-11.049 3.925-16.5a7.837 7.837 0 0 0-13.7-.831c-3.683 6-31.838 59.29-31.838 59.29s17.624-45.738 19.877-50.994c2.751-6.42 1.127-12.015-2.933-11.982-5.9.046-8.686 6.576-11 11.019l1.289-1.874c-5.515 7.353-9.224 17.015-13.836 24.994q-8.088 13.99-16.739 27.643c1.134-9.425 4.916-18.256 9.6-26.43 2.827-4.931 14.6-17.041 12.59-22.995-1.731-5.124-14.643 4.506-22.152 15.019-4.093 5.73-14.819 21.353-17.769 32.342s-23.613 48.42-29.131 58.85-12.146 28.845-12.146 28.845z" class="cls-17" transform="translate(-24.201 -265.422)"/>
                <path id="Path_694" d="M136.979 415.454s-10.627-13.011-31.047-18.584a148.035 148.035 0 0 0-36.216-5.451l-10.631 28.42s37.729 9.2 50.221 17.827 15.761 13.121 15.761 13.121z" class="cls-17" transform="translate(-25.646 -252.116)"/>
                <g id="Group_431">
                    <g id="Group_429" transform="translate(46.629)">
                        <path id="Path_695" d="M118.525 434.375a46.341 46.341 0 0 1 19.6-19.465c13.8-7.041 22.768-10.07 35.975-23.1s34.971-24.66 43.945-26.263 11.954-5.465 8.087-9.869-14.418-4.646-23.813-1.473-18.077 7.058-18.077 7.058c4.757-9.37 7.925-20.652 12.61-30.058 3.325-6.674 8.784-17.685 12.015-24.4 2.109-4.386 8.4-11.689 5.6-16.479-2.812-4.819-9.531-1.614-12.938 2.968-5.415 7.279-31.91 47.218-31.91 47.218l15.1-31.963c7.648-16.192 11.3-23.913 10.214-21.623 2.231-4.724 6.574-11.049 3.923-16.5a7.837 7.837 0 0 0-13.7-.83c-3.683 6-31.838 59.288-31.838 59.288s17.624-45.737 19.877-50.993c2.751-6.42 1.127-12.015-2.932-11.984-5.9.047-8.687 6.577-11 11.019l1.289-1.874c-5.515 7.353-9.224 17.016-13.836 24.995q-8.086 13.99-16.738 27.642c1.133-9.425 4.915-18.254 9.6-26.43 2.827-4.931 14.6-17.041 12.59-22.994-1.731-5.126-14.643 4.505-22.152 15.018-4.093 5.73-14.819 21.353-17.768 32.342s-23.614 48.421-29.133 58.85-12.144 28.845-12.144 28.845z" class="cls-10" transform="translate(-70.969 -265.909)"/>
                        <path id="Line_226" d="M5.091 0L0 10.284" class="cls-15" transform="translate(77.255 62.977)"/>
                        <path id="Line_227" d="M3.971 0L0 5.148" class="cls-15" transform="translate(94.673 74.601)"/>
                        <path id="Line_228" d="M5.103 0L0 7.434" class="cls-15" transform="translate(108.166 95.357)"/>
                        <path id="Line_229" d="M0.41 0L0 4.421" class="cls-15" transform="translate(86.465 90.472)"/>
                        <path id="Line_230" d="M0 0L0.017 4.277" class="cls-15" transform="translate(74.156 82.397)"/>
                        <path id="Line_231" d="M0 0L1.027 7.266" class="cls-15" transform="translate(55.445 73.491)"/>
                    </g>
                    <g id="Group_430" transform="translate(0 134.382)">
                        <path id="Path_696" d="M135.712 411.021s-10.627-13.012-31.047-18.584a148.072 148.072 0 0 0-36.215-5.452l-10.632 28.42s37.729 9.2 50.222 17.827 15.76 13.122 15.76 13.122z" class="cls-10" transform="translate(-25.785 -386.985)"/>
                        <path id="Path_697" d="M121.975 469.776s2.644-8.888 6.373-17.661-3.342-12.607-3.342-12.607-10.6-12.586-36.763-21.221-28.315-8.929-34.25-1.3-25.036 53.47-25.036 53.47" class="cls-10" transform="translate(-28.957 -384.288)"/>
                    </g>
                </g>
            </g>
        </g>
    </g>
</svg>
