<svg xmlns="http://www.w3.org/2000/svg" width="555.592" height="510.143" viewBox="0 0 555.592 510.143">
    <defs>
        <clipPath id="clip-path">
            <path id="Path_12394" d="M265.682 407.661a22.795 22.795 0 1 1-5.78-31.723 22.807 22.807 0 0 1 5.78 31.723z" class="cls-1" transform="translate(-224.121 -371.887)"/>
        </clipPath>
        <clipPath id="clip-path-2">
            <path id="Path_12426" d="M481.1 98.711l-17.491 170.657-10.756 104.984-150.309-15.4-29.247-3-18.727-1.918 16.6-162.018L282.815 78.4z" class="cls-2" transform="translate(-254.57 -78.4)"/>
        </clipPath>
        <clipPath id="clip-path-3">
            <circle id="Ellipse_958" cx="36.258" cy="36.258" r="36.258" class="cls-3" transform="matrix(.768 -.64 .64 .768 0 46.414)"/>
        </clipPath>
        <clipPath id="clip-path-4">
            <path id="Path_12451" d="M426.341 201.77l-4.1 9.315-110.408 147.206-12.3-7.839 16.694-20.945L415.4 205.118l8.747-5.556a3.106 3.106 0 0 1 2.194 2.208z" class="cls-1" transform="translate(-299.536 -199.562)"/>
        </clipPath>
        <clipPath id="clip-path-5">
            <path id="Path_12455" d="M351.958 292.88s-12.32 24.46-24.179 41.761l-8.471 2.191s-19.43 19.308-31.285 28.945a26.587 26.587 0 0 1-5.8-4.865s16.835-32.326 35.458-52.788a23.762 23.762 0 0 1 6.111 3.244 30 30 0 0 1 6.378 6.121l20.759-26.117z" class="cls-1" transform="translate(-282.228 -291.371)"/>
        </clipPath>
        <clipPath id="clip-path-6">
            <path id="Path_12489" d="M354.3 322.692l-166.549 70.092-17.167 7.228-32.354-76.875L63.1 144.62 246.815 67.3z" class="cls-2" transform="translate(-63.1 -67.3)"/>
        </clipPath>
        <style>
            .cls-1,.cls-23,.cls-3,.cls-6{fill:#0c6}.cls-1,.cls-14,.cls-2,.cls-21,.cls-3,.cls-9{stroke:#263238}.cls-1,.cls-2,.cls-21,.cls-5,.cls-9{stroke-linecap:round;stroke-linejoin:round}.cls-11,.cls-2{fill:#fff}.cls-14,.cls-3{stroke-miterlimit:10}.cls-5,.cls-9{fill:none}.cls-5{stroke:#feffff}.cls-10,.cls-8{fill:rgba(0,0,0,.7)}.cls-8{opacity:.3}.cls-10{opacity:.2}.cls-13{fill:#263238}.cls-14{fill:silver}.cls-21{fill:#757575}.cls-23{opacity:.4}
        </style>
    </defs>
    <g id="Group_832" transform="translate(-25.059 -50.162)">
        <g id="Background_Simple" transform="translate(25.059 50.162)">
            <g id="Group_723">
                <path id="Path_12385" fill="#0c6" d="M276.557 51.6c153.521-13.677 153.78 72.939 222.953 153.632s83.976 117.279 57.9 210.3-113.95 165.939-222.657 124.623-170.979-1.639-239.546-38.329S1.18 394.252 51.368 310.71 87.258 68.454 276.557 51.6z" opacity="0.5" transform="translate(-25.059 -50.162)"/>
            </g>
        </g>
        <g id="Doodles" transform="translate(28.485 55.974)">
            <g id="Group_729">
                <g id="Group_724" transform="translate(251.507)">
                    <rect id="Rectangle_305" width="38.41" height="38.41" class="cls-5" rx="5.09" transform="rotate(-11.893 38 3.958)"/>
                    <path id="Line_392" d="M0 0L3.228 15.326" class="cls-5" transform="translate(21.137 15.087)"/>
                    <path id="Line_393" d="M15.326 0L0 3.228" class="cls-5" transform="translate(15.087 21.136)"/>
                </g>
                <g id="Group_725" transform="translate(506.073 269.987)">
                    <rect id="Rectangle_306" width="38.41" height="38.41" class="cls-5" rx="5.09" transform="rotate(-11.893 38 3.958)"/>
                    <path id="Line_394" d="M8.555 0L0 13.12" class="cls-5" transform="translate(18.473 16.191)"/>
                    <path id="Line_395" d="M13.12 8.555L0 0" class="cls-5" transform="translate(16.191 18.473)"/>
                </g>
                <g id="Group_726" transform="translate(163.067 432.462)">
                    <rect id="Rectangle_307" width="38.41" height="38.41" class="cls-5" rx="5.09" transform="rotate(3.304 1.107 38.383)"/>
                    <path id="Line_396" d="M15.636 0.903L0 0" class="cls-5" transform="translate(12.462 19.829)"/>
                </g>
                <g id="Group_728" transform="translate(0 245.97)">
                    <rect id="Rectangle_308" width="38.41" height="38.41" class="cls-5" rx="5.09" transform="rotate(18.329 6.04 37.436)"/>
                    <path id="Line_397" d="M19.595 0L0 9.843" class="cls-5" transform="translate(14.472 19.349)"/>
                    <g id="Group_727" transform="translate(17.647 13.793)">
                        <path id="Path_12387" d="M47.261 266.236a2.734 2.734 0 1 1-3.67-1.215 2.735 2.735 0 0 1 3.67 1.215z" class="cls-5" transform="translate(-42.084 -264.729)"/>
                        <path id="Path_12388" d="M53.545 278.748a2.734 2.734 0 1 1-3.67-1.217 2.733 2.733 0 0 1 3.67 1.217z" class="cls-5" transform="translate(-40.59 -261.755)"/>
                    </g>
                </g>
            </g>
        </g>
        <g id="Coins" transform="translate(238.883 427.345)">
            <g id="Group_732" transform="translate(32.56 21.023)">
                <path id="Path_12389" d="M265.682 407.661a22.795 22.795 0 1 1-5.78-31.723 22.807 22.807 0 0 1 5.78 31.723z" class="cls-6" transform="translate(-224.121 -371.887)"/>
                <g id="Group_731" clip-path="url(#clip-path)">
                    <path id="Path_12390" d="M262.014 404.907a19.186 19.186 0 1 1-4.869-26.693 19.187 19.187 0 0 1 4.869 26.693z" class="cls-8" transform="translate(-223.426 -371.192)"/>
                    <path id="Path_12391" d="M262.014 404.907a19.186 19.186 0 1 1-4.869-26.693 19.187 19.187 0 0 1 4.869 26.693z" class="cls-9" transform="translate(-223.426 -371.192)"/>
                    <g id="Group_730" transform="translate(14.283 11.896)">
                        <path id="Path_12392" d="M249.1 382.83l.921-1.332 2.3 1.592-.921 1.332c1.714 1.79 1.677 4.034 0 6.466l-.39.564-2.662-1.842.512-.741c.886-1.281.71-2.12-.186-2.74s-1.745-.488-2.63.792-.991 2.53-.142 5.349c1.031 3.437.85 5.393-.566 7.441-1.681 2.432-3.811 3.268-6.091 2.295l-.9 1.307-2.3-1.593.9-1.306c-1.739-1.807-1.683-4.077 0-6.508l.849-1.229 2.662 1.84-.973 1.407c-.885 1.281-.641 2.13.255 2.749s1.777.548 2.662-.731 1.01-2.555.142-5.349c-1.047-3.41-.849-5.392.567-7.44 1.663-2.406 3.722-3.253 5.991-2.323z" class="cls-1" transform="translate(-235.661 -381.498)"/>
                    </g>
                    <path id="Path_12393" d="M240.569 376.024a30.717 30.717 0 0 1-15.026 26.425 22.787 22.787 0 0 1 14.84-29.78 29.961 29.961 0 0 1 .186 3.355z" class="cls-10" transform="translate(-224.121 -371.7)"/>
                </g>
                <path id="Path_12395" d="M265.682 407.661a22.795 22.795 0 1 1-5.78-31.723 22.807 22.807 0 0 1 5.78 31.723z" class="cls-9" transform="translate(-224.121 -371.887)"/>
            </g>
            <g id="Group_734" transform="translate(0 1.834)">
                <circle id="Ellipse_952" cx="22.805" cy="22.805" r="22.805" class="cls-1"/>
                <circle id="Ellipse_953" cx="19.186" cy="19.186" r="19.186" class="cls-8" transform="translate(3.619 3.619)"/>
                <circle id="Ellipse_954" cx="19.186" cy="19.186" r="19.186" class="cls-9" transform="translate(3.619 3.619)"/>
                <g id="Group_733" transform="translate(17.702 10.512)">
                    <path id="Path_12396" d="M215.819 366.5v-1.62h2.8v1.62c2.428.5 3.674 2.364 3.674 5.32v.686h-3.237v-.9c0-1.557-.623-2.147-1.712-2.147s-1.713.59-1.713 2.147.624 2.645 2.926 4.481c2.8 2.24 3.766 3.952 3.766 6.442 0 2.957-1.276 4.854-3.7 5.352v1.588h-2.8v-1.588c-2.458-.5-3.7-2.395-3.7-5.352v-1.494h3.237v1.711c0 1.557.684 2.116 1.774 2.116s1.774-.559 1.774-2.116-.623-2.676-2.926-4.481c-2.8-2.209-3.765-3.952-3.765-6.442-.007-2.932 1.207-4.8 3.602-5.323z" class="cls-1" transform="translate(-212.117 -364.876)"/>
                </g>
            </g>
            <g id="Group_736" transform="translate(100.113)">
                <circle id="Ellipse_955" cx="22.805" cy="22.805" r="22.805" class="cls-1" transform="rotate(-57.348 35.11 19.201)"/>
                <path id="Path_12397" d="M321.9 370.984a19.186 19.186 0 1 1-27.115-1 19.186 19.186 0 0 1 27.115 1z" class="cls-8" transform="translate(-276.334 -352.535)"/>
                <path id="Path_12398" d="M321.9 370.984a19.186 19.186 0 1 1-27.115-1 19.186 19.186 0 0 1 27.115 1z" class="cls-9" transform="translate(-276.334 -352.535)"/>
                <g id="Group_735" transform="translate(22.113 21.546)">
                    <path id="Path_12399" d="M297.669 375.4l-1.1-1.186 2.052-1.906 1.1 1.186c2.116-1.287 4.3-.767 6.311 1.4l.467.5-2.371 2.2-.614-.661c-1.059-1.141-1.917-1.15-2.716-.408s-.853 1.6.207 2.738 2.256 1.514 5.192 1.293c3.578-.265 5.45.332 7.144 2.157 2.013 2.166 2.369 4.425.928 6.441l1.081 1.163-2.052 1.906-1.081-1.163c-2.14 1.308-4.343.765-6.356-1.4l-1.016-1.1 2.371-2.2 1.165 1.254c1.059 1.141 1.941 1.086 2.739.344s.918-1.617-.141-2.758-2.276-1.537-5.192-1.292c-3.556.287-5.448-.333-7.143-2.159-1.99-2.136-2.371-4.331-.975-6.349z" class="cls-1" transform="translate(-296.566 -372.309)"/>
                </g>
            </g>
        </g>
        <g id="Right_hand" transform="translate(309.13 85.113)">
            <g id="Group_802">
                <path id="Path_12400" d="M298.067 300.254s-.094 47.326 0 50.089 3.676 19.383 3.676 19.383l-11.491 21.184 9.893 7.975 19.248-18.92s16.39 10.125 19.385 24.6 20.827 25.026 39.332 65.126 39.611-89.73 39.611-89.73l-57.092-71.881z" class="cls-10" transform="translate(-246.088 -25.66)"/>
                <g id="Group_790">
                    <path id="Path_12401" d="M481.1 98.711l-17.491 170.657-10.756 104.984-150.309-15.4-29.247-3-18.727-1.918 16.6-162.018L282.815 78.4z" class="cls-11" transform="translate(-254.57 -78.4)"/>
                    <g id="Group_789" clip-path="url(#clip-path-2)">
                        <path id="Path_12402" d="M408.121 101.646l-85.592-8.772a2.925 2.925 0 0 0-.6 5.819l85.592 8.771a2.924 2.924 0 1 0 .6-5.817z" class="cls-13" transform="translate(-239.181 -74.963)"/>
                        <path id="Path_12403" d="M381.314 108.69l-42.8-4.386a1.463 1.463 0 0 0-.3 2.91l42.8 4.385a1.462 1.462 0 1 0 .3-2.909z" class="cls-13" transform="translate(-234.997 -72.244)"/>
                        <g id="Group_737" transform="translate(28.113 148.156)">
                            <path id="Path_12404" d="M437.819 212.344L298.9 198.108a1.462 1.462 0 1 0-.3 2.909l138.92 14.235a1.462 1.462 0 0 0 .3-2.909z" class="cls-13" transform="translate(-272.528 -198.101)"/>
                            <path id="Path_12405" d="M441.3 221.24l-161.54-16.552a1.462 1.462 0 1 0-.3 2.909L441 224.149a1.463 1.463 0 0 0 .3-2.91z" class="cls-13" transform="translate(-277.078 -196.537)"/>
                            <path id="Path_12406" d="M395.2 225.057l-116.3-11.918a1.462 1.462 0 1 0-.3 2.909l116.3 11.918a1.462 1.462 0 1 0 .3-2.909z" class="cls-13" transform="translate(-277.284 -194.528)"/>
                        </g>
                        <path id="Rectangle_309" d="M0 0H46.37V163.697H0z" class="cls-14" transform="rotate(-84.149 135.755 99.253)"/>
                        <g id="Group_763" transform="translate(28.313 45.792)">
                            <g id="Group_741">
                                <g id="Group_739">
                                    <circle id="Ellipse_956" cx="36.258" cy="36.258" r="36.258" class="cls-6" transform="matrix(.768 -.64 .64 .768 0 46.414)"/>
                                    <g id="Group_738" clip-path="url(#clip-path-3)">
                                        <circle id="Ellipse_957" cx="36.258" cy="36.258" r="36.258" fill="#fff" opacity="0.5" transform="matrix(.768 -.64 .64 .768 0 46.414)"/>
                                    </g>
                                    <circle id="Ellipse_959" cx="36.258" cy="36.258" r="36.258" fill="none" stroke="#263238" stroke-miterlimit="10" transform="matrix(.768 -.64 .64 .768 0 46.414)"/>
                                </g>
                                <g id="Group_740" transform="translate(16.437 16.438)">
                                    <path id="Path_12407" d="M319.543 160.648l30.151 15.17a34.644 34.644 0 0 0-3.988-36.469z" class="cls-11" transform="translate(-283.874 -126.141)"/>
                                    <path id="Path_12408" d="M319.7 161.117l25.246-20.552a34.574 34.574 0 0 0-14.1-10.044l-4.554 12.5z" class="cls-6" transform="translate(-283.836 -128.239)"/>
                                    <path id="Path_12409" fill="#757575" d="M322.6 128.876l-3.062 29.88 10.282-28.23a34.637 34.637 0 0 0-7.22-1.65z" transform="translate(-283.875 -128.63)"/>
                                    <path id="Path_12410" fill="#999" d="M324.822 162.916l3.5-34.109A34.616 34.616 0 0 0 293.6 177.1z" transform="translate(-290.725 -128.677)"/>
                                    <path id="Path_12411" fill="silver" d="M321.183 190.975a34.634 34.634 0 0 0 34.2-18.379L324.7 157.158l-31.28 14.208a34.61 34.61 0 0 0 27.763 19.609z" transform="translate(-290.084 -121.907)"/>
                                </g>
                            </g>
                            <g id="Group_762" transform="translate(98.539 27.019)">
                                <g id="Group_745" transform="translate(5.212)">
                                    <rect id="Rectangle_310" width="5.707" height="5.707" class="cls-3" rx=".626" transform="rotate(5.851 .291 5.694)"/>
                                    <g id="Group_744" transform="translate(8.779 1.715)">
                                        <g id="Group_742" transform="translate(.291)">
                                            <path id="Path_12412" d="M422.476 145.381l-53.29-5.461a.656.656 0 1 1 .134-1.3l53.29 5.461a.656.656 0 1 1-.134 1.3z" class="cls-13" transform="translate(-368.597 -138.612)"/>
                                        </g>
                                        <g id="Group_743" transform="translate(0 2.839)">
                                            <path id="Path_12413" d="M417.023 147.14l-48.072-4.926a.656.656 0 1 1 .134-1.3l48.072 4.926a.656.656 0 0 1-.134 1.3z" class="cls-13" transform="translate(-368.362 -140.906)"/>
                                        </g>
                                    </g>
                                </g>
                                <g id="Group_749" transform="translate(3.909 12.715)">
                                    <rect id="Rectangle_311" width="5.707" height="5.707" class="cls-21" rx=".626" transform="rotate(5.73 .279 5.692)"/>
                                    <g id="Group_748" transform="translate(8.779 1.715)">
                                        <g id="Group_746" transform="translate(.291)">
                                            <path id="Path_12414" d="M421.424 155.654l-53.29-5.461a.656.656 0 1 1 .134-1.3l53.29 5.461a.656.656 0 0 1-.134 1.3z" class="cls-13" transform="translate(-367.544 -148.885)"/>
                                        </g>
                                        <g id="Group_747" transform="translate(0 2.838)">
                                            <path id="Path_12415" d="M415.97 157.412l-48.07-4.926a.656.656 0 1 1 .135-1.3l48.071 4.926a.656.656 0 1 1-.134 1.3z" class="cls-13" transform="translate(-367.309 -151.178)"/>
                                        </g>
                                    </g>
                                </g>
                                <g id="Group_753" transform="translate(2.606 25.43)">
                                    <rect id="Rectangle_312" width="5.707" height="5.707" fill="#999" stroke="#263238" stroke-linecap="round" stroke-linejoin="round" rx=".626" transform="rotate(5.73 .279 5.692)"/>
                                    <g id="Group_752" transform="translate(8.78 1.716)">
                                        <g id="Group_750" transform="translate(.291)">
                                            <path id="Path_12416" d="M420.371 165.927l-53.29-5.461a.656.656 0 1 1 .134-1.3l53.29 5.461a.656.656 0 0 1-.134 1.3z" class="cls-13" transform="translate(-366.492 -159.158)"/>
                                        </g>
                                        <g id="Group_751" transform="translate(0 2.838)">
                                            <path id="Path_12417" d="M414.918 167.685l-48.072-4.926a.656.656 0 1 1 .134-1.3l48.072 4.926a.656.656 0 1 1-.134 1.3z" class="cls-13" transform="translate(-366.257 -161.451)"/>
                                        </g>
                                    </g>
                                </g>
                                <g id="Group_757" transform="translate(1.303 38.144)">
                                    <rect id="Rectangle_313" width="5.707" height="5.707" class="cls-14" rx=".626" transform="rotate(5.73 .279 5.692)"/>
                                    <g id="Group_756" transform="translate(8.779 1.716)">
                                        <g id="Group_754" transform="translate(.291)">
                                            <path id="Path_12418" d="M419.318 176.2l-53.29-5.461a.656.656 0 1 1 .134-1.3l53.29 5.461a.656.656 0 0 1-.134 1.3z" class="cls-13" transform="translate(-365.439 -169.431)"/>
                                        </g>
                                        <g id="Group_755" transform="translate(0 2.838)">
                                            <path id="Path_12419" d="M413.865 177.958l-48.072-4.926a.656.656 0 1 1 .134-1.3L414 176.654a.656.656 0 1 1-.134 1.3z" class="cls-13" transform="translate(-365.204 -171.724)"/>
                                        </g>
                                    </g>
                                </g>
                                <g id="Group_761" transform="translate(0 50.859)">
                                    <rect id="Rectangle_314" width="5.707" height="5.707" class="cls-2" rx=".626" transform="rotate(5.85 .291 5.695)"/>
                                    <g id="Group_760" transform="translate(8.779 1.715)">
                                        <g id="Group_758" transform="translate(.291)">
                                            <path id="Path_12420" d="M418.265 186.472l-53.29-5.461a.656.656 0 1 1 .134-1.3l53.29 5.461a.656.656 0 1 1-.134 1.3z" class="cls-13" transform="translate(-364.386 -179.703)"/>
                                        </g>
                                        <g id="Group_759" transform="translate(0 2.839)">
                                            <path id="Path_12421" d="M412.812 188.231l-48.072-4.926a.656.656 0 1 1 .134-1.3l48.072 4.926a.656.656 0 0 1-.134 1.3z" class="cls-13" transform="translate(-364.151 -181.997)"/>
                                        </g>
                                    </g>
                                </g>
                            </g>
                        </g>
                        <g id="Group_787" transform="translate(29.34 190.773)">
                            <g id="Group_764" transform="translate(136.76 17.121)">
                                <path id="Rectangle_315" d="M0 0H3.059V17.487H0z" class="cls-21" transform="rotate(-174.148 1.974 8.776)"/>
                                <path id="Rectangle_316" d="M0 0H3.059V8.232H0z" class="cls-3" transform="rotate(-174.15 2.041 7.459)"/>
                            </g>
                            <g id="Group_765" transform="translate(144.06 13.432)">
                                <path id="Rectangle_317" d="M0 0H3.059V17.487H0z" class="cls-21" transform="rotate(-174.15 1.974 8.776)"/>
                                <path id="Rectangle_318" d="M0 0H8.232V3.059H0z" class="cls-3" transform="rotate(-84.148 7.33 6.145)"/>
                            </g>
                            <g id="Group_766" transform="translate(150.568 17.471)">
                                <path id="Rectangle_319" d="M0 0H3.059V17.487H0z" class="cls-21" transform="rotate(-174.15 1.974 8.776)"/>
                                <path id="Rectangle_320" d="M0 0H3.059V8.232H0z" class="cls-3" transform="rotate(-174.148 2.142 5.483)"/>
                            </g>
                            <g id="Group_767" transform="translate(130.263 12.982)">
                                <path id="Rectangle_321" d="M0 0H3.059V17.487H0z" class="cls-21" transform="rotate(-174.148 1.974 8.776)"/>
                                <path id="Rectangle_322" d="M0 0H3.059V8.232H0z" class="cls-3" transform="rotate(-174.15 2.041 7.459)"/>
                            </g>
                            <g id="Group_768" transform="translate(122.886 17.426)">
                                <path id="Rectangle_323" d="M0 0H3.059V17.487H0z" class="cls-21" transform="rotate(-174.15 1.974 8.776)"/>
                                <path id="Rectangle_324" d="M0 0H3.059V8.232H0z" class="cls-3" transform="rotate(-174.148 2.024 7.788)"/>
                            </g>
                            <g id="Group_769" transform="translate(116.496 12.233)">
                                <path id="Rectangle_325" d="M0 0H3.059V17.487H0z" class="cls-21" transform="rotate(-174.15 1.974 8.776)"/>
                                <path id="Rectangle_326" d="M0 0H3.059V8.232H0z" class="cls-3" transform="rotate(-174.148 1.99 8.447)"/>
                            </g>
                            <g id="Group_770" transform="translate(108.714 20.626)">
                                <path id="Rectangle_327" d="M0 0H3.059V17.487H0z" class="cls-21" transform="rotate(-174.148 1.974 8.776)"/>
                                <path id="Rectangle_328" d="M0 0H3.059V8.232H0z" class="cls-3" transform="rotate(-174.148 1.99 8.447)"/>
                            </g>
                            <g id="Group_771" transform="translate(102.988 8.969)">
                                <path id="Rectangle_329" d="M0 0H3.059V17.487H0z" class="cls-21" transform="rotate(-174.15 1.974 8.776)"/>
                                <path id="Rectangle_330" d="M0 0H3.059V8.232H0z" class="cls-3" transform="rotate(-174.15 2.041 7.459)"/>
                            </g>
                            <g id="Group_772" transform="translate(96.242 7.252)">
                                <path id="Rectangle_331" d="M0 0H3.059V17.487H0z" class="cls-21" transform="rotate(-174.148 1.974 8.776)"/>
                                <path id="Rectangle_332" d="M0 0H3.059V8.232H0z" class="cls-3" transform="rotate(-174.15 2.143 5.483)"/>
                            </g>
                            <g id="Group_773" transform="translate(88.274 17.468)">
                                <path id="Rectangle_333" d="M0 0H3.059V17.487H0z" class="cls-21" transform="rotate(-174.15 1.974 8.776)"/>
                                <path id="Rectangle_334" d="M0 0H3.059V8.232H0z" class="cls-3" transform="rotate(-174.15 2.159 5.154)"/>
                            </g>
                            <g id="Group_774" transform="translate(82.208 9.121)">
                                <path id="Rectangle_335" d="M0 0H3.059V17.487H0z" class="cls-21" transform="rotate(-174.15 1.974 8.776)"/>
                                <path id="Rectangle_336" d="M0 0H3.059V8.232H0z" class="cls-3" transform="rotate(-174.15 2.058 7.13)"/>
                            </g>
                            <g id="Group_775" transform="translate(74.892 12.957)">
                                <path id="Rectangle_337" d="M0 0H3.059V17.487H0z" class="cls-21" transform="rotate(-174.148 1.974 8.776)"/>
                                <path id="Rectangle_338" d="M0 0H3.059V8.232H0z" class="cls-3" transform="rotate(-174.27 2.041 7.458)"/>
                            </g>
                            <g id="Group_776" transform="translate(67.242 20.066)">
                                <path id="Rectangle_339" d="M0 0H3.059V17.487H0z" class="cls-21" transform="rotate(-174.148 1.974 8.776)"/>
                                <path id="Rectangle_340" d="M0 0H3.059V8.232H0z" class="cls-3" transform="rotate(-174.15 1.974 8.776)"/>
                            </g>
                            <g id="Group_777" transform="translate(61.522 8.347)">
                                <path id="Rectangle_341" d="M0 0H3.059V17.487H0z" class="cls-21" transform="rotate(-174.15 1.974 8.776)"/>
                                <path id="Rectangle_342" d="M0 0H3.059V8.232H0z" class="cls-3" transform="rotate(-174.15 2.024 7.788)"/>
                            </g>
                            <g id="Group_778" transform="translate(55.455)">
                                <path id="Rectangle_343" d="M0 0H3.059V17.487H0z" class="cls-21" transform="rotate(-174.27 1.974 8.775)"/>
                                <path id="Rectangle_344" d="M0 0H3.059V8.232H0z" class="cls-3" transform="rotate(-174.15 2.025 7.788)"/>
                            </g>
                            <g id="Group_779" transform="translate(47.663 8.505)">
                                <path id="Rectangle_345" d="M0 0H3.059V17.487H0z" class="cls-21" transform="rotate(-174.15 1.974 8.776)"/>
                                <path id="Rectangle_346" d="M0 0H3.059V8.232H0z" class="cls-3" transform="rotate(-174.148 2.142 5.483)"/>
                            </g>
                            <g id="Group_780" transform="translate(39.805 17.637)">
                                <path id="Rectangle_347" d="M0 0H3.059V17.487H0z" class="cls-21" transform="rotate(-174.15 1.974 8.776)"/>
                                <path id="Rectangle_348" d="M0 0H3.059V8.232H0z" class="cls-3" transform="rotate(-174.15 2.176 4.825)"/>
                            </g>
                            <g id="Group_781" transform="translate(33.963 7.102)">
                                <path id="Rectangle_349" d="M0 0H3.059V17.487H0z" class="cls-21" transform="rotate(-174.15 1.974 8.776)"/>
                                <path id="Rectangle_350" d="M0 0H3.059V8.232H0z" class="cls-3" transform="rotate(-174.148 2.041 7.459)"/>
                            </g>
                            <g id="Group_782" transform="translate(27.41 3.505)">
                                <path id="Rectangle_351" d="M0 0H3.059V17.487H0z" class="cls-21" transform="rotate(-174.148 1.974 8.776)"/>
                                <path id="Rectangle_352" d="M0 0H3.059V8.232H0z" class="cls-3" transform="rotate(-174.15 2.16 5.154)"/>
                            </g>
                            <g id="Group_783" transform="translate(20.004 8.229)">
                                <path id="Rectangle_353" d="M0 0H3.059V17.487H0z" class="cls-21" transform="rotate(-174.148 1.974 8.776)"/>
                                <path id="Rectangle_354" d="M0 0H3.059V8.232H0z" class="cls-3" transform="rotate(-174.15 1.974 8.776)"/>
                            </g>
                            <g id="Group_784" transform="translate(13.711 2.102)">
                                <path id="Rectangle_355" d="M0 0H3.059V17.487H0z" class="cls-21" transform="rotate(-174.15 1.974 8.776)"/>
                                <path id="Rectangle_356" d="M0 0H3.059V8.232H0z" class="cls-3" transform="rotate(-174.148 2.008 8.117)"/>
                            </g>
                            <g id="Group_785" transform="translate(6.621 3.746)">
                                <path id="Rectangle_357" d="M0 0H3.059V17.487H0z" class="cls-21" transform="rotate(-174.15 1.974 8.776)"/>
                                <path id="Rectangle_358" d="M0 0H3.059V8.232H0z" class="cls-3" transform="rotate(-174.15 1.99 8.447)"/>
                            </g>
                            <g id="Group_786" transform="translate(0 .81)">
                                <path id="Rectangle_359" d="M0 0H3.059V17.487H0z" class="cls-21" transform="rotate(-174.15 1.974 8.776)"/>
                                <path id="Rectangle_360" d="M0 0H3.059V8.232H0z" class="cls-3" transform="rotate(-174.15 2.193 4.495)"/>
                            </g>
                        </g>
                        <g id="Group_788" transform="translate(19.48 232.404)">
                            <path id="Path_12422" d="M430.844 280.41l-138.92-14.235a1.462 1.462 0 1 0-.3 2.909l138.921 14.236a1.463 1.463 0 0 0 .3-2.91z" class="cls-13" transform="translate(-265.553 -266.168)"/>
                            <path id="Path_12423" d="M434.32 289.308l-161.535-16.554a1.462 1.462 0 0 0-.3 2.909l161.535 16.553a1.462 1.462 0 0 0 .3-2.909z" class="cls-13" transform="translate(-270.103 -264.604)"/>
                            <path id="Path_12424" d="M365.6 290.805l-93.684-9.6a1.462 1.462 0 0 0-.3 2.91l93.683 9.6a1.463 1.463 0 0 0 .3-2.91z" class="cls-13" transform="translate(-270.309 -262.595)"/>
                        </g>
                        <path id="Path_12425" d="M454.66 223.781c-4.79-.384-6.449 7.253-6.449 7.253s-7.575-9.927-6.374-33.27c0 0-3.7-10.347-13.615-4.1s-20.187 28.282-17.737 52.281l-19.271-63.978c-6.659 1.411-20.187 10.36-16.623 53.569l-21.028-22.226s-5.693-1.832-8.912 3.206-1.683 41.117.978 54.608-4.122 40.6-4.122 40.6-7.251-30.694-20.373-38.462L271.168 170.2l-16.6 162.018 18.727 1.918L303.37 319.5c-.167 6.77-.332 12.994-.826 17.634l150.309 15.4 10.756-104.984c-3.651-13.087-7.142-23.633-8.949-23.769z" class="cls-10" transform="translate(-254.57 -56.577)"/>
                    </g>
                    <path id="Path_12427" d="M481.1 98.711l-17.491 170.657-10.756 104.984-150.309-15.4-29.247-3-18.727-1.918 16.6-162.018L282.815 78.4z" class="cls-9" transform="translate(-254.57 -78.4)"/>
                </g>
                <g id="Group_801" transform="translate(34.233 125.369)">
                    <g id="Group_794" transform="translate(13.236)">
                        <g id="Group_791" transform="translate(.01)">
                            <path id="Path_12428" d="M469.5 513.974l-87.878 14.952s-15.3-81.256-24.42-94.054-7.451-18.071-11.882-26.7c-2.673-5.211-16.078-14.927-26.6-24.519h-.012c-.916-.829-1.807-1.659-2.661-2.488-.371-.334-.718-.693-1.064-1.027-1.4-1.386-2.7-2.735-3.849-4.06q-.631-.706-1.188-1.411c-2.191-2.711-3.738-5.248-4.258-7.538a1.913 1.913 0 0 1-.074-.384 3.194 3.194 0 0 1-.074-.458c-.235-1.919-.483-4.109-.73-6.486-.049-.47-.1-.965-.161-1.461-.025-.2-.049-.384-.074-.594-.21-1.98-.446-4.084-.718-6.25-.272-2.265-.569-4.617-.916-6.981-.111-.817-.223-1.634-.359-2.463 0-.012 0-.025-.012-.025-.136-.916-.285-1.832-.433-2.76l-.408-2.376c-.025-.136-.062-.26-.074-.371-.173-.928-.347-1.832-.52-2.748a1.246 1.246 0 0 1-.062-.309c-.173-.8-.334-1.6-.52-2.4-.384-1.795-.817-3.552-1.287-5.26a65.262 65.262 0 0 0-3.28-9.407c-6.337-14.147 1.906-9.035-3.057-45.437 0 0 3.651-8.441 14.061-1.7a27.892 27.892 0 0 1 2.327 1.7h.012a29.26 29.26 0 0 1 5.533 5.916 34.182 34.182 0 0 1 4.778 9.852 42.841 42.841 0 0 1 1.411 17.7s7.822 26.809 11.944 32.911 21.165-28.95 20.064-33.035a55.186 55.186 0 0 1-.879-5.545c-.074-.607-.148-1.25-.235-1.931s-.161-1.386-.235-2.117c-.05-.347-.087-.718-.136-1.077-.012-.149-.025-.3-.049-.433-.149-1.4-.322-2.884-.483-4.419-.037-.433-.087-.842-.136-1.262l-.223-2.228a3.146 3.146 0 0 1-.037-.371c-.049-.421-.1-.854-.136-1.3-.1-.866-.186-1.745-.272-2.624-.087-.755-.149-1.51-.223-2.265-.148-1.423-.285-2.847-.421-4.221-.1-1.027-.2-2.042-.285-3.032-.025-.223-.05-.446-.062-.656-.52-5.446-.928-9.927-1.077-11.833 0 0-12.39-18.343-13.664-26.982s-1.163-17.737 4.023-21.437c12.278-8.738 8.689 5.347 14.184 11.177 5.5 5.854 13.924 15.385 18.7 18.368 4.406 2.8 8.342 13.664 8.9 15.249-.631-2.376-6.931-25.745-7.067-30.448-.161-4.963-3.948-31.141 2.488-40.535s14.989-2.1 15.781-.248 1.027 27.217 3.292 34.285 11.746 36.476 11.746 36.476.4-28.616 2.537-41.427 7.7-22.824 13.145-23.393 10.484 5.434 10.484 5.434-2.154 20.422-1.535 25.138-.891 21.747 1.7 30.906c0 0-.3-24.4 3.49-27.515s7.043-4.617 9.172-2.513 2.587 16.548 4.753 25.237 1.894 20.5 3.317 34.05 7.03 32.366 5.916 43.122c-1.114 10.731-4.542 37.429-7.3 53.086s-9.8 37.107-9.8 37.107 3.206 11.449 2.587 21.66 24.481 78.188 24.481 78.188z" class="cls-11" transform="translate(-292.93 -179.69)"/>
                        </g>
                        <g id="Group_792" transform="translate(6.343 27.249)">
                            <path id="Path_12429" d="M379.486 212.262c1.685 5.228 7.309 22.7 10.111 31.427 0 0-12.286 9.03-11.98 17.42s-2.249 25.327-7.766 24.841-5.018-35.716-6.819-41.634c1.12 2.54 1.847 4.612 1.993 5.019-.409-1.517-6.972-25.768-7.111-30.572-.032-1.13-.26-3.375-.514-6.284v-.057s12.209-11.688 21.176-4.531v.011a30.056 30.056 0 0 0 .91 4.36z" class="cls-23" transform="translate(-283.937 -200.787)"/>
                            <path id="Path_12430" d="M409.489 223.256c-5.719 5.422-14.348 15.007-15.439 24.257 0 0 3.188 25.809 1.826 37.07l-11.149-34.92s.4-28.62 2.542-41.425c.056-.35.123-.71.191-1.059a50.9 50.9 0 0 1 22.384-5.472c-.43 5.52-.781 11.433-.488 13.705a74.765 74.765 0 0 1 .133 7.844z" class="cls-23" transform="translate(-277.441 -201.706)"/>
                            <path id="Path_12431" d="M409.011 215.674l-.011.011-.036.032c-.131.094-.467.358-.959.772a16.358 16.358 0 0 1 .977-1.614z" class="cls-23" transform="translate(-271.908 -198.575)"/>
                            <path id="Path_12432" d="M412.606 287.461s-7.351-27.58-7.481-49.785c-.053-8.215.9-15.708 3.552-20.773l.012-.01a16.358 16.358 0 0 1 .977-1.614l.03.8a20.26 20.26 0 0 1 4.38-2.9c-2.065 3.222-4.445 9.522-1.689 19.759 4.313 16.039.558 35.626.219 54.523z" class="cls-23" transform="translate(-272.593 -198.978)"/>
                            <path id="Path_12433" d="M336.652 330.465s1.975 26.282-19.148 35.691h-.012q-1.374-1.246-2.66-2.487c-.366-.342-.72-.693-1.064-1.033-1.395-1.384-2.7-2.74-3.851-4.063-.426-.482-.818-.949-1.189-1.4-2.191-2.709-3.732-5.252-4.253-7.539a2.485 2.485 0 0 1-.079-.381 3.841 3.841 0 0 1-.074-.459c-.235-1.917-.477-4.107-.729-6.492-.051-.469-.1-.962-.161-1.456-.022-.2-.045-.39-.066-.6-.22-1.984-.457-4.082-.722-6.252-.271-2.26-.571-4.613-.916-6.981-.12-.816-.24-1.642-.361-2.459 0-.011 0-.022-.01-.024-.137-.918-.286-1.839-.434-2.76-.134-.793-.279-1.588-.412-2.383-.026-.126-.052-.254-.068-.369-.171-.921-.343-1.832-.526-2.743a2.751 2.751 0 0 1-.061-.311c-.167-.807-.334-1.6-.514-2.4q-.6-2.686-1.295-5.262c8.356-8.04 27.643-3 18.308-21.622 0 0 4.7-15.941-8.258-33.227h.011c8.867 7.15 13.4 19.706 11.727 33.475 0 0 7.82 26.8 11.944 32.906s21.16-28.95 20.056-33.039c-.212-.811-.522-2.811-.868-5.543-.075-.609-.151-1.251-.234-1.928s-.166-1.387-.246-2.121c-.047-.345-.082-.712-.128-1.068-.014-.148-.027-.3-.053-.436-.152-1.41-.312-2.889-.48-4.425-.042-.424-.085-.837-.139-1.261-.069-.734-.149-1.479-.228-2.224-.016-.115-.02-.24-.035-.366-.043-.425-.1-.86-.136-1.307-.1-.871-.178-1.741-.272-2.624-.079-.757-.146-1.513-.225-2.27-.141-1.42-.281-2.842-.413-4.216-.1-1.031-.193-2.051-.292-3.025l-.062-.665c.344 1.628 6.621 31.5 10.2 38.461 3.676 7.163-11.931 44.883-21.572 38.688z" class="cls-23" transform="translate(-298.047 -189.437)"/>
                            <path id="Path_12434" d="M429.406 353.171c-2.761 15.673-9.793 37.108-9.793 37.108s3.2 11.449 2.577 21.661c-.168 2.745 1.536 9.684 4.091 18.348-.738-1.9-8.628-22.351-8.5-29.484.151-7.484-1.977-9.551-6.15-18.748S401.1 373.87 401.1 373.87s-2.456 22.947-8.216 7.867-6.871-32.618 7.652-93.514c0 0 2.2 7.64.36 30.329s3.584 29.558 3.584 29.558a211.371 211.371 0 0 0 19.3-45s-1.875 26.479-3.549 38.539 5.948-13.974 11.274-30.058c5-15.092 5.185-20.832 3.281-31.574 1.415 7.569 2.475 14.787 1.936 20.061-1.122 10.742-4.556 37.432-7.316 53.093z" class="cls-23" transform="translate(-276.45 -183.089)"/>
                            <path id="Path_12435" d="M341.4 380.356c4.284 6.811 14.771 15.807 21.015 40.7s2.321 52.138 2.321 52.138z" class="cls-23" transform="translate(-287.741 -159.237)"/>
                        </g>
                        <path id="Path_12436" d="M319.64 270.026s-21.92 11.1-23.653 29.668c-6.337-14.147 1.906-9.035-3.057-45.437 0 0 3.651-8.441 14.061-1.7a27.892 27.892 0 0 1 2.327 1.7h.012a29.26 29.26 0 0 1 5.533 5.916z" class="cls-10" transform="translate(-292.92 -162.988)"/>
                        <g id="Group_793" transform="translate(0 .004)">
                            <path id="Path_12437" d="M381.623 528.928s-15.29-81.259-24.417-94.059-7.452-18.071-11.878-26.7-38.283-29.625-39.783-41.882-3.214-35.742-9.555-49.9 1.907-9.037-3.068-45.44c0 0 3.671-8.431 14.07-1.689s15.88 20.232 14.062 35.17c0 0 7.819 26.794 11.949 32.9s21.15-28.953 20.05-33.043-4.369-38.95-4.88-45.306c0 0-12.391-18.35-13.663-26.989s-1.165-17.738 4.019-21.427c12.281-8.743 8.683 5.342 14.182 11.183s13.926 15.37 18.7 18.365 8.965 15.431 8.965 15.431-6.986-25.672-7.132-30.637-3.946-31.141 2.487-40.528 15-2.108 15.786-.255 1.033 27.213 3.3 34.279 11.729 36.483 11.729 36.483.4-28.614 2.541-41.422 7.709-22.83 13.151-23.4 10.48 5.434 10.48 5.434-2.155 20.421-1.542 25.133-.884 21.742 1.708 30.912c0 0-.306-24.4 3.49-27.521s7.041-4.612 9.165-2.51 2.589 16.548 4.759 25.242 1.9 20.5 3.317 34.049 7.025 32.368 5.916 43.112-4.55 37.432-7.314 53.1-9.784 37.106-9.784 37.106 3.2 11.444 2.576 21.655 24.491 78.197 24.491 78.197" class="cls-9" transform="translate(-292.922 -179.693)"/>
                            <path id="Path_12438" d="M384.723 240.451c2.56 6.014 8.887 31.407 11.148 34.926a11.982 11.982 0 0 0 4.826 4.576" class="cls-9" transform="translate(-271.099 -165.25)"/>
                            <path id="Path_12439" d="M406.01 237.752s-.545 5.2 2.268 21.794 4.18 23.658 5.755 27.359" class="cls-9" transform="translate(-266.049 -165.891)"/>
                            <path id="Path_12440" d="M363.577 240.983c3.435 10.111 5.375 26.225 7.33 31.076s3.7 5.859 3.7 5.859" class="cls-9" transform="translate(-276.126 -165.123)"/>
                            <path id="Path_12441" d="M368.07 260.585s3.6 2.677 4.748 6" class="cls-9" transform="translate(-275.058 -160.464)"/>
                            <path id="Path_12442" d="M325.3 307.061s1.881 13.407 10.282 12.345" class="cls-9" transform="translate(-285.224 -149.415)"/>
                            <path id="Path_12443" d="M341.771 280.364s2.176 15.934-1.392 22.7" class="cls-9" transform="translate(-281.64 -155.762)"/>
                            <path id="Path_12444" d="M397.363 280.477s5.645 3.456 1.87 13.587-10.34 51.029-10.34 51.029" class="cls-9" transform="translate(-270.108 -155.735)"/>
                            <path id="Path_12445" d="M417.763 289.121c2.367 9.157 2.577 9.394-1.267 20.648s-10.04 38.808-10.04 38.808" class="cls-9" transform="translate(-265.933 -153.68)"/>
                            <path id="Path_12446" d="M414.073 371.712s-3.691-7.452-.641-13.574" class="cls-9" transform="translate(-264.561 -137.273)"/>
                            <path id="Path_12447" d="M344.86 385.859s9.334 13.111 13.39 27.778" class="cls-9" transform="translate(-280.575 -130.683)"/>
                        </g>
                    </g>
                    <g id="Group_799" transform="translate(0 22.605)">
                        <path id="Path_12448" d="M400.341 200.77l2.518-2.493 1.146-.324-.076 1.234-2.322 2.955z" class="cls-21" transform="translate(-254.15 -197.953)"/>
                        <g id="Group_796" transform="translate(21.423 1.991)">
                            <path id="Path_12449" d="M426.341 201.77l-4.1 9.315-110.408 147.206-12.3-7.839 16.694-20.945L415.4 205.118l8.747-5.556a3.106 3.106 0 0 1 2.194 2.208z" class="cls-6" transform="translate(-299.536 -199.562)"/>
                            <g id="Group_795" clip-path="url(#clip-path-4)">
                                <path id="Path_12450" d="M426.341 201.77l-4.1 9.315-110.408 147.206-12.3-7.839 16.694-20.945c7.668-.795 8.95 3.738 8.95 3.738L420.3 209.1c-.935-3.337-4.9-3.979-4.9-3.979l8.747-5.556a3.106 3.106 0 0 1 2.194 2.205z" class="cls-8" transform="translate(-299.536 -199.562)"/>
                            </g>
                            <path id="Path_12452" d="M426.341 201.77l-4.1 9.315-110.408 147.206-12.3-7.839 16.694-20.945L415.4 205.118l8.747-5.556a3.106 3.106 0 0 1 2.194 2.208z" class="cls-9" transform="translate(-299.536 -199.562)"/>
                        </g>
                        <g id="Group_798" transform="translate(0 115.625)">
                            <path id="Path_12453" d="M351.958 292.88s-12.32 24.46-24.179 41.761l-8.471 2.191s-19.43 19.308-31.285 28.945a26.587 26.587 0 0 1-5.8-4.865s16.835-32.326 35.458-52.788a23.762 23.762 0 0 1 6.111 3.244 30 30 0 0 1 6.378 6.121l20.759-26.117z" class="cls-6" transform="translate(-282.228 -291.371)"/>
                            <g id="Group_797" clip-path="url(#clip-path-5)">
                                <path id="Path_12454" d="M350.845 292.88s-12.32 24.46-24.179 41.761l-8.471 2.191s-19.43 19.308-31.285 28.945l.322-5.242c12.856-19.644 29.193-41.066 35.452-49.167a30 30 0 0 1 6.378 6.121l-11.536 15.4 6.609-1.188 25.685-40.325z" class="cls-8" transform="translate(-281.115 -291.371)"/>
                            </g>
                            <path id="Path_12456" d="M351.958 292.88s-12.32 24.46-24.179 41.761l-8.471 2.191s-19.43 19.308-31.285 28.945a26.587 26.587 0 0 1-5.8-4.865s16.835-32.326 35.458-52.788a23.762 23.762 0 0 1 6.111 3.244 30 30 0 0 1 6.378 6.121l20.759-26.117z" class="cls-9" transform="translate(-282.228 -291.371)"/>
                        </g>
                    </g>
                    <g id="Group_800" transform="translate(54.145 28.096)">
                        <path id="Path_12457" d="M383.54 287.087l-34.488 33.441-5.51 5.346c3.773-9.7 1.948-24.7 1.707-26.523v-.022c-.016-.1-.024-.161-.024-.161a1.589 1.589 0 0 0-.03-.264c-.212-.811-.522-2.811-.868-5.542-.075-.609-.151-1.251-.234-1.928s-.166-1.387-.246-2.121c-.047-.345-.082-.712-.127-1.068-.014-.148-.027-.3-.053-.436-.153-1.4-.324-2.89-.48-4.425-.042-.424-.085-.837-.139-1.261-.069-.734-.148-1.479-.228-2.224-.016-.115-.02-.24-.035-.366-.043-.425-.1-.86-.136-1.307-.1-.871-.178-1.741-.272-2.624-.079-.757-.146-1.512-.225-2.27-.141-1.42-.281-2.842-.413-4.216q-.162-1.548-.292-3.025l-.062-.665c-.521-5.441-.93-9.919-1.074-11.83 0 0-12.381-18.344-13.662-26.987s-1.167-17.737 4.025-21.427c12.278-8.745 8.681 5.34 14.177 11.178s13.931 15.375 18.7 18.368 8.961 15.434 8.961 15.434c3.435 10.108 5.373 26.217 7.33 31.075s3.698 5.85 3.698 5.85z" class="cls-11" transform="translate(-325.974 -202.39)"/>
                        <path id="Path_12458" d="M368.07 260.585s3.6 2.677 4.748 6" class="cls-9" transform="translate(-315.967 -188.556)"/>
                        <path id="Path_12459" d="M344.852 216.358c5.473 5.836 13.877 15.316 18.657 18.342-.673-.338-9.465-4.624-14.381.142-5.112 4.971-8.816 18.753-8.816 18.753s-12.381-18.344-13.662-26.987-1.167-17.737 4.025-21.427c12.278-8.746 8.681 5.338 14.177 11.177z" class="cls-23" transform="translate(-325.974 -202.39)"/>
                        <path id="Path_12460" d="M346.092 308.421l-5.51 5.346c3.773-9.7 1.948-24.7 1.707-26.523v-.022a1.789 1.789 0 0 0-.053-.424c-.212-.811-.522-2.811-.868-5.543-.075-.609-.151-1.251-.234-1.928s-.166-1.387-.246-2.121c-.047-.345-.082-.712-.127-1.068-.014-.148-.027-.3-.053-.436-.152-1.41-.312-2.889-.48-4.425-.042-.424-.085-.837-.139-1.261-.069-.734-.148-1.479-.228-2.224-.016-.115-.02-.24-.035-.366-.043-.425-.1-.86-.136-1.307-.1-.871-.178-1.741-.272-2.624-.079-.757-.146-1.513-.225-2.27-.141-1.42-.281-2.842-.413-4.216-.1-1.031-.193-2.051-.292-3.025l-.062-.665c.344 1.628 6.621 31.5 10.2 38.461 1.355 2.633.095 9.42-2.534 16.641z" class="cls-23" transform="translate(-323.014 -190.283)"/>
                        <path id="Path_12461" d="M383.541 287.092s-1.74-1.009-3.7-5.859-3.9-20.965-7.33-31.075c0 0-4.193-12.434-8.965-15.431s-13.2-12.525-18.7-18.365-1.9-19.926-14.182-11.183c-5.184 3.69-5.291 12.789-4.019 21.427s13.663 26.989 13.663 26.989c.511 6.356 3.78 41.215 4.88 45.306" class="cls-9" transform="translate(-325.974 -202.39)"/>
                        <path id="Path_12462" d="M341.771 280.364s2.176 15.934-1.392 22.7" class="cls-9" transform="translate(-322.55 -183.854)"/>
                    </g>
                </g>
            </g>
        </g>
        <g id="Left_hand" transform="translate(38.391 71.374)">
            <g id="Group_831">
                <path id="Path_12463" d="M189.826 300.272s7.835 36.378-9.139 62.845-30.032 33.525-35.908 41.422-28.864 52.049-28.864 52.049l-26.857-79.549 26.857-98.411z" class="cls-10" transform="translate(-23.177 -17.063)"/>
                <g id="Group_828" transform="translate(33.753)">
                    <path id="Path_12464" d="M354.3 322.692l-166.549 70.092-17.167 7.228-32.354-76.875L63.1 144.62 246.815 67.3z" class="cls-11" transform="translate(-63.1 -67.3)"/>
                    <g id="Group_827" clip-path="url(#clip-path-6)">
                        <path id="Path_12465" d="M188.755 94.189l-79.3 33.375a2.924 2.924 0 1 0 2.269 5.39l79.3-33.374a2.925 2.925 0 1 0-2.269-5.392z" class="cls-13" transform="translate(-52.507 -60.962)"/>
                        <path id="Path_12466" d="M168.717 109.858l-39.652 16.688a1.462 1.462 0 1 0 1.134 2.695l39.652-16.687a1.462 1.462 0 1 0-1.134-2.7z" class="cls-13" transform="translate(-47.632 -57.21)"/>
                        <g id="Group_813" transform="translate(66.169 141.818)">
                            <g id="Group_803" transform="translate(0 12.484)">
                                <path id="Path_12467" d="M232.661 191.966s1.673 13.138-3.219 15.2c-4.466 1.879-10.349-5.17-15.483-3.009s-1.084 20.785-6.038 22.869-10.922-5.567-15.193-3.769-1.689 11.378-6.093 13.232c-3.634 1.53-8.837-6.086-13-7.757a3.181 3.181 0 0 0-2.475-.124c-4.359 1.834-2.2 21.841-5.956 23.424a7.059 7.059 0 0 1-3.337.546 24.639 24.639 0 0 0-4.242-.4 5.481 5.481 0 0 0-1.587.4c-3.211 1.352-2.773 11.881-5.708 13.116s-5.832-.3-8.966 1.024-3.083 6.793-7.754 8.758l1.975 4.7 114-47.978" class="cls-14" transform="translate(-112.506 -191.966)"/>
                                <path id="Path_12468" d="M116.56 218.921l23.082 54.845L259 223.533" class="cls-9" transform="translate(-116.56 -185.558)"/>
                                <path id="Path_12469" d="M241.833 210.376a19.432 19.432 0 0 0-1.407-1.513c-1.474-1.423-3.817-3.233-5.594-2.484-1.739.731-1.894 3.623-1.859 6.711.041 3.758.368 7.8-1.521 8.6-1.607.676-3.051-.34-4.529-1.451-1.692-1.265-3.432-2.647-5.515-1.77-3.52 1.482-2.447 6.065-3.687 9.988a7.592 7.592 0 0 1-4.63 5c-3.04 1.28-6.124.024-9.027-1.959-4.9-3.346-9.308-8.758-12.161-7.559-4.539 1.911.468 14.2-4.412 16.25-2.728 1.147-8.371-7.454-13.853-14.845-4.333-5.852-8.57-10.946-11.172-9.852-5.887 2.478 3.813 31.848-.465 33.649-.042.017-.088.036-.131.049a4.516 4.516 0 0 1-4.242-.4c-1.543-.874-2.8-2.113-4.5-1.395-3.151 1.326-1.3 12.84-4.778 14.3s-5.557-.654-9.467.991c-3.308 1.392-5.268 9.4-5.268 9.4l1.975 4.7 114-47.978" class="cls-21" transform="translate(-112.506 -188.581)"/>
                            </g>
                            <path id="Path_12470" d="M209.343 241.233l-39.652 16.687a1.462 1.462 0 0 0 1.134 2.7l39.652-16.687a1.462 1.462 0 1 0-1.134-2.7z" class="cls-13" transform="translate(-104.143 -167.797)"/>
                            <g id="Group_812" transform="translate(132.063)">
                                <g id="Group_807">
                                    <rect id="Rectangle_361" width="5.707" height="5.707" class="cls-14" rx=".626" transform="matrix(.922 -.388 .388 .922 0 9.632)"/>
                                    <g id="Group_806" transform="translate(8.505)">
                                        <g id="Group_804">
                                            <path id="Path_12471" d="M246.887 183.14l-15.847 6.669a.656.656 0 0 1-.509-1.209l15.847-6.669a.656.656 0 0 1 .509 1.209z" class="cls-13" transform="translate(-230.13 -181.88)"/>
                                        </g>
                                        <g id="Group_805" transform="translate(1.107 4.664)">
                                            <path id="Path_12472" d="M242.947 186.909l-11.012 4.634a.656.656 0 1 1-.509-1.209l11.012-4.634a.656.656 0 0 1 .509 1.209z" class="cls-13" transform="translate(-231.025 -185.648)"/>
                                        </g>
                                    </g>
                                </g>
                                <g id="Group_811" transform="translate(4.958 11.781)">
                                    <rect id="Rectangle_362" width="5.707" height="5.707" class="cls-21" rx=".626" transform="matrix(.922 -.388 .388 .922 0 9.632)"/>
                                    <g id="Group_810" transform="translate(8.505)">
                                        <g id="Group_808">
                                            <path id="Path_12473" d="M250.892 192.658l-15.847 6.669a.656.656 0 0 1-.509-1.209l15.847-6.669a.656.656 0 0 1 .509 1.209z" class="cls-13" transform="translate(-234.136 -191.398)"/>
                                        </g>
                                        <g id="Group_809" transform="translate(1.107 4.664)">
                                            <path id="Path_12474" d="M246.952 196.427l-11.011 4.634a.656.656 0 0 1-.509-1.209l11.011-4.634a.656.656 0 0 1 .509 1.209z" class="cls-13" transform="translate(-235.03 -195.166)"/>
                                        </g>
                                    </g>
                                </g>
                            </g>
                        </g>
                        <g id="Group_814" transform="translate(102.807 203.312)">
                            <path id="Path_12475" d="M289.4 231.678l-128.708 54.168a1.462 1.462 0 1 0 1.134 2.7l128.712-54.168a1.462 1.462 0 1 0-1.135-2.7z" class="cls-13" transform="translate(-142.92 -231.563)"/>
                            <path id="Path_12476" d="M296.724 239.508L147.056 302.5a1.462 1.462 0 0 0 1.135 2.7l149.666-63a1.462 1.462 0 0 0-1.134-2.7z" class="cls-13" transform="translate(-146.161 -229.702)"/>
                            <path id="Path_12477" d="M300.019 247.339l-149.667 62.986a1.462 1.462 0 0 0 1.134 2.7l149.668-62.988a1.462 1.462 0 0 0-1.135-2.695z" class="cls-13" transform="translate(-145.378 -227.84)"/>
                            <path id="Path_12478" d="M303.315 255.169l-149.668 62.988a1.462 1.462 0 1 0 1.135 2.695l149.667-62.986a1.462 1.462 0 1 0-1.134-2.7z" class="cls-13" transform="translate(-144.594 -225.979)"/>
                            <path id="Path_12479" d="M243.743 284.375l-86.8 36.53a1.462 1.462 0 1 0 1.134 2.7l86.8-36.53a1.462 1.462 0 1 0-1.135-2.7z" class="cls-13" transform="translate(-143.811 -219.036)"/>
                        </g>
                        <g id="Group_826" transform="translate(34.779 62.469)">
                            <g id="Group_816" transform="translate(0 17.245)">
                                <g id="Group_815" transform="translate(21.106)">
                                    <path id="Path_12480" d="M207.3 131.7s1.673 13.138-3.219 15.2c-4.466 1.88-10.349-5.17-15.483-3.009s-1.084 20.785-6.038 22.871-10.922-5.567-15.193-3.77-1.689 11.378-6.093 13.232c-3.635 1.53-8.837-6.086-13-7.757a3.181 3.181 0 0 0-2.475-.124c-4.359 1.834-2.2 21.841-5.956 23.424a7.028 7.028 0 0 1-3.337.546 24.885 24.885 0 0 0-4.242-.4 5.483 5.483 0 0 0-1.587.406c-3.211 1.352-2.772 11.88-5.708 13.115s-5.832-.3-8.966 1.024-3.083 6.793-7.754 8.759l1.975 4.695 114-47.978" class="cls-14" transform="translate(-108.251 -131.704)"/>
                                    <path id="Path_12481" d="M214.58 145.85s1.045 6.367-1.477 7.429c-2.091.88-3.375-.345-5.58-.427a7.33 7.33 0 0 0-3.188.655c-2.015.848-2.5 3.567-2.862 6.493-.439 3.6-.675 7.5-3.307 8.613-1.844.776-3.836.322-5.9-.4-3.273-1.141-6.718-2.946-10.04-1.547-1.61.678-2.74 2.43-3.617 4.591-2.066 5.113-2.716 12.517-4.953 13.458-3.182 1.34-9.009-4.13-11.835-2.941s-1.667 6.1-3.959 7.061-3.6-1.881-7.637-.183-2.071 7.659-7.758 10.053-8.188-2.01-13.694.308-4.505 6.488-8.383 8.119-5.519-1.2-8.3-.035c-2.692 1.133-3.432 5.562-3.476 5.838l1.519 3.61 114-47.978" class="cls-3" transform="translate(-108.163 -128.341)"/>
                                </g>
                                <path id="Path_12482" d="M91.2 158.66l23.081 54.84 119.363-50.234" class="cls-9" transform="translate(-91.199 -125.296)"/>
                            </g>
                            <path id="Path_12483" d="M183.692 180.283l-39.652 16.688a1.462 1.462 0 1 0 1.134 2.695l39.653-16.687a1.462 1.462 0 0 0-1.135-2.7z" class="cls-13" transform="translate(-78.851 -102.938)"/>
                            <g id="Group_825" transform="translate(130.06)">
                                <g id="Group_820">
                                    <rect id="Rectangle_363" width="5.707" height="5.707" class="cls-14" rx=".626" transform="matrix(.922 -.388 .388 .922 0 9.633)"/>
                                    <g id="Group_819" transform="translate(8.505)">
                                        <g id="Group_817">
                                            <path id="Path_12484" d="M219.907 119.032l-15.846 6.668a.656.656 0 1 1-.509-1.209l15.847-6.669a.656.656 0 0 1 .509 1.209z" class="cls-13" transform="translate(-203.151 -117.771)"/>
                                        </g>
                                        <g id="Group_818" transform="translate(1.107 4.665)">
                                            <path id="Path_12485" d="M215.967 122.8l-11.012 4.634a.655.655 0 1 1-.509-1.208l11.012-4.634a.655.655 0 1 1 .509 1.208z" class="cls-13" transform="translate(-204.045 -121.54)"/>
                                        </g>
                                    </g>
                                </g>
                                <g id="Group_824" transform="translate(4.958 11.781)">
                                    <rect id="Rectangle_364" width="5.707" height="5.707" class="cls-3" rx=".626" transform="matrix(.922 -.388 .388 .922 0 9.633)"/>
                                    <g id="Group_823" transform="translate(8.505)">
                                        <g id="Group_821">
                                            <path id="Path_12486" d="M223.912 128.55l-15.845 6.669a.656.656 0 0 1-.509-1.209l15.845-6.669a.656.656 0 1 1 .509 1.209z" class="cls-13" transform="translate(-207.156 -127.289)"/>
                                        </g>
                                        <g id="Group_822" transform="translate(1.107 4.665)">
                                            <path id="Path_12487" d="M219.972 132.318l-11.011 4.634a.655.655 0 1 1-.509-1.208l11.011-4.634a.655.655 0 1 1 .509 1.208z" class="cls-13" transform="translate(-208.05 -131.058)"/>
                                        </g>
                                    </g>
                                </g>
                            </g>
                        </g>
                        <path id="Path_12488" d="M173.321 354.7l-17.167 7.228-32.354-76.87a19.047 19.047 0 0 0 5.409-10.607c1.931-10.3.569-43.407 26.351-46.823s4.035 54.559 5.223 65.612c1.089 10.06 15.781 39.309 12.538 61.46z" class="cls-10" transform="translate(-48.67 -29.221)"/>
                    </g>
                    <path id="Path_12490" d="M354.3 322.692l-166.549 70.092-17.167 7.228-32.354-76.875L63.1 144.62 246.815 67.3z" class="cls-9" transform="translate(-63.1 -67.3)"/>
                </g>
                <g id="Group_830" transform="translate(0 177.275)">
                    <path id="Path_12491" d="M183.863 301.461c2.889-9.882 14.178-41.6 12.7-55.629a13.708 13.708 0 0 0-.79-3.415c-3.962-10.472-20.156-9.459-26.372-.781-6.829 9.544-12.407 26.717-12.882 37.17-.261 5.779-2.738 11.081-4.9 14.676-.01.023-.01.035-.021.046a36.252 36.252 0 0 1-3.276 4.654l-36.942-87.654a50.028 50.028 0 0 0-9.667 10.789 17.648 17.648 0 0 0-2.839 7.513c-.757 8.633-10.535 44.1-14.6 59.075-.078.322-.168.621-.246.921-3.909 14.384 6.411 67.8 3.461 83.321s-4.786 15.172-5.216 26.191c-.314 8.046-11.825 32.508-24.72 57.618-7.394 14.391-15.246 28.983-21.72 40.808l94.463-3.922c1.638-11.477 3.315-23.592 4.848-35.317a131.924 131.924 0 0 1 2.822-14.5v-.011c2.086-8.415 4.624-16.03 6.169-20.486 2.418-6.961 4.93-19.922 4.93-19.922 10.985-11.628 25.392-29.907 29.565-42.289.011-.022.021-.057.031-.08 1.053-3.126 1.439-5.874.941-8.038a37.236 37.236 0 0 1-.748-6.762c.011-.011.011-.011 0-.022-.481-13.406 2.587-35.715 5.009-43.954z" class="cls-11" transform="translate(-35.83 -210.527)"/>
                    <path id="Path_12492" d="M138.943 293.527c-2.93 5.879-6.458 11.59-8.711 18.18s-4.671 7.522-11.283 12.677-11.437-3.337-11.437-3.337 8.747-9.09 5.841-14.146-13.794-17.654-13.15-24.6-6.6-22.514-6.6-22.514 16.494-9.685 13.293-21c-1.748-6.2-10.383-12.789-17.837-17.474a50.028 50.028 0 0 1 9.667-10.789l36.942 87.654a36.252 36.252 0 0 0 3.275-4.651z" class="cls-23" transform="translate(-23.177 -210.527)"/>
                    <path id="Path_12493" d="M87.514 332.433c.224.743 5.592 18.484 1.063 25.875-4.635 7.554-9.185 17.186-6.971 27.22 1.767 8.015-13.084 36.986-28.229 55.568 12.895-25.111 24.405-49.572 24.72-57.618.429-11.019 2.253-10.685 5.216-26.191s-7.369-68.937-3.461-83.321c.078-.3.168-.6.246-.921 2.884 16.3 9.6 48.764 11.446 59.2 2.351 13.291-3.781.712-4.03.188z" class="cls-23" transform="translate(-31.658 -195.666)"/>
                    <path id="Path_12494" d="M108.44 425.552c10.974-47.264 47.923-83.51 52.926-94-4.174 12.382-18.581 30.661-29.565 42.289 0 0-2.511 12.961-4.93 19.922-1.545 4.456-4.083 12.07-6.169 20.486v.011c-10.727 12.64-12.262 11.292-12.262 11.292z" class="cls-23" transform="translate(-18.569 -181.758)"/>
                    <path id="Path_12495" d="M158.726 295.452c-2.422 8.235-5.489 30.548-5.013 43.954-1.942-8.418-5.685-19.105-6.3-34-1.048-25.25 13.254-16.194 8.266-28.628s-19.207 3.506-12.2-22.829c5.118-19.224 19.677-19.044 27.158-17.546a13.708 13.708 0 0 1 .79 3.415c1.473 14.03-9.812 45.752-12.701 55.634z" class="cls-23" transform="translate(-10.693 -204.518)"/>
                    <g id="Group_829" transform="translate(14.365)">
                        <path id="Path_12496" d="M47.436 470.695C59.285 449.052 70.8 426.787 79.1 402.77c1-3.454-.329-7.951.665-11.406 11.22-31.184-1.505-63.651.58-95.6 1.753-12.588 5.778-25.269 9.8-37.952 1.895-9.18 2.605-19.45 5.635-28.678 3.125-6.956 6.2-15.048 12.835-18.612 12.624 28.932 25.209 57.991 36.942 87.654 5.3-3.065 6.153-9.927 7.053-15.652 2.841-13.771 5.729-26.407 10.937-38 5.3-9.323 18.79-13.3 27.07-5.675a12.9 12.9 0 0 1 3.785 8.945c-1.611 16-6.629 32.133-11.7 47.132-1.989 6.91-4.025 12.683-4.878 19.545.1 2.271.142 3.407.236 5.679-2.936 11.5-.24 21.628-.9 33.032-2.558 20.586-19.029 34.924-30.91 50.207-2.936 11.5-5.872 23-9.943 34.546-4.972 17.272-6.535 34.4-8.232 51.055" class="cls-9" transform="translate(-47.436 -210.527)"/>
                        <path id="Path_12497" d="M130.341 281.346a77.287 77.287 0 0 0-5.44 13.526c-1.548 6.066-9.386 5.191-13.431 8.96" class="cls-9" transform="translate(-32.213 -193.692)"/>
                        <path id="Path_12498" d="M102.843 272.719s10.658 3.758 16.86 8.6 10.794 6.026 10.794 6.026" class="cls-9" transform="translate(-34.265 -195.743)"/>
                        <path id="Path_12499" d="M97.35 253.245s8.6 2.411 14.978-.621a57.208 57.208 0 0 1 1.616-9.143" class="cls-9" transform="translate(-35.57 -202.693)"/>
                        <path id="Path_12500" d="M111.106 251.877s.089 1.2 4.474 1.249" class="cls-9" transform="translate(-32.3 -200.697)"/>
                        <path id="Path_12501" d="M129.908 365.72a58.624 58.624 0 0 0-13.517 21.323" class="cls-9" transform="translate(-31.044 -173.634)"/>
                        <path id="Path_12502" d="M74.357 275.924c-.385 7.411 8.321 33.76 10.965 46.853s3.629 22.354 3.629 22.354" class="cls-9" transform="translate(-41.039 -194.981)"/>
                    </g>
                </g>
            </g>
        </g>
    </g>
</svg>
