<svg xmlns="http://www.w3.org/2000/svg" width="346.667" height="342.812" viewBox="0 0 346.667 342.812">
    <defs>
        <clipPath id="clip-path">
            <path id="Path_465" d="M196.049 280.382c-3.288-5.428-19.075-5.339-20.5-2.927 0 0 7.822 25.287 16.54 22.666s3.96-19.739 3.96-19.739z" class="cls-1" transform="translate(-175.544 -275.88)"/>
        </clipPath>
        <clipPath id="clip-path-2">
            <path id="Path_469" d="M177.215 290.419a7.788 7.788 0 0 0-1.672 4.77c0 2.358 4.5 49.466 18.386 65.864 2.909 3.442 6.234 5.529 10.02 5.575 11.754.127 17.446-9.2 24.928-30.827q1.4-4.039 2.9-8.673c7.273-22.326 16.209-68.892 16.209-68.892s-15.856 3.677-25.262 13c-4.111 4.075-8.394 15.64-11.131 24.133-1.346 4.174-2.322 7.6-2.729 9.044-.126.479-.2.741-.2.741a21.256 21.256 0 0 0-1.662-4.22c-.008-.018-.008-.027-.018-.036a.3.3 0 0 1-.055-.108 51.591 51.591 0 0 0-7.453-10.255l-3.424-12.983s-1.211 2.367-6.686 3.207-13.823-6.135-13.823-6.135z" class="cls-1" transform="translate(-175.543 -258.236)"/>
        </clipPath>
        <clipPath id="clip-path-3">
            <path id="Path_479" d="M318.866 399.918s1.5-20.312 2.722-25.465c5.489-23.2 24.824-76.957 21.706-92.864-3.2-16.347-22.8-30.652-54.434-32.223-29.336-1.464-53.522 8.935-59.3 21.025-5.52 11.537-5.466 98.5-4.066 134.428 0 0 46.358 8.783 76.28-1.19 6.026-2.012 17.092-3.711 17.092-3.711z" class="cls-1" transform="translate(-224.694 -249.229)"/>
        </clipPath>
        <clipPath id="clip-path-4">
            <path id="Rectangle_141" d="M0 0H55.402V27.435H0z" class="cls-1" transform="rotate(-70.968 36.734 26.186)"/>
        </clipPath>
        <clipPath id="clip-path-5">
            <path id="Rectangle_144" d="M0 0H55.402V27.435H0z" class="cls-1" transform="rotate(75.116 13.258 17.241)"/>
        </clipPath>
        <clipPath id="clip-path-6">
            <path id="Path_518" d="M247.741 265.787c-1.5-2.719-5.79-1.409-10.795 6.454s-7.047 17.033-5.837 20.373S248.5 300 248.5 300l3.336-8.459z" class="cls-1" transform="translate(-230.77 -264.495)"/>
        </clipPath>
        <style>
            .cls-1,.cls-3{fill:#00d97e}.cls-1,.cls-18,.cls-6,.cls-9{stroke:#263238}.cls-1,.cls-12,.cls-18,.cls-6,.cls-9{stroke-linecap:round;stroke-linejoin:round}.cls-15,.cls-5{fill:rgba(0,0,0,.7)}.cls-5{opacity:.3}.cls-12,.cls-6{fill:none}.cls-9{fill:#fff}.cls-10{fill:#263238}.cls-12{stroke:#fff}.cls-15{opacity:.5}.cls-18{fill:silver}
        </style>
    </defs>
    <g id="Group_323" transform="translate(-52.676 -31.188)">
        <g id="Background_Simple" opacity="0.18" transform="translate(52.676 41.469)">
            <g id="Group_296">
                <path id="Path_461" d="M98.172 73.509l.471-.426c43.294-38.984 100.8-40.741 142.69 1.223 21.835 21.872 60.6 17.687 88.342 25.6 95.639 27.277 79.1 157.04 31.861 219.767-42.632 56.605-135 69.394-197.065 41.543C109.936 336.739 71.535 282.065 57.87 224.9q-2.056-8.6-3.36-17.356c-7.188-48.667 6.619-100.352 43.662-134.035z" class="cls-3" transform="translate(-52.676 -43.339)"/>
                <path id="Path_462" d="M98.172 73.509l.471-.426c43.294-38.984 100.8-40.741 142.69 1.223 21.835 21.872 60.6 17.687 88.342 25.6 95.639 27.277 79.1 157.04 31.861 219.767-42.632 56.605-135 69.394-197.065 41.543C109.936 336.739 71.535 282.065 57.87 224.9q-2.056-8.6-3.36-17.356c-7.188-48.667 6.619-100.352 43.662-134.035z" class="cls-3" transform="translate(-52.676 -43.339)"/>
            </g>
        </g>
        <g id="Character" transform="translate(139.422 31.688)">
            <g id="Group_322">
                <g id="Group_301" transform="translate(16.405 190.195)">
                    <g id="Group_298" transform="translate(.001 14.813)">
                        <path id="Path_463" d="M196.049 280.382c-3.288-5.428-19.075-5.339-20.5-2.927 0 0 7.822 25.287 16.54 22.666s3.96-19.739 3.96-19.739z" class="cls-3" transform="translate(-175.544 -275.88)"/>
                        <g id="Group_297" clip-path="url(#clip-path)">
                            <path id="Path_464" d="M196.049 280.382c-3.288-5.428-19.075-5.339-20.5-2.927 0 0 7.822 25.287 16.54 22.666s3.96-19.739 3.96-19.739z" class="cls-5" transform="translate(-175.544 -275.88)"/>
                        </g>
                        <path id="Path_466" d="M196.049 280.382c-3.288-5.428-19.075-5.339-20.5-2.927 0 0 7.822 25.287 16.54 22.666s3.96-19.739 3.96-19.739z" class="cls-6" transform="translate(-175.544 -275.88)"/>
                    </g>
                    <g id="Group_300">
                        <path id="Path_467" d="M177.215 290.419a7.788 7.788 0 0 0-1.672 4.77c0 2.358 4.5 49.466 18.386 65.864 2.909 3.442 6.234 5.529 10.02 5.575 11.754.127 17.446-9.2 24.928-30.827q1.4-4.039 2.9-8.673c7.273-22.326 16.209-68.892 16.209-68.892s-15.856 3.677-25.262 13c-4.111 4.075-8.394 15.64-11.131 24.133-1.346 4.174-2.322 7.6-2.729 9.044-.126.479-.2.741-.2.741a21.256 21.256 0 0 0-1.662-4.22c-.008-.018-.008-.027-.018-.036a.3.3 0 0 1-.055-.108 51.591 51.591 0 0 0-7.453-10.255l-3.424-12.983s-1.211 2.367-6.686 3.207-13.823-6.135-13.823-6.135z" class="cls-3" transform="translate(-175.543 -258.236)"/>
                        <g id="Group_299" clip-path="url(#clip-path-2)">
                            <path id="Path_468" d="M197.443 366.27c2.909 3.442 6.234 5.529 10.02 5.575 11.754.127 17.446-9.2 24.928-30.827l-.163-50.271a37.275 37.275 0 0 0-17.122 9.839c-1.346 4.174-2.322 7.6-2.728 9.044 3.307 6.884 9.071 22.714 2.457 39.582-4.291 10.941-11.311 15.388-17.392 17.058z" class="cls-5" transform="translate(-179.057 -263.453)"/>
                        </g>
                        <path id="Path_470" d="M177.215 290.419a7.788 7.788 0 0 0-1.672 4.77c0 2.358 4.5 49.466 18.386 65.864 2.909 3.442 6.234 5.529 10.02 5.575 11.754.127 17.446-9.2 24.928-30.827q1.4-4.039 2.9-8.673c7.273-22.326 16.209-68.892 16.209-68.892s-15.856 3.677-25.262 13c-4.111 4.075-8.394 15.64-11.131 24.133-1.346 4.174-2.322 7.6-2.729 9.044-.126.479-.2.741-.2.741a21.256 21.256 0 0 0-1.662-4.22c-.008-.018-.008-.027-.018-.036a.3.3 0 0 1-.055-.108 51.591 51.591 0 0 0-7.453-10.255l-3.424-12.983s-1.211 2.367-6.686 3.207-13.823-6.135-13.823-6.135z" class="cls-6" transform="translate(-175.543 -258.236)"/>
                    </g>
                    <path id="Path_471" d="M221.836 332.4c.843 4.413.876 9.2-1.164 13.3" class="cls-6" transform="translate(-182.785 -270.137)"/>
                    <path id="Path_472" d="M215 314.12a50.649 50.649 0 0 1 5.305 12.628" class="cls-6" transform="translate(-181.874 -267.203)"/>
                    <path id="Path_473" d="M222.749 319.68s-1.653-4.548-6.121-5.56" class="cls-6" transform="translate(-182.136 -267.203)"/>
                    <path id="Path_474" d="M196.74 300.545a15.94 15.94 0 0 0 3-2.106" class="cls-6" transform="translate(-178.944 -264.687)"/>
                    <path id="Path_475" d="M177.53 296.57c3.5 3.743 8.958 6.19 14.047 4.56" class="cls-6" transform="translate(-175.862 -264.387)"/>
                    <path id="Path_476" d="M212.918 308.933a.875.875 0 0 0 .064.1.3.3 0 0 1-.055-.108.009.009 0 0 0-.009.008z" class="cls-1" transform="translate(-181.54 -266.37)"/>
                </g>
                <g id="Group_303" transform="translate(57.669 182.633)">
                    <path id="Path_477" d="M318.866 399.918s1.5-20.312 2.722-25.465c5.489-23.2 24.824-76.957 21.706-92.864-3.2-16.347-22.8-30.652-54.434-32.223-29.336-1.464-53.522 8.935-59.3 21.025-5.52 11.537-5.466 98.5-4.066 134.428 0 0 46.358 8.783 76.28-1.19 6.026-2.012 17.092-3.711 17.092-3.711z" class="cls-3" transform="translate(-224.694 -249.229)"/>
                    <g id="Group_302" clip-path="url(#clip-path-3)">
                        <path id="Path_478" d="M314.049 308.221c-15.195 20.83-31.761 52-31.761 52l-45.255-56.4s10.364 71.638 16.017 79.393 5.4 11.318 5.4 11.318 14.344 15.447 25.1 13.349c9.125-1.778 41.944-38.4 52.181-80.858z" class="cls-5" transform="translate(-226.674 -257.989)"/>
                    </g>
                    <path id="Path_480" d="M318.866 399.918s1.5-20.312 2.722-25.465c5.489-23.2 24.824-76.957 21.706-92.864-3.2-16.347-22.8-30.652-54.434-32.223-29.336-1.464-53.522 8.935-59.3 21.025-5.52 11.537-5.466 98.5-4.066 134.428 0 0 46.358 8.783 76.28-1.19 6.026-2.012 17.092-3.711 17.092-3.711z" class="cls-6" transform="translate(-224.694 -249.229)"/>
                </g>
                <g id="Group_305" transform="translate(80.006 92.117)">
                    <path id="Path_481" d="M310.06 246.8s-15.773 6.767-32.844 1.159c0 0 2.2-5.34 2.21-9.747.01-2.209-.547-4.193-2.21-5.136 0 0 .772-.847 2.08-2.188h.011c6.466-6.584 26.1-25.091 32.49-14.057.003.002-6.691.634-1.737 29.969z" class="cls-9" transform="translate(-255.458 -152.962)"/>
                    <path id="Path_482" d="M292.229 228.843a17.786 17.786 0 0 1-12.8 11.849c.01-2.209-.547-4.193-2.21-5.136 0 0 .772-.847 2.08-2.188h.011c6.249-2.456 12.919-4.525 12.919-4.525z" class="cls-10" transform="translate(-255.458 -155.441)"/>
                    <path id="Path_483" d="M312.852 191c6.775-27-7.817-36.236-17.012-39.774-14.729-5.667-33.315.78-37.67 15.777s-.431 18.412-.634 24.548c-.143 4.3-3 6.422.149 17.221 2.075 7.123 5.931 15.3 10.426 15.557 12.166.707 23.684-6.222 23.044-9.474" class="cls-9" transform="translate(-252.071 -142.66)"/>
                    <path id="Path_484" d="M278.162 183.182s5.447-1.882 8.356 4.058" class="cls-6" transform="translate(-255.61 -148.069)"/>
                    <path id="Path_485" d="M256.111 181.956s4.05-3.439 8.109 1.426" class="cls-6" transform="translate(-252.072 -147.728)"/>
                    <ellipse id="Ellipse_33" cx="1.351" cy="2.272" class="cls-10" rx="1.351" ry="2.272" transform="translate(23.635 44.273)"/>
                    <path id="Path_486" d="M260.935 194.937c0 1.255.6 2.272 1.351 2.272s1.35-1.017 1.35-2.272-.6-2.272-1.35-2.272-1.351 1.017-1.351 2.272z" class="cls-10" transform="translate(-252.846 -149.636)"/>
                    <path id="Path_487" d="M264.946 189.175s.839 6.251.464 7.474-4.6 5.041-4.769 6.737 3.537 3.41 3.537 3.41" class="cls-9" transform="translate(-252.798 -149.076)"/>
                    <path id="Path_488" d="M262.544 214.439s8.446 2.122 15.546 0c0 0-3.346 10.477-9.957 9.41-4.379-.707-3.264-7.573-3.264-7.573z" class="cls-10" transform="translate(-253.104 -153.13)"/>
                    <path id="Path_489" d="M284.026 161.4a11.164 11.164 0 0 0-8.352-1.272c-4.859 1.131-5.622 11.349-5.622 11.349a10.253 10.253 0 0 1-3.052-5.132l-1.527 4.384-4.051-3.818-1.357 4.562-1.609-3.289-3.117 6.073s-4.685-6.038-3.959-10.7c1.98-12.727 12.078-23.182 33.2-22.059 10.634.566 14.6 7.854 14.6 7.854s10.4-1.406 15.012 3.989c15.705 18.37 5.856 38.317-9.059 57.215l-5.113-18.011-4.949-.565a51.8 51.8 0 0 0 .031-5.55 27.878 27.878 0 0 0-1.834-6.966l-1.833.824.763-3.45-4.187 2.147s1.771-14.188 0-16.593a2.916 2.916 0 0 0-3.985-.992z" class="cls-10" transform="translate(-251.3 -141.411)"/>
                    <path id="Path_490" d="M305.625 203.218s4.95-9.224 10.124-6.974 1.575 13.273-2.925 16.873-7.2 0-7.2 0" class="cls-9" transform="translate(-260.017 -150.153)"/>
                    <g id="Group_304" opacity="0.2" transform="translate(4.597 4.27)">
                        <path id="Path_491" d="M292.1 159.628a9.061 9.061 0 0 0-7.9-5.569c-6.057-.4-10.41 6.166-10.549 10.741" class="cls-12" transform="translate(-259.483 -147.708)"/>
                        <path id="Path_492" d="M300.509 160.178s4.151-3.183 6.559 0c4.071 5.38.7 18.368.7 18.368" class="cls-12" transform="translate(-263.793 -148.466)"/>
                        <path id="Path_493" d="M307.236 155.8s4.319-2.655 8.02 2.463 3.3 17.551 3.3 17.551" class="cls-12" transform="translate(-264.873 -147.88)"/>
                        <path id="Path_494" d="M321.812 155.11s7.479 3.152 7.9 18.215" class="cls-12" transform="translate(-267.212 -147.88)"/>
                        <path id="Path_495" d="M295.186 154.929s-4.207-7.138-16.661-4.751-14.325 15.116-14.325 15.116" class="cls-12" transform="translate(-257.967 -147.01)"/>
                        <path id="Path_496" d="M297.094 152.251s-5.015-6.962-20.26-5.569-21.374 14.718-19.825 21.084" class="cls-12" transform="translate(-256.776 -146.498)"/>
                    </g>
                </g>
                <g id="Group_317" transform="translate(0 24.661)">
                    <g id="Group_313">
                        <path id="Path_497" fill="#757575" stroke="#263238" stroke-linecap="round" stroke-linejoin="round" d="M156 256.692s18.132-13.956 26.034-15.369 35.1 4.525 35.1 4.525v32.2s-17.013 1.867-24.649 7.456-33.936 6.485-33.936 6.485z" transform="translate(-156.002 -89.953)"/>
                        <path id="Path_498" d="M176.272 246.23a49.156 49.156 0 0 1 1.056-6.363c.641-2.263 5.025-2.021 6.014-1.222a12.242 12.242 0 0 1 1.946 2.192s-1.522.444-1.946.585-.848 8.343-7.07 4.808z" class="cls-9" transform="translate(-159.255 -89.467)"/>
                        <g id="Group_307" transform="translate(22.105 107.591)">
                            <path id="Rectangle_140" d="M0 0H55.402V27.435H0z" class="cls-3" transform="rotate(-70.968 36.734 26.186)"/>
                            <g id="Group_306" clip-path="url(#clip-path-4)">
                                <path id="Path_499" d="M182.332 241.591l25.936 8.947 18.066-52.374-25.934-8.946zm41.275-42.1l-16.667 48.32-21.881-7.547 16.668-48.319z" class="cls-15" transform="translate(-182.332 -189.218)"/>
                                <path id="Path_500" d="M207.5 196.99l-2.231 6.468a1.386 1.386 0 0 1-1.763.859 1.386 1.386 0 0 1-.858-1.763l2.231-6.468a1.387 1.387 0 0 1 1.763-.859 1.388 1.388 0 0 1 .858 1.763z" class="cls-15" transform="translate(-185.579 -190.17)"/>
                                <path id="Path_501" d="M213.475 247.156l-2.231 6.468a1.387 1.387 0 0 1-1.763.859 1.388 1.388 0 0 1-.859-1.763l2.231-6.468a1.386 1.386 0 0 1 1.763-.859 1.387 1.387 0 0 1 .859 1.763z" class="cls-15" transform="translate(-186.538 -198.22)"/>
                                <path id="Path_502" d="M198.771 221.292a8.594 8.594 0 1 0 10.929-5.322 8.595 8.595 0 0 0-10.929 5.322zm12.639 3.727l.641.221-.39 1.132-.641-.221a2.032 2.032 0 0 1-2.678.75l-.6-.208.451-1.307.692.238c.629.217.95.018 1.1-.421s.021-.8-.607-1.012-1.169-.122-2.218.557a3.267 3.267 0 0 1-3.127.623c-1.181-.407-1.766-1.158-1.646-2.2l-.654-.226.39-1.131.654.225a2.019 2.019 0 0 1 2.661-.741l.276.095-.451 1.307-.364-.125c-.629-.217-.955-.048-1.107.392s0 .774.63.991 1.155.117 2.217-.557a3.28 3.28 0 0 1 3.127-.623 2.042 2.042 0 0 1 1.644 2.241z" class="cls-15" transform="translate(-184.894 -193.435)"/>
                            </g>
                            <path id="Rectangle_142" d="M0 0H55.402V27.435H0z" class="cls-6" transform="rotate(-70.968 36.734 26.186)"/>
                        </g>
                        <g id="Group_309" transform="translate(1.153 24.192)">
                            <path id="Rectangle_143" d="M0 0H55.402V27.435H0z" class="cls-3" transform="rotate(75.116 13.258 17.241)"/>
                            <g id="Group_308" clip-path="url(#clip-path-5)">
                                <path id="Path_503" d="M183.89 89.879l-26.514 7.047 14.23 53.543 26.514-7.047zm-10.762 57.967L160 98.447l22.369-5.947 13.131 49.4z" class="cls-15" transform="translate(-157.376 -89.879)"/>
                                <path id="Path_504" d="M197.223 147.878l-1.757-6.612a1.387 1.387 0 0 1 .984-1.7 1.387 1.387 0 0 1 1.7.984l1.758 6.613a1.387 1.387 0 0 1-.984 1.7 1.387 1.387 0 0 1-1.701-.985z" class="cls-15" transform="translate(-163.48 -97.845)"/>
                                <path id="Path_505" d="M164.272 109.582l-1.758-6.613a1.387 1.387 0 0 1 .984-1.7 1.387 1.387 0 0 1 1.7.984l1.757 6.612a1.387 1.387 0 0 1-.984 1.7 1.387 1.387 0 0 1-1.699-.983z" class="cls-15" transform="translate(-158.193 -91.7)"/>
                                <path id="Path_506" d="M188.305 122.114a8.595 8.595 0 1 0-6.1 10.514 8.594 8.594 0 0 0 6.1-10.514zm-12.569 3.959l-.656.175-.307-1.157.656-.174c-.065-1.07.583-1.792 1.8-2.117l.617-.164.355 1.337-.707.188c-.643.17-.8.515-.679.965s.426.671 1.069.5 1.037-.551 1.529-1.7c.605-1.4 1.219-1.989 2.247-2.262a2.029 2.029 0 0 1 2.594.906l.668-.177.307 1.157-.668.177c.06 1.058-.573 1.776-1.795 2.1l-.282.076-.356-1.337.373-.1c.643-.17.819-.493.7-.943s-.432-.642-1.075-.471-1.024.547-1.53 1.7c-.618 1.4-1.219 1.989-2.247 2.262a2.042 2.042 0 0 1-2.612-.941z" class="cls-15" transform="translate(-159.627 -94.026)"/>
                            </g>
                            <path id="Rectangle_145" d="M0 0H55.402V27.435H0z" class="cls-6" transform="rotate(75.116 13.258 17.241)"/>
                        </g>
                        <path id="Path_507" fill="#999" stroke="#263238" stroke-linecap="round" stroke-linejoin="round" d="M156 257.574s26.3-8.865 33.371-10.137 27.759-.707 27.759-.707v32.2s-21.6 6.553-24.932 9.175-33.653 4.766-33.653 4.766z" transform="translate(-156.002 -90.835)"/>
                        <path id="Path_508" d="M197.735 264.239c-1.385 7.455-.39 17.451-5.326 23.5" class="cls-6" transform="translate(-161.844 -93.665)"/>
                        <path id="Path_509" d="M201.19 250.8q-.8 3.649-1.527 7.317" class="cls-6" transform="translate(-163.008 -91.508)"/>
                        <g id="Group_310" transform="translate(52.576 46.552)">
                            <path id="Path_510" d="M230.41 122.4a5.891 5.891 0 1 1-5.891-5.891 5.892 5.892 0 0 1 5.891 5.891z" class="cls-18" transform="translate(-218.627 -116.513)"/>
                            <path id="Path_511" d="M227.993 126.258a4.929 4.929 0 1 0-6.96-.379 4.929 4.929 0 0 0 6.96.379zm-5.295-5.392l-.259-.29.51-.458.26.29a1.166 1.166 0 0 1 1.551.371l.244.273-.59.529-.28-.312c-.255-.284-.472-.274-.67-.1s-.233.393.023.677.551.386 1.266.339a1.872 1.872 0 0 1 1.741.559 1.164 1.164 0 0 1 .212 1.562l.264.295-.511.458-.264-.3a1.157 1.157 0 0 1-1.541-.37l-.112-.124.59-.53.148.165c.254.284.464.29.663.112s.216-.388-.039-.672-.547-.38-1.267-.339a1.882 1.882 0 0 1-1.741-.559 1.171 1.171 0 0 1-.196-1.576z" class="cls-15" transform="translate(-218.811 -116.697)"/>
                        </g>
                        <g id="Group_311" transform="translate(24.673)">
                            <path id="Path_512" d="M197.174 66.954a5.891 5.891 0 1 1-5.891-5.891 5.892 5.892 0 0 1 5.891 5.891z" class="cls-18" transform="translate(-185.391 -61.063)"/>
                            <path id="Path_513" d="M194.757 70.808a4.929 4.929 0 1 0-6.96-.379 4.929 4.929 0 0 0 6.96.379zm-5.295-5.392l-.26-.289.511-.458.259.29a1.165 1.165 0 0 1 1.551.37l.244.273-.59.53-.28-.312c-.255-.285-.472-.275-.67-.1s-.233.393.022.677.552.386 1.267.339a1.872 1.872 0 0 1 1.741.559 1.164 1.164 0 0 1 .212 1.562l.264.295-.511.458-.264-.295a1.159 1.159 0 0 1-1.541-.37l-.113-.125.591-.53.148.165c.254.285.464.29.663.112s.216-.388-.039-.672-.547-.38-1.267-.338a1.884 1.884 0 0 1-1.741-.56 1.171 1.171 0 0 1-.197-1.581z" class="cls-15" transform="translate(-185.575 -61.247)"/>
                        </g>
                        <g id="Group_312" transform="translate(4.62 108.107)">
                            <path id="Path_514" d="M165.991 201.447a5.892 5.892 0 1 1 7.127-4.315 5.892 5.892 0 0 1-7.127 4.315z" class="cls-18" transform="translate(-161.505 -189.833)"/>
                            <path id="Path_515" d="M163.233 198.229a4.928 4.928 0 1 0 2.029-6.668 4.929 4.929 0 0 0-2.029 6.668zm6.5-3.856l.343-.183.323.606-.343.183a1.165 1.165 0 0 1-.73 1.418l-.323.172-.373-.7.37-.2c.336-.18.379-.393.253-.628s-.326-.319-.662-.139-.507.443-.631 1.149a1.872 1.872 0 0 1-.959 1.557 1.163 1.163 0 0 1-1.567-.166l-.35.186-.323-.605.35-.186a1.158 1.158 0 0 1 .727-1.408l.148-.079.374.7-.195.1c-.337.18-.393.383-.267.618s.325.3.662.123.5-.44.631-1.149a1.883 1.883 0 0 1 .959-1.557 1.172 1.172 0 0 1 1.582.188z" class="cls-15" transform="translate(-161.689 -190.017)"/>
                        </g>
                    </g>
                    <g id="Group_315" transform="translate(62.77 170.789)">
                        <path id="Path_516" d="M247.741 265.787c-1.5-2.719-5.79-1.409-10.795 6.454s-7.047 17.033-5.837 20.373S248.5 300 248.5 300l3.336-8.459z" class="cls-3" transform="translate(-230.77 -264.495)"/>
                        <g id="Group_314" clip-path="url(#clip-path-6)">
                            <path id="Path_517" d="M247.741 265.787c-1.5-2.719-5.79-1.409-10.795 6.454s-7.047 17.033-5.837 20.373S248.5 300 248.5 300l3.336-8.459z" class="cls-15" transform="translate(-230.77 -264.495)"/>
                        </g>
                        <path id="Path_519" d="M247.741 265.787c-1.5-2.719-5.79-1.409-10.795 6.454s-7.047 17.033-5.837 20.373S248.5 300 248.5 300l3.336-8.459z" class="cls-6" transform="translate(-230.77 -264.495)"/>
                    </g>
                    <g id="Group_316" transform="translate(24.721 150.4)">
                        <path id="Path_520" d="M247.314 278.351l-9.284-20.315s-6.049-8.658-7.241-11.958-14.5-5.868-17.5-5.868-6.183 5.369-6.183 5.369h6.251s2.331 2.451 2.624 3.918-8.264 8.761-9.488 9.455a45.234 45.234 0 0 0-7.848 4.287c-3.4 2.519-11.06 4.483-12.487 6.741s-.418 2.685.606 3.2a8.861 8.861 0 0 0 2.736.642s-.611 2.567 0 3.912 4.173 1.223 4.173 1.223a2.43 2.43 0 0 0 1.909 2.155 16.674 16.674 0 0 1 3.063.812s7.359 1.245 10.66.545 13.317-6.035 15.767-5.813 9.219 15.937 9.219 15.937 11.556-1.951 13.023-14.242z" class="cls-9" transform="translate(-185.448 -240.209)"/>
                        <path id="Path_521" d="M190.271 279.178s9.611-2.078 10.246-2.812 7.359-2.823 7.359-2.823" class="cls-6" transform="translate(-186.222 -245.558)"/>
                        <path id="Path_522" d="M195.242 285.39s5.4-1.1 7.275-1.345 9.58-3.79 9.58-3.79" class="cls-6" transform="translate(-187.02 -246.635)"/>
                        <path id="Path_523" d="M201.164 289.222s7.6-.645 9.193-1.378 6.235-2.2 6.235-2.2" class="cls-6" transform="translate(-187.97 -247.499)"/>
                    </g>
                    <path id="Path_524" d="M318.32 273.543c-11.282 7.436-18.1 25.4-18.1 25.4l-17.61 32.756s-14.809-36.46-19-36.926l-15.8-28.734s1.868 16.84-4.718 23.988-11.914 2.839-11.914 2.839l4.918 13.582 1.225 6.453s20.773 62.321 27.565 66.178 22.242 5.588 35.342-4.006 35.515-45.873 37.637-57.742" class="cls-1" transform="translate(-168.064 -93.953)"/>
                    <path id="Path_525" d="M262.235 304.89q.855-1.281 1.578-2.643" class="cls-6" transform="translate(-173.048 -99.764)"/>
                    <path id="Path_526" d="M246.378 314.335a17.914 17.914 0 0 0 11.651-6.3" class="cls-6" transform="translate(-170.504 -100.692)"/>
                    <path id="Path_527" d="M237.032 314.167a15.877 15.877 0 0 0 5.533 1.232" class="cls-6" transform="translate(-169.004 -101.677)"/>
                    <path id="Path_528" d="M297.878 361.448a16.272 16.272 0 0 1-.36 4.468" class="cls-6" transform="translate(-178.71 -109.264)"/>
                    <path id="Path_529" d="M292.445 344.244a36.142 36.142 0 0 1 4.319 11.743" class="cls-6" transform="translate(-177.896 -106.503)"/>
                    <path id="Path_530" d="M302.736 350.109a25.257 25.257 0 0 0-6.852-5.865" class="cls-6" transform="translate(-178.448 -106.503)"/>
                    <path id="Path_531" d="M333.809 294.59s-9.908-1.325-17.771 7.739" class="cls-6" transform="translate(-181.682 -98.524)"/>
                    <path id="Path_532" d="M348.626 327.439a9.307 9.307 0 0 1-5.553-.9" class="cls-6" transform="translate(-186.02 -103.662)"/>
                    <path id="Path_533" d="M362.059 311.786c-1.559 7.52-5.756 11.335-9.414 12.661" class="cls-6" transform="translate(-187.556 -101.295)"/>
                </g>
                <path id="Path_534" d="M303.323 260.431s-16.448 3.823-25.613-2.3" class="cls-6" transform="translate(-175.532 -68.023)"/>
                <path id="Path_535" d="M237.954 380.762s8.962 25.306 29.693 29.6" class="cls-6" transform="translate(-169.152 -87.701)"/>
                <path id="Path_536" d="M308.683 422.542c-1.067.8-2.185 1.541-3.322 2.242" class="cls-6" transform="translate(-179.969 -94.405)"/>
                <g id="Group_321" transform="translate(10.134)">
                    <g id="Group_318">
                        <path id="Line_157" d="M0 0L0 22.247" class="cls-12" transform="translate(4.201 21.664)"/>
                        <path id="Line_158" d="M0 0L0 8.899" class="cls-12" transform="translate(4.201 8.316)"/>
                        <path id="Line_159" d="M0 0L0 4.76" class="cls-12" transform="translate(4.201)"/>
                        <path id="Path_537" d="M168.073 80.894l4.2 5.2 4.2-5.2" class="cls-12" transform="translate(-168.073 -39.584)"/>
                    </g>
                    <g id="Group_319" transform="translate(11.121 111.399)">
                        <path id="Line_160" d="M0 0L0 22.247" class="cls-12" transform="translate(4.201 21.664)"/>
                        <path id="Line_161" d="M0 0L0 8.899" class="cls-12" transform="translate(4.201 8.316)"/>
                        <path id="Line_162" d="M0 0L0 4.76" class="cls-12" transform="translate(4.201)"/>
                        <path id="Path_538" d="M181.32 213.585l4.2 5.2 4.2-5.2" class="cls-12" transform="translate(-181.32 -172.275)"/>
                    </g>
                    <g id="Group_320" transform="translate(33.097 44.447)">
                        <path id="Line_163" d="M0 0L0 22.247" class="cls-12" transform="translate(4.201 21.664)"/>
                        <path id="Line_164" d="M0 0L0 8.899" class="cls-12" transform="translate(4.201 8.316)"/>
                        <path id="Line_165" d="M0 0L0 4.76" class="cls-12" transform="translate(4.201)"/>
                        <path id="Path_539" d="M207.5 133.836l4.2 5.2 4.2-5.2" class="cls-12" transform="translate(-207.496 -92.526)"/>
                    </g>
                </g>
            </g>
        </g>
    </g>
</svg>
