<svg xmlns="http://www.w3.org/2000/svg" width="14.5" height="17.059" viewBox="0 0 14.5 17.059">
  <defs>
    <style>
      .cls-1 {
        fill: #00d97e;
        fill-rule: evenodd;
      }
    </style>
  </defs>
  <path id="Location" class="cls-1" d="M3.5,9.095A7.19,7.19,0,0,1,10.744,2,7.192,7.192,0,0,1,18,9.095a8.843,8.843,0,0,1-1.9,5.368,18.819,18.819,0,0,1-4.726,4.385,1.021,1.021,0,0,1-1.244,0A18.458,18.458,0,0,1,5.4,14.463,8.837,8.837,0,0,1,3.5,9.095Zm4.857.221a2.394,2.394,0,0,0,4.786,0,2.393,2.393,0,0,0-4.786,0Z" transform="translate(-3.5 -2)"/>
</svg>
