<svg xmlns="http://www.w3.org/2000/svg" width="143.5" height="176.695" viewBox="0 0 143.5 176.695">
  <defs>
    <style>
      .cls-1 {
        fill: #fff;
      }

      .cls-2 {
        fill: #00d97e;
      }
    </style>
  </defs>
  <g id="location" transform="translate(-0.111 0)">
    <path id="Path_53" data-name="Path 53" class="cls-1" d="M100.982,141.748c-27.464,0-49.81-22.909-49.81-51.067s22.345-51.069,49.81-51.069,49.81,22.907,49.81,51.067S128.448,141.748,100.982,141.748Zm0-96.119c-24.148,0-43.794,20.21-43.794,45.051s19.646,45.053,43.794,45.053,43.794-20.212,43.794-45.053-19.645-45.051-43.794-45.051Zm0,0" transform="translate(-29.121 -22.592)"/>
    <g id="Group_7" data-name="Group 7" transform="translate(0.111 0)">
      <path id="Path_54" data-name="Path 54" class="cls-2" d="M20.874,123.774l48.8,51.971a3.006,3.006,0,0,0,4.386,0l48.793-51.971a76.145,76.145,0,0,0,16.346-25.945,70.74,70.74,0,0,0,4.272-29.116A75.022,75.022,0,0,0,121.8,20.733a70.517,70.517,0,0,0-99.883,0A75.032,75.032,0,0,0,.255,68.713,70.74,70.74,0,0,0,4.526,97.829a76.176,76.176,0,0,0,16.348,25.945ZM6.257,69.114A69.018,69.018,0,0,1,26.18,24.979a64.5,64.5,0,0,1,91.362,0,69.009,69.009,0,0,1,19.923,44.135,64.737,64.737,0,0,1-3.921,26.652,70.161,70.161,0,0,1-15.081,23.891l-46.6,49.638-46.6-49.638A70.2,70.2,0,0,1,10.178,95.767,64.774,64.774,0,0,1,6.257,69.114Zm0,0" transform="translate(-0.111 0)"/>
      <path id="Path_55" data-name="Path 55" class="cls-2" d="M126.528,152.309a3.006,3.006,0,0,0,4.2.049l27.417-26.187a3.008,3.008,0,0,0-4.154-4.351L128.7,145.976,115.23,132.5a3.009,3.009,0,0,0-4.255,4.255Zm0,0" transform="translate(-62.836 -69.001)"/>
    </g>
  </g>
</svg>
