<svg xmlns="http://www.w3.org/2000/svg" width="20" height="20" viewBox="0 0 20 20">
    <path fill="#fff" fill-rule="evenodd" d="M17.011 14.6a.75.75 0 0 0 .75-.75V12a.75.75 0 0 0-.75-.75h-5.692a2.6 2.6 0 1 0 0 1.5h2.112v1.1a.75.75 0 0 0 1.5 0v-1.1h1.33v1.1a.75.75 0 0 0 .75.75zM7.666 2h8.669C19.723 2 22 4.377 22 7.916v8.167C22 19.622 19.723 22 16.334 22H7.666C4.277 22 2 19.622 2 16.083V7.916C2 4.377 4.277 2 7.666 2zm.073 10a1.1 1.1 0 1 1 1.1 1.1 1.1 1.1 0 0 1-1.1-1.1z" transform="translate(-2 -1.999)"/>
</svg>
