<svg xmlns="http://www.w3.org/2000/svg" id="payment-method" width="24.644" height="24.54" viewBox="0 0 24.644 24.54">
    <defs>
        <style>
            .cls-1{fill:#00d97e}.cls-2{fill:#fff}
        </style>
    </defs>
    <g id="Group_3" transform="translate(1.428 2.65)">
        <path id="Path_10" d="M37.042 46.589a.4.4 0 0 0-.562-.051l-5.69 4.744a.335.335 0 0 0-.029.027 2.463 2.463 0 0 0-.71 1.736v10.579a.4.4 0 1 0 .8 0V53.045a1.668 1.668 0 0 1 .468-1.163l5.674-4.731a.4.4 0 0 0 .051-.562zm0 0" class="cls-1" transform="translate(-29.764 -46.445)"/>
        <path id="Path_11" d="M174.595 194.883a.4.4 0 0 0-.4.4v4.156a1.681 1.681 0 0 1-1.679 1.679.4.4 0 0 0-.4.4v2.078a.4.4 0 1 0 .8 0v-1.711a2.481 2.481 0 0 0 2.078-2.445v-4.156a.4.4 0 0 0-.399-.401zm0 0" class="cls-1" transform="translate(-163.727 -186.415)"/>
        <path id="Path_12" d="M26.266 367.579a1.2 1.2 0 1 1 1.179-1.2 1.2 1.2 0 0 1-1.179 1.2zm0-1.61a.407.407 0 1 0 .38.406.394.394 0 0 0-.38-.406zm0 0" class="cls-1" transform="translate(-25.034 -346.988)"/>
        <path id="Path_13" d="M300.593 115.652a45.568 45.568 0 0 1-2.876.627 3.075 3.075 0 1 0 2.876-.627zm-2.458 1.7a.9.9 0 1 1 .9.9.9.9 0 0 1-.9-.902zm2.458.9a.9.9 0 0 1-.115-.007l.011-.019.035-.061.019-.035.033-.068.014-.03.041-.1v-.009l.031-.094c0-.011.006-.023.009-.035s.013-.047.018-.071l.008-.04c0-.023.009-.046.012-.069s0-.027.006-.04.006-.049.008-.074 0-.023 0-.035v-.11-.111-.035c0-.012 0-.05-.008-.075s0-.027-.006-.04-.008-.047-.012-.07l-.008-.04-.018-.072-.009-.034-.03-.094v-.009c-.012-.034-.026-.067-.04-.1l-.014-.031-.032-.066-.019-.036-.034-.059-.011-.02a.9.9 0 1 1 .112 1.792zm0 0" class="cls-1" transform="translate(-281.802 -111.703)"/>
    </g>
    <path id="Path_14" d="M11.569 340.594H.4a.4.4 0 0 0-.4.4v4.312a.4.4 0 0 0 .4.4h11.17a.4.4 0 0 0 .4-.4v-4.312a.4.4 0 0 0-.4-.4zm-.4 4.312H.8v-3.513h10.37zm0 0" class="cls-2" transform="translate(0 -321.164)"/>
    <path id="Path_15" d="M154.412 0h-11.689a2.48 2.48 0 0 0-2.477 2.477v5.315a.4.4 0 0 0 .8 0V5.734h15.046v3.185a1.681 1.681 0 0 1-1.679 1.679h-11.69a1.66 1.66 0 0 1-1.048-.367.4.4 0 1 0-.5.623 2.484 2.484 0 0 0 1.546.542h11.689a2.48 2.48 0 0 0 2.477-2.477V2.477A2.48 2.48 0 0 0 154.412 0zm1.679 4.935h-15.046V3.656h15.046zm0-2.078h-15.046v-.38A1.681 1.681 0 0 1 142.723.8h11.689a1.68 1.68 0 0 1 1.679 1.679zm0 0" class="cls-2" transform="translate(-132.246)"/>
    <path id="Path_16" d="M84.81 117.518l.018-.317 2.1-2.1a1.96 1.96 0 0 0 0-2.769l-.367-.367a.4.4 0 0 0-.53-.031l-4.991 3.952a.4.4 0 0 0 .5.626l4.712-3.731.116.116a1.161 1.161 0 0 1 0 1.639l-2.2 2.2a.4.4 0 0 0-.116.259l-.028.481v.023a2.466 2.466 0 0 0 .244 1.054 2.423 2.423 0 0 1-.176 2.361.4.4 0 0 0-.067.222v1.039a.4.4 0 0 0 .8 0v-.923a3.228 3.228 0 0 0 .168-3.039 1.677 1.677 0 0 1-.183-.695zm0 0" class="cls-1" transform="translate(-76.271 -105.47)"/>
</svg>
