<svg xmlns="http://www.w3.org/2000/svg" id="sand-clock" width="17.831" height="24.922" viewBox="0 0 17.831 24.922">
    <defs>
        <style>
            .cls-2{fill:#00d97e}
        </style>
    </defs>
    <path id="Path_19" fill="#fff" d="M43.845 16.325l-3.917-3.579L43.913 8.9a6.646 6.646 0 0 0 2.021-4.74V.623a.623.623 0 1 0-1.246 0V4.16A5.4 5.4 0 0 1 43.045 8l-4.021 3.887L34.993 8a5.4 5.4 0 0 1-1.645-3.84V.623a.623.623 0 0 0-1.246 0V4.16a6.646 6.646 0 0 0 2.021 4.74l3.985 3.853-3.808 3.584a6.61 6.61 0 0 0-2.072 4.812V24.3a.623.623 0 1 0 1.246 0v-3.15a5.363 5.363 0 0 1 1.682-3.9l3.872-3.637 3.98 3.636a5.367 5.367 0 0 1 1.743 3.95v3.1A.623.623 0 0 0 46 24.3v-3.1a6.618 6.618 0 0 0-2.15-4.87zm0 0" transform="translate(-30.102)"/>
    <g id="Group_4">
        <path id="Path_20" d="M17.208 1.246H.623A.623.623 0 0 1 .623 0h16.585a.623.623 0 1 1 0 1.246zm0 0" class="cls-2"/>
        <path id="Path_21" d="M17.208 381.246H.623a.623.623 0 0 1 0-1.246h16.585a.623.623 0 0 1 0 1.246zm0 0" class="cls-2" transform="translate(0 -356.324)"/>
    </g>
</svg>
