<svg xmlns="http://www.w3.org/2000/svg" width="90.952" height="114.845" viewBox="0 0 90.952 114.845">
  <defs>
    <style>
      .cls-1 {
        fill: #fff;
      }

      .cls-2 {
        fill: #00d97e;
      }
    </style>
  </defs>
  <g id="search" transform="translate(-39.744 -41.415) rotate(21)">
    <path id="Path_25" data-name="Path 25" class="cls-1" d="M238.076,178.3a1.3,1.3,0,0,0-1.3-1.3H225.3a1.3,1.3,0,0,0-1.3,1.3v3.9a1.3,1.3,0,0,0,1.3,1.3h11.477a1.3,1.3,0,0,0,1.3-1.3ZM226.6,179.6h8.879v1.516H226.6Z" transform="translate(-115.95 -137.103)"/>
    <path id="Path_26" data-name="Path 26" class="cls-1" d="M193.132,112.056a1.3,1.3,0,0,0-1.294,1.18l-.84,9.171a1.366,1.366,0,0,0,.087.612l1.793,4.494a1.266,1.266,0,0,0,1.207.784h22.165a1.259,1.259,0,0,0,1.225-.821l1.6-4.508a1.2,1.2,0,0,0,.07-.516L217.4,101.314a1.278,1.278,0,0,0-1.295-1.169h-4.749V98.894a6.172,6.172,0,1,0-12.344,0v1.251h-4.771a1.252,1.252,0,0,0-1.294,1.126l-.307,3.3a1.3,1.3,0,0,0,1.293,1.418h0a1.3,1.3,0,0,0,1.293-1.176l.2-2.072h3.586v3.335a1.3,1.3,0,1,0,2.6,0v-3.335h7.146v3.335a1.3,1.3,0,1,0,2.6,0v-3.335H214.9l1.536,18.407H193.71l.716-7.731a1.256,1.256,0,0,0-1.294-1.364Zm8.474-11.911V98.894a3.573,3.573,0,1,1,7.146,0v1.251ZM194.969,125.7l-.732-1.949h21.757l-.663,1.949Z" transform="translate(-90.091 -71.076)"/>
    <g id="Group_5" data-name="Group 5" transform="translate(76 2)">
      <path id="Path_27" data-name="Path 27" class="cls-2" d="M170.321,54.611a29.452,29.452,0,0,0-41.654,41.648,29.049,29.049,0,0,0,16.932,8.354v2.877h-2.7a1.2,1.2,0,0,0-1.2,1.278V138.6a7.8,7.8,0,1,0,15.592,0V108.768a1.245,1.245,0,0,0-1.256-1.278H153.4v-2.877a29.048,29.048,0,0,0,16.932-8.354,29.483,29.483,0,0,0-.006-41.648ZM144.3,133.91h10.395v1.949H144.3Zm5.2,9.962a5.214,5.214,0,0,1-5.2-5.268v-.146h10.395v.146a5.214,5.214,0,0,1-5.2,5.268Zm5.2-12.56H144.3V110.089h10.395Zm-3.9-23.821h-2.6v-2.648c.433.019.87.029,1.3.029s.866-.011,1.3-.029Zm17.687-13.069a26.762,26.762,0,1,1,7.9-18.986A26.851,26.851,0,0,1,168.484,94.421Z" transform="translate(-110.517 -36.46)"/>
      <path id="Path_28" data-name="Path 28" class="cls-2" d="M183.486,74.121a24.937,24.937,0,1,0,0,35.282,24.937,24.937,0,0,0,0-35.282Zm-1.838,33.444a22.339,22.339,0,1,1,0-31.607A22.339,22.339,0,0,1,181.648,107.565Z" transform="translate(-126.865 -52.787)"/>
      <path id="Path_29" data-name="Path 29" class="cls-1" d="M251.6,7.63V3.3a1.3,1.3,0,0,0-2.6,0V7.63a1.3,1.3,0,0,0,2.6,0Z" transform="translate(-211.536 -2)"/>
      <path id="Path_30" data-name="Path 30" class="cls-1" d="M405,178.3a1.3,1.3,0,0,0,1.3,1.3h4.115a1.3,1.3,0,0,0,0-2.6H406.3A1.3,1.3,0,0,0,405,178.3Z" transform="translate(-333.753 -139.103)"/>
      <path id="Path_31" data-name="Path 31" class="cls-1" d="M77.3,177a1.3,1.3,0,1,0,0,2.6h4.115a1.3,1.3,0,0,0,0-2.6Z" transform="translate(-76 -139.103)"/>
      <path id="Path_32" data-name="Path 32" class="cls-1" d="M361.319,58.535l3.049-3.048a1.3,1.3,0,1,0-1.837-1.837L359.481,56.7a1.3,1.3,0,1,0,1.837,1.838Z" transform="translate(-297.794 -42.166)"/>
      <path id="Path_33" data-name="Path 33" class="cls-1" d="M130.251,285.923l-3.049,3.049a1.3,1.3,0,1,0,1.838,1.837l3.049-3.048a1.3,1.3,0,0,0-1.837-1.838Z" transform="translate(-115.816 -224.14)"/>
      <path id="Path_34" data-name="Path 34" class="cls-1" d="M359.481,285.923a1.3,1.3,0,0,0,0,1.838l3.049,3.048a1.3,1.3,0,1,0,1.837-1.837l-3.049-3.049A1.3,1.3,0,0,0,359.481,285.923Z" transform="translate(-297.794 -224.14)"/>
      <path id="Path_35" data-name="Path 35" class="cls-1" d="M131.17,58.916a1.3,1.3,0,0,0,.919-2.219l-3.049-3.048a1.3,1.3,0,1,0-1.837,1.837l3.049,3.048a1.3,1.3,0,0,0,.919.381Z" transform="translate(-115.816 -42.166)"/>
      <path id="Path_36" data-name="Path 36" class="cls-1" d="M242.3,354.115a1.3,1.3,0,0,0,1.3-1.3V351.3a1.3,1.3,0,0,0-2.6,0v1.516A1.3,1.3,0,0,0,242.3,354.115Z" transform="translate(-205.268 -274.639)"/>
      <path id="Path_37" data-name="Path 37" class="cls-1" d="M242.3,387.477a1.3,1.3,0,0,0,1.3-1.3V377.3a1.3,1.3,0,0,0-2.6,0v8.879A1.3,1.3,0,0,0,242.3,387.477Z" transform="translate(-205.268 -295.009)"/>
    </g>
  </g>
</svg>
