<svg xmlns="http://www.w3.org/2000/svg" width="137.5" height="176.577" viewBox="0 0 137.5 176.577">
  <defs>
    <style>
      .cls-1 {
        fill: #fff;
      }

      .cls-2 {
        fill: #00d97e;
      }
    </style>
  </defs>
  <g id="security" transform="translate(-0.056)">
    <path id="Path_41" data-name="Path 41" class="cls-1" d="M100.6,185.71a3.3,3.3,0,0,1-2.513-1.158L80.633,164.114a3.3,3.3,0,1,1,5.026-4.292l15.356,17.984,38.141-31.03a3.3,3.3,0,0,1,4.171,5.126l-40.647,33.067a3.288,3.288,0,0,1-2.082.741Zm0,0" transform="translate(-42.127 -77.107)"/>
    <path id="Path_42" data-name="Path 42" class="cls-2" d="M57.383,172.4l8.957,3.9a3.3,3.3,0,0,0,2.629,0l10.093-4.359a95.458,95.458,0,0,0,58.494-88V38.669a3.305,3.305,0,0,0-1.75-2.917L69.441.389A3.3,3.3,0,0,0,66.3.408L1.77,35.771a3.3,3.3,0,0,0-1.715,2.9V84.862A95.646,95.646,0,0,0,57.383,172.4ZM6.663,40.625,67.909,7.058l63.039,33.591v43.3a88.864,88.864,0,0,1-54.473,81.922l-.024.011-8.787,3.794-7.637-3.332A89.03,89.03,0,0,1,6.662,84.861Zm0,0"/>
  </g>
</svg>
